<svg width="34" height="21" viewBox="0 0 34 21" fill="none" xmlns="http://www.w3.org/2000/svg">
<path d="M4.60611 11.4267H9.61128C9.66797 11.4234 9.73485 11.4222 9.80287 11.4222C10.6293 11.4222 11.3957 11.677 12.0249 12.1104L12.0124 12.1026C12.5781 12.5975 12.9329 13.317 12.9329 14.1169C12.9329 14.2085 12.9284 14.299 12.9193 14.3884L12.9205 14.3772C12.9216 14.4119 12.9227 14.4532 12.9227 14.4945C12.9227 14.937 12.8196 15.357 12.6371 15.7302L12.645 15.7134C12.4659 16.0508 12.2131 16.3279 11.9047 16.5312L11.8968 16.5357C11.5861 16.739 11.2222 16.8921 10.8311 16.9703L10.8118 16.9736C10.44 17.0552 10.0126 17.1021 9.57501 17.1021C9.55573 17.1021 9.53646 17.1021 9.51832 17.1021H9.52172H4.60725L4.60611 11.4267ZM26.503 8.36112C26.5676 8.35665 26.6425 8.3533 26.7184 8.3533C27.5471 8.3533 28.2999 8.67282 28.8577 9.19343L28.8565 9.19232C29.4075 9.828 29.7612 10.6458 29.8145 11.5429V11.5541H23.0476C23.0771 11.1921 23.1451 10.8569 23.246 10.5374L23.2369 10.5698C23.3559 10.1654 23.5475 9.8146 23.7981 9.51295L23.7935 9.51854C24.0826 9.18115 24.4329 8.9052 24.8286 8.7041L24.8479 8.69516C25.2945 8.4829 25.8194 8.35777 26.3738 8.35777C26.4191 8.35777 26.4645 8.35889 26.5087 8.36H26.5019L26.503 8.36112ZM26.6277 5.26536C26.5971 5.26536 26.562 5.26424 26.5257 5.26424C25.4215 5.26424 24.3706 5.4888 23.4183 5.89323L23.4693 5.87423C21.5953 6.66633 20.151 8.14774 19.4459 9.98776L19.4289 10.038C19.0752 10.9463 18.87 11.9965 18.87 13.0936C18.87 13.117 18.87 13.1405 18.87 13.1628V13.1595C18.87 13.1897 18.87 13.2243 18.87 13.26C18.87 14.365 19.0695 15.4241 19.4346 16.4038L19.4142 16.3402C19.7747 17.3043 20.2973 18.131 20.956 18.8315L20.9514 18.827C21.6237 19.513 22.4388 20.0582 23.3503 20.4157L23.3968 20.4313C24.3196 20.79 25.3886 20.9978 26.5064 20.9978C26.5484 20.9978 26.5914 20.9978 26.6334 20.9966H26.6266C26.698 20.9989 26.7808 21 26.8647 21C28.4008 21 29.8337 20.5654 31.0434 19.8147L31.0105 19.8336C32.3188 18.9108 33.2767 17.5803 33.6996 16.0318L33.7109 15.9838H30.0491C29.8315 16.5435 29.4449 16.9982 28.9495 17.2987L28.9381 17.3054C28.3554 17.6987 27.6344 17.9333 26.8579 17.9333C26.825 17.9333 26.7921 17.9333 26.7604 17.9322H26.7649C26.6923 17.9378 26.6073 17.94 26.5212 17.94C25.5813 17.94 24.7243 17.5948 24.0713 17.0261L24.0747 17.0295C23.433 16.3011 23.0419 15.3447 23.0419 14.2968C23.0419 14.2398 23.043 14.1817 23.0453 14.1248V14.1326H33.9717C33.9898 13.9024 34 13.6354 34 13.3651C34 12.4579 33.8844 11.5775 33.6656 10.7374L33.6814 10.8111C33.4082 9.73081 32.9491 8.78342 32.3346 7.95558L32.3505 7.97792C31.7304 7.15119 30.9391 6.48423 30.0265 6.01724L29.9891 5.99936C29.0583 5.53237 27.9587 5.25866 26.7944 5.25866C26.7343 5.25866 26.6753 5.25978 26.6164 5.26089H26.6255L26.6277 5.26536ZM4.60611 3.51136H8.91407C8.93108 3.51136 8.95262 3.51136 8.97303 3.51136C9.37094 3.51136 9.75979 3.54823 10.1362 3.61973L10.0976 3.61414C10.4785 3.67559 10.8198 3.80295 11.1247 3.98393L11.1123 3.97723C11.4116 4.15151 11.6519 4.39395 11.8174 4.68442L11.8219 4.69336C11.9841 5.01064 12.0793 5.38378 12.0793 5.77927C12.0793 5.81279 12.0782 5.84742 12.077 5.88094V5.87647C12.0838 5.93792 12.0872 6.01053 12.0872 6.08315C12.0872 6.75235 11.7789 7.35117 11.2948 7.74778L11.2914 7.75113C10.7631 8.11534 10.1067 8.33319 9.39815 8.33319C9.35167 8.33319 9.30406 8.33207 9.25758 8.32984H9.26438H4.60498L4.60611 3.51136ZM22.1962 1.38421V3.41751H30.6738V1.38309L22.1962 1.38421ZM0 0.00111712V20.6112H10.1373C10.143 20.6112 10.1509 20.6112 10.1577 20.6112C11.1225 20.6112 12.0566 20.485 12.9454 20.2481L12.8706 20.2649C13.7764 20.0347 14.57 19.6672 15.2728 19.1801L15.2502 19.1957C15.9417 18.7109 16.4995 18.0841 16.8906 17.3579L16.9042 17.3289C17.2885 16.5859 17.5141 15.7078 17.5141 14.7772C17.5141 14.7247 17.513 14.6711 17.5119 14.6186V14.6264C17.5141 14.575 17.5141 14.5135 17.5141 14.4532C17.5141 13.2869 17.1604 12.2032 16.5528 11.2982L16.5664 11.3195C15.8794 10.3788 14.884 9.69394 13.7288 9.40794L13.6948 9.40123C14.5643 9.01915 15.2842 8.43821 15.8181 7.7165L15.8283 7.70197C16.2796 7.01378 16.5482 6.17253 16.5482 5.26983C16.5482 5.21174 16.5471 5.15364 16.5448 5.09555V5.10337C16.5471 5.05086 16.5471 4.98941 16.5471 4.92797C16.5471 4.11688 16.3702 3.34601 16.0517 2.65111L16.0664 2.68575C15.7501 2.04224 15.2853 1.51157 14.7151 1.12167L14.7015 1.11273C14.0972 0.717242 13.3887 0.422301 12.6269 0.269245L12.5883 0.262542C11.8061 0.0960788 10.9059 0 9.98426 0C9.94005 0 9.89584 -8.10268e-08 9.85162 0.00111712H9.85842H0Z" fill="#5472C7"/>
</svg>
