<svg width="18" height="11" viewBox="0 0 18 11" fill="none" xmlns="http://www.w3.org/2000/svg">
<path d="M2.43853 5.98542H5.08833C5.11834 5.98367 5.15375 5.98308 5.18976 5.98308C5.62729 5.98308 6.03301 6.11651 6.36611 6.34356L6.35951 6.33947C6.659 6.59871 6.84685 6.97558 6.84685 7.39458C6.84685 7.44257 6.84445 7.48997 6.83965 7.53679L6.84025 7.53094C6.84085 7.54908 6.84145 7.57073 6.84145 7.59238C6.84145 7.82412 6.78684 8.04416 6.69021 8.23961L6.69441 8.23083C6.59958 8.40756 6.46574 8.55269 6.30249 8.6592L6.29829 8.66154C6.13384 8.76805 5.94118 8.84822 5.73412 8.88918L5.72392 8.89094C5.52706 8.93366 5.30079 8.95824 5.06912 8.95824C5.05892 8.95824 5.04871 8.95824 5.03911 8.95824H5.04091H2.43913L2.43853 5.98542ZM14.031 4.37963C14.0652 4.37729 14.1048 4.37554 14.145 4.37554C14.5838 4.37554 14.9823 4.54291 15.2776 4.81561L15.277 4.81502C15.5687 5.148 15.7559 5.57637 15.7841 6.04628V6.05214H12.2017C12.2173 5.86253 12.2533 5.68697 12.3067 5.5196L12.3019 5.53657C12.3649 5.32473 12.4663 5.14098 12.599 4.98298L12.5966 4.9859C12.7496 4.80917 12.9351 4.66463 13.1445 4.55929L13.1547 4.55461C13.3912 4.44342 13.6691 4.37788 13.9626 4.37788C13.9866 4.37788 14.0106 4.37846 14.034 4.37905H14.0304L14.031 4.37963ZM14.097 2.75805C14.0808 2.75805 14.0622 2.75746 14.043 2.75746C13.4584 2.75746 12.9021 2.87509 12.3979 3.08693L12.4249 3.07698C11.4328 3.49189 10.6682 4.26786 10.2949 5.23169L10.2859 5.25802C10.0986 5.73379 9.99 6.28387 9.99 6.85854C9.99 6.87083 9.99 6.88312 9.99 6.89482V6.89307C9.99 6.90887 9.99 6.92701 9.99 6.94574C9.99 7.5245 10.0956 8.07927 10.2889 8.59249L10.2781 8.55913C10.4689 9.06416 10.7456 9.49721 11.0943 9.86413L11.0919 9.86179C11.4478 10.2211 11.8794 10.5067 12.3619 10.6939L12.3865 10.7021C12.8751 10.89 13.441 10.9988 14.0328 10.9988C14.055 10.9988 14.0778 10.9988 14.1 10.9982H14.0964C14.1342 10.9994 14.1781 11 14.2225 11C15.0357 11 15.7943 10.7724 16.4347 10.3791L16.4173 10.389C17.1099 9.90567 17.6171 9.2087 17.841 8.39762L17.847 8.37245H15.9084C15.7931 8.66564 15.5885 8.90381 15.3262 9.06123L15.3202 9.06474C15.0117 9.27073 14.63 9.39362 14.2189 9.39362C14.2015 9.39362 14.1841 9.39363 14.1672 9.39304H14.1697C14.1312 9.39597 14.0862 9.39714 14.0406 9.39714C13.5431 9.39714 13.0893 9.21631 12.7436 8.91844L12.7454 8.9202C12.4057 8.53865 12.1987 8.03772 12.1987 7.4888C12.1987 7.45896 12.1993 7.42853 12.2005 7.39868V7.40278H17.985C17.9946 7.28223 18 7.14236 18 7.00074C18 6.52556 17.9388 6.06442 17.8229 5.62435L17.8313 5.66298C17.6867 5.09709 17.4436 4.60084 17.1183 4.16721L17.1267 4.17891C16.7984 3.74586 16.3795 3.3965 15.8964 3.15189L15.8766 3.14252C15.3838 2.89791 14.8016 2.75453 14.1853 2.75453C14.1534 2.75453 14.1222 2.75512 14.091 2.75571H14.0958L14.097 2.75805ZM2.43853 1.83928H4.71922C4.72822 1.83928 4.73962 1.83928 4.75042 1.83928C4.96109 1.83928 5.16695 1.85859 5.36621 1.89605L5.3458 1.89312C5.54746 1.92531 5.72812 1.99202 5.88957 2.08682L5.88296 2.08331C6.04141 2.1746 6.16865 2.30159 6.25628 2.45374L6.25868 2.45842C6.3445 2.62462 6.39492 2.82008 6.39492 3.02724C6.39492 3.04479 6.39432 3.06294 6.39372 3.08049V3.07815C6.39732 3.11034 6.39912 3.14837 6.39912 3.18641C6.39912 3.53695 6.23587 3.85061 5.97959 4.05836L5.97779 4.06012C5.69811 4.25089 5.35061 4.365 4.97549 4.365C4.95088 4.365 4.92568 4.36442 4.90107 4.36325H4.90467H2.43793L2.43853 1.83928ZM11.7509 0.725062V1.79013H16.2391V0.724477L11.7509 0.725062ZM0 0.000585157V10.7964H5.36681C5.36981 10.7964 5.37401 10.7964 5.37761 10.7964C5.88837 10.7964 6.38292 10.7302 6.85346 10.6062L6.81384 10.6149C7.29339 10.4944 7.71351 10.3019 8.08563 10.0467L8.07362 10.0549C8.43973 9.80092 8.73502 9.47263 8.94208 9.09225L8.94928 9.07703C9.15275 8.68788 9.27218 8.22791 9.27218 7.74044C9.27218 7.71293 9.27158 7.68484 9.27098 7.65734V7.66143C9.27218 7.63452 9.27218 7.60233 9.27218 7.57073C9.27218 6.95978 9.08492 6.39214 8.76323 5.91812L8.77043 5.92924C8.40672 5.4365 7.87976 5.07778 7.26818 4.92797L7.25017 4.92446C7.71051 4.72432 8.09163 4.42001 8.37431 4.04197L8.37971 4.03437C8.61859 3.67388 8.76083 3.23323 8.76083 2.76039C8.76083 2.72996 8.76023 2.69953 8.75903 2.6691V2.67319C8.76023 2.64569 8.76023 2.6135 8.76023 2.58132C8.76023 2.15646 8.6666 1.75267 8.49795 1.38868L8.50575 1.40682C8.3383 1.06974 8.09223 0.791775 7.79034 0.58754L7.78313 0.582859C7.46324 0.375698 7.08813 0.221205 6.68481 0.141033L6.6644 0.137522C6.25027 0.050327 5.77373 0 5.28579 0C5.26238 0 5.23897 -4.24426e-08 5.21556 0.000585157H5.21917H0Z" fill="white"/>
</svg>
