<svg width="34" height="21" viewBox="0 0 34 21" fill="none" xmlns="http://www.w3.org/2000/svg">
<path d="M31.3541 5.29205H2.64586C1.70061 5.29205 0.827121 4.78766 0.354365 3.96895C-0.118122 3.15027 -0.118122 2.14178 0.354365 1.3231C0.827115 0.504413 1.70061 0 2.64586 0H31.3541C32.2994 0 33.1729 0.504393 33.6456 1.3231C34.1181 2.14178 34.1181 3.15027 33.6456 3.96895C33.1729 4.78764 32.2994 5.29205 31.3541 5.29205ZM2.66476 0.756249C1.98951 0.756249 1.36542 1.11641 1.02793 1.70122C0.690175 2.28577 0.690175 3.00636 1.02793 3.59117C1.36542 4.17571 1.98951 4.53614 2.66476 4.53614H31.3541C32.0294 4.53614 32.6532 4.17571 32.9907 3.59117C33.3285 3.00636 33.3285 2.28576 32.9907 1.70122C32.6532 1.11641 32.0294 0.756249 31.3541 0.756249H2.66476Z" fill="white"/>
<path d="M31.3541 13.0145H2.64586C1.70061 13.0145 0.827121 12.5104 0.354365 11.6917C-0.118122 10.873 -0.118122 9.86423 0.354365 9.04554C0.827115 8.22686 1.70061 7.72272 2.64586 7.72272H31.3541C32.2994 7.72272 33.1729 8.22685 33.6456 9.04554C34.1181 9.86423 34.1181 10.873 33.6456 11.6917C33.1729 12.5104 32.2994 13.0145 31.3541 13.0145ZM2.64586 8.4787C1.97061 8.4787 1.34679 8.83886 1.00903 9.42367C0.671539 10.0085 0.671539 10.7288 1.00903 11.3136C1.34678 11.8984 1.97061 12.2586 2.64586 12.2586H31.3541C32.0294 12.2586 32.6532 11.8984 32.9907 11.3136C33.3285 10.7288 33.3285 10.0085 32.9907 9.42367C32.6532 8.83886 32.0294 8.4787 31.3541 8.4787H2.64586Z" fill="white"/>
<path d="M31.3541 20.737H2.64586C1.70061 20.737 0.827121 20.2326 0.354365 19.4139C-0.118122 18.5952 -0.118122 17.5867 0.354365 16.768C0.827115 15.9493 1.70061 15.4449 2.64586 15.4449H31.3541C32.2994 15.4449 33.1729 15.9493 33.6456 16.768C34.1181 17.5867 34.1181 18.5952 33.6456 19.4139C33.1729 20.2326 32.2994 20.737 31.3541 20.737ZM2.66476 16.2012V16.2009C1.98951 16.2009 1.36542 16.5613 1.02793 17.1459C0.690175 17.7307 0.690175 18.4513 1.02793 19.0358C1.36542 19.6206 1.98951 19.9808 2.66476 19.9808H31.3541C32.0294 19.9808 32.6532 19.6206 32.9907 19.0358C33.3285 18.4513 33.3285 17.7307 32.9907 17.1459C32.6532 16.5613 32.0294 16.2009 31.3541 16.2009L2.66476 16.2012Z" fill="white"/>
</svg>
