<svg width="15" height="15" viewBox="0 0 15 15" fill="none" xmlns="http://www.w3.org/2000/svg">
<path d="M7.68144 4.49997C8.22052 4.49997 8.75961 4.63961 9.22343 4.91893C9.58376 5.13593 10.0645 5.16299 10.3696 4.87339V4.87339C10.6733 4.58503 10.6867 4.09791 10.3477 3.852C9.56456 3.28401 8.623 3 7.68146 3C6.41723 3 5.31108 3.45003 4.36293 4.34995C2.54569 6.07489 2.54569 8.92495 4.36293 10.7249C5.2321 11.55 6.41729 12 7.68146 12C8.67954 12 9.57915 11.7195 10.3803 11.1585C10.7375 10.9084 10.7345 10.398 10.4181 10.0977V10.0977C10.1243 9.81878 9.66649 9.82898 9.31441 10.0295C8.13706 10.6999 6.56785 10.5568 5.62716 9.60008C4.44197 8.40005 4.44197 6.52508 5.62716 5.32508C6.10115 4.80003 6.81227 4.49997 7.68144 4.49997Z" fill="white"/>
<path d="M7.5 0C3.375 0 0 3.375 0 7.5C0 11.625 3.375 15 7.5 15C11.625 15 15 11.625 15 7.5C15 3.375 11.625 0 7.5 0ZM7.5 13.5C4.2 13.5 1.5 10.8 1.5 7.5C1.5 4.2 4.2 1.5 7.5 1.5C10.8 1.5 13.5 4.2 13.5 7.5C13.5 10.8 10.8 13.5 7.5 13.5Z" fill="white"/>
</svg>
