<svg width="16" height="16" viewBox="0 0 16 16" fill="none" xmlns="http://www.w3.org/2000/svg">
<path d="M13.3659 7.76572C13.6782 7.45339 13.6782 6.94686 13.3659 6.63441C13.0534 6.32196 12.5469 6.32196 12.2345 6.63441L8.80004 10.0688V0.799962C8.80004 0.358118 8.44192 0 8.00007 0C7.55823 0 7.20011 0.358118 7.20011 0.799962V10.0688L3.76568 6.63441C3.45322 6.32196 2.94669 6.32196 2.63424 6.63441C2.32179 6.94687 2.32178 7.4534 2.63424 7.76572L7.43429 12.5658C7.58429 12.7158 7.78784 12.8001 8.00001 12.8001C8.21217 12.8001 8.41572 12.7158 8.56573 12.5658L13.3659 7.76572Z" fill="white"/>
<path d="M15.2001 14.4004C15.6419 14.4004 16.0001 14.7585 16.0001 15.2004C16.0001 15.6422 15.6419 16.0003 15.2001 16.0003H0.799962C0.358118 16.0003 0 15.6422 0 15.2004C0 14.7585 0.358118 14.4004 0.799962 14.4004H15.2001Z" fill="white"/>
</svg>
