<svg width="25" height="25" viewBox="0 0 25 25" fill="none" xmlns="http://www.w3.org/2000/svg">
<path d="M5.65806 7.79248H0.778739C0.562187 7.79248 0.386719 7.96803 0.386719 8.1845V23.8597C0.386719 24.0762 0.562187 24.2517 0.778739 24.2517H5.65806C5.87461 24.2517 6.05008 24.0762 6.05008 23.8597V8.1845C6.05008 7.96803 5.87461 7.79248 5.65806 7.79248Z" fill="#5472C7"/>
<path d="M3.21974 0C1.44436 0 0 1.44279 0 3.21621C0 4.99042 1.44436 6.43376 3.21974 6.43376C4.99371 6.43376 6.4369 4.99034 6.4369 3.21621C6.43698 1.44279 4.99371 0 3.21974 0Z" fill="#5472C7"/>
<path d="M18.0681 7.40308C16.1084 7.40308 14.6597 8.24553 13.7811 9.20276V8.18469C13.7811 7.96821 13.6056 7.79267 13.389 7.79267H8.71624C8.49969 7.79267 8.32422 7.96821 8.32422 8.18469V23.8599C8.32422 24.0764 8.49969 24.2519 8.71624 24.2519H13.5849C13.8014 24.2519 13.9769 24.0764 13.9769 23.8599V16.1043C13.9769 13.4908 14.6868 12.4727 16.5086 12.4727C18.4927 12.4727 18.6504 14.1049 18.6504 16.2387V23.8599C18.6504 24.0765 18.8258 24.252 19.0424 24.252H23.9128C24.1294 24.252 24.3049 24.0765 24.3049 23.8599V15.2618C24.3049 11.3757 23.5639 7.40308 18.0681 7.40308Z" fill="#5472C7"/>
</svg>
