<svg width="25" height="25" viewBox="0 0 25 25" fill="none" xmlns="http://www.w3.org/2000/svg">
<path d="M5.65739 7.7926H0.778068C0.561516 7.7926 0.386047 7.96815 0.386047 8.18462V23.8598C0.386047 24.0763 0.561516 24.2518 0.778068 24.2518H5.65739C5.87394 24.2518 6.04941 24.0763 6.04941 23.8598V8.18462C6.04941 7.96815 5.87394 7.7926 5.65739 7.7926Z" fill="#A16D3D"/>
<path d="M3.21974 0C1.44436 0 0 1.44279 0 3.21621C0 4.99042 1.44436 6.43376 3.21974 6.43376C4.99371 6.43376 6.4369 4.99034 6.4369 3.21621C6.43698 1.44279 4.99371 0 3.21974 0Z" fill="#A16D3D"/>
<path d="M18.0686 7.40295C16.1089 7.40295 14.6603 8.24541 13.7816 9.20264V8.18456C13.7816 7.96809 13.6061 7.79254 13.3896 7.79254H8.71676C8.50021 7.79254 8.32474 7.96809 8.32474 8.18456V23.8597C8.32474 24.0763 8.50021 24.2518 8.71676 24.2518H13.5854C13.802 24.2518 13.9774 24.0763 13.9774 23.8597V16.1042C13.9774 13.4907 14.6873 12.4726 16.5091 12.4726C18.4932 12.4726 18.6509 14.1048 18.6509 16.2386V23.8598C18.6509 24.0764 18.8263 24.2518 19.0429 24.2518H23.9134C24.1299 24.2518 24.3054 24.0764 24.3054 23.8598V15.2617C24.3054 11.3756 23.5644 7.40295 18.0686 7.40295Z" fill="#A16D3D"/>
</svg>
