<svg width="30" height="22" viewBox="0 0 30 22" fill="none" xmlns="http://www.w3.org/2000/svg">
<path d="M14.1974 8.86909L1.76562 0.338377C2.18848 0.116332 2.67481 0 3.17148 0H26.4283C26.9675 0 27.4854 0.13733 27.9399 0.380614L15.4023 8.86965C15.0323 9.12308 14.5675 9.12308 14.1973 8.86941L14.1974 8.86909Z" fill="#5472C7"/>
<path d="M29.5996 3.17141V17.9712C29.5996 19.7154 28.1724 21.1426 26.4282 21.1426H3.17138C1.42712 21.1426 0 19.7154 0 17.9712V3.17141C0 2.71694 0.0950932 2.27285 0.285521 1.88159L12.9922 10.6032C13.542 10.9838 14.1763 11.1742 14.7999 11.1742C15.4342 11.1742 16.0579 10.9944 16.5971 10.6138L29.3569 1.97678C29.5155 2.34678 29.5999 2.74861 29.5999 3.17146L29.5996 3.17141Z" fill="#5472C7"/>
</svg>
