<svg width="30" height="22" viewBox="0 0 30 22" fill="none" xmlns="http://www.w3.org/2000/svg">
<path d="M14.197 8.86909L1.7652 0.338377C2.18805 0.116332 2.67439 0 3.17106 0H26.4279C26.967 0 27.485 0.13733 27.9394 0.380614L15.4019 8.86965C15.0319 9.12308 14.5671 9.12308 14.1968 8.86941L14.197 8.86909Z" fill="#A16D3D"/>
<path d="M29.5996 3.17141V17.9712C29.5996 19.7154 28.1724 21.1426 26.4282 21.1426H3.17138C1.42712 21.1426 0 19.7154 0 17.9712V3.17141C0 2.71694 0.0950932 2.27285 0.285521 1.88159L12.9922 10.6032C13.542 10.9838 14.1763 11.1742 14.7999 11.1742C15.4342 11.1742 16.0579 10.9944 16.5971 10.6138L29.3569 1.97678C29.5155 2.34678 29.5999 2.74861 29.5999 3.17146L29.5996 3.17141Z" fill="#A16D3D"/>
</svg>
