<svg width="27" height="28" viewBox="0 0 27 28" fill="none" xmlns="http://www.w3.org/2000/svg">
<path fill-rule="evenodd" clip-rule="evenodd" d="M10.6059 8.14802L8.20538 10.4055C8.10839 10.4966 8.05009 10.6121 8.03316 10.7315C8.01623 10.8513 8.04018 10.9783 8.10815 11.0922C8.5653 11.8601 9.08416 12.6275 9.6632 13.3894C10.2333 14.1387 10.8605 14.8807 11.5446 15.6091C12.2351 16.3446 12.9391 17.0258 13.6502 17.6504C14.3717 18.2839 15.1066 18.8641 15.8489 19.3888C15.9597 19.4669 16.0881 19.5014 16.2134 19.4933C16.3373 19.4851 16.4589 19.435 16.5583 19.3435L18.9955 17.097C19.2011 16.9075 19.4551 16.7996 19.717 16.778C19.9768 16.7562 20.2446 16.8207 20.4802 16.9741C21.4023 17.574 22.3446 18.1082 23.2966 18.5746C24.2538 19.043 25.2184 19.4403 26.1803 19.7639C26.4404 19.8516 26.6535 20.0175 26.7971 20.2306C26.9411 20.4436 27.0151 20.7018 26.9974 20.9724C26.9401 21.8623 26.8799 22.7026 26.8155 23.5227C26.7558 24.2842 26.684 25.1247 26.5993 26.059C26.5475 26.6323 26.2713 27.133 25.864 27.4815C25.4557 27.8307 24.916 28.0291 24.3381 27.9965C21.4967 27.8362 18.4744 26.9693 15.5334 25.4514C12.7117 23.995 9.95947 21.9374 7.5102 19.328C5.06719 16.7258 3.19764 13.8617 1.9348 10.97C0.619206 7.95795 -0.0375401 4.91385 0.00165655 2.10083C0.00988042 1.51913 0.253215 0.994012 0.64094 0.614152C1.02795 0.235464 1.56036 0.000823433 2.14713 0.000338715C3.04017 -0.0010993 3.89544 0.00201646 4.74328 0.0101656C5.59712 0.0183144 6.44031 0.0312571 7.30289 0.0494721C7.57598 0.0549846 7.82656 0.146538 8.02614 0.302329C8.22642 0.45836 8.37566 0.6779 8.44532 0.939151C8.70293 1.9019 9.03237 2.87066 9.43149 3.83636C9.82769 4.79457 10.2938 5.7521 10.8281 6.69951C10.9641 6.94062 11.0096 7.20762 10.9709 7.46169C10.9319 7.71646 10.8081 7.95877 10.6056 8.14857L10.6059 8.14802Z" fill="#5472C7"/>
</svg>
