<svg width="37" height="38" viewBox="0 0 37 38" fill="none" xmlns="http://www.w3.org/2000/svg">
<path d="M2.01778 28.7509C1.77913 28.7509 1.54047 28.6598 1.35829 28.4777C0.993931 28.1133 0.993931 27.5228 1.35829 27.1584L6.75183 21.7649C7.1162 21.4005 7.70671 21.4008 8.07082 21.7649C8.43518 22.1292 8.43518 22.7197 8.07082 23.0841L2.67755 28.4779C2.49537 28.6599 2.25643 28.7509 2.01778 28.7509Z" fill="#A16D3D"/>
<path d="M3.22818 33.9189C2.98953 33.9189 2.75087 33.8278 2.5687 33.6456C2.20433 33.2812 2.20433 32.6907 2.5687 32.3263L8.1905 26.7045C8.55486 26.3402 9.14537 26.3402 9.50948 26.7045C9.87385 27.0689 9.87385 27.6594 9.50948 28.0238L3.88768 33.6456C3.70576 33.8278 3.46684 33.9189 3.22818 33.9189Z" fill="#A16D3D"/>
<path d="M35.9401 0.273173C35.7285 0.0615838 35.4282 -0.0357495 35.1325 0.0118745C35.0242 0.0293117 32.4388 0.454048 28.9157 1.8001C26.849 2.58975 24.8852 3.53523 23.0792 4.61064C20.8126 5.96007 18.7884 7.51924 17.0626 9.24505C14.1506 12.1571 11.7708 15.8295 9.98961 20.1603C9.84647 20.5085 9.92663 20.9085 10.1926 21.1748L11.9561 22.9383L15.9396 18.9549C16.304 18.5905 16.8945 18.5905 17.2589 18.9549C17.6232 19.3192 17.6232 19.9097 17.2589 20.2741L13.2754 24.2576L15.0386 26.0211C15.2172 26.1994 15.4556 26.2944 15.6984 26.2944C15.8178 26.2944 15.9383 26.2715 16.0531 26.2241C20.384 24.4429 24.0562 22.0634 26.9684 19.1511C28.6938 17.4254 30.2533 15.4011 31.6028 13.1345C32.6782 11.3284 33.6237 9.3647 34.4133 7.29797C35.7593 3.77488 36.1841 1.18947 36.2015 1.08121C36.2489 0.785297 36.1518 0.484703 35.94 0.273107L35.9401 0.273173ZM27.5419 13.3618C26.9155 13.9882 26.083 14.3333 25.197 14.3333H25.1968C24.3109 14.3333 23.478 13.9882 22.8519 13.362C22.2255 12.7356 21.8806 11.9028 21.8806 11.0169C21.8806 10.131 22.2255 9.29814 22.8519 8.67199C23.4783 8.04556 24.3111 7.70046 25.197 7.70046C26.083 7.70046 26.9158 8.0453 27.5419 8.67173C28.8351 9.96466 28.8351 12.0686 27.5419 13.3618L27.5419 13.3618Z" fill="#A16D3D"/>
<path d="M8.39609 35.1252C8.15744 35.1252 7.91878 35.0341 7.7366 34.8519C7.37224 34.4876 7.37224 33.8971 7.7366 33.5327L13.1301 28.1391C13.4945 27.775 14.085 27.7748 14.4491 28.1391C14.8135 28.5035 14.8135 29.094 14.4491 29.4584L9.05559 34.8519C8.87341 35.0341 8.63474 35.1252 8.39609 35.1252Z" fill="#A16D3D"/>
<path d="M14.8154 9.59277L10.1292 10.5049C9.94732 10.5403 9.78024 10.6291 9.64907 10.76L3.26734 17.1214C2.97663 17.4111 2.90949 17.8569 3.10208 18.2194C3.26604 18.5281 3.58537 18.7149 3.92577 18.7149C3.98485 18.7149 4.04471 18.7092 4.10431 18.6977L9.57799 17.632C11.0214 14.593 12.7755 11.9009 14.8154 9.59296L14.8154 9.59277Z" fill="#A16D3D"/>
<path d="M18.5781 26.6343L17.5126 32.108C17.4343 32.5108 17.6281 32.9176 17.9909 33.1099C18.1291 33.1833 18.279 33.219 18.4279 33.219C18.6702 33.219 18.9094 33.1248 19.089 32.9447L25.4502 26.5627C25.5811 26.4315 25.6696 26.2642 25.7052 26.0825L26.6174 21.3966C24.3091 23.4362 21.6171 25.1903 18.5784 26.6342L18.5781 26.6343Z" fill="#A16D3D"/>
<path d="M0.152741 36.9081C0.144413 36.9122 0.135565 36.9154 0.126716 36.9174C0.118388 36.9195 0.109539 36.9206 0.100691 36.9206C0.0720626 36.9206 0.049681 36.913 0.033026 36.8977C0.0163696 36.8818 0.00804138 36.8602 0.00804138 36.8331C0.00804138 36.8055 0.0163696 36.7839 0.033026 36.7686C0.0496824 36.7527 0.0720646 36.7446 0.100691 36.7446C0.109539 36.7446 0.118388 36.7457 0.126716 36.7478C0.135565 36.7498 0.144413 36.753 0.152741 36.7571V36.7925C0.144413 36.7871 0.136346 36.7829 0.128798 36.78C0.12099 36.7774 0.112662 36.7759 0.103813 36.7759C0.0884578 36.7759 0.076226 36.7811 0.0673768 36.7915C0.0582677 36.8014 0.0538438 36.8152 0.0538438 36.8331C0.0538438 36.8506 0.0582681 36.8643 0.0673768 36.8748C0.0762253 36.8846 0.0884578 36.8893 0.103813 36.8893C0.112662 36.8893 0.12099 36.888 0.128798 36.8852C0.136345 36.8826 0.144413 36.8784 0.152741 36.8727V36.9081Z" fill="#A16D3D"/>
<path d="M0.282112 36.8239C0.278469 36.8218 0.275085 36.8205 0.271702 36.8197C0.268058 36.8192 0.264414 36.8187 0.26025 36.8187C0.24984 36.8187 0.241772 36.8223 0.236306 36.8291C0.230581 36.8361 0.227978 36.8457 0.227978 36.8582V36.9165H0.187378L0.187378 36.7885H0.227978V36.8103C0.233444 36.802 0.23943 36.7963 0.245675 36.7926C0.252442 36.7885 0.26077 36.7864 0.27066 36.7864H0.274824H0.282112L0.282112 36.8239Z" fill="#A16D3D"/>
<path d="M0.428521 36.852V36.8645H0.333786C0.334307 36.8736 0.33743 36.8806 0.343155 36.8853C0.349401 36.8902 0.35773 36.8926 0.36814 36.8926C0.376988 36.8926 0.386097 36.8915 0.395207 36.8894C0.404055 36.8868 0.413164 36.8827 0.422273 36.8769L0.422273 36.9092C0.412383 36.9129 0.402754 36.9152 0.393124 36.9165C0.384015 36.9186 0.374647 36.9196 0.365016 36.9196C0.341333 36.9196 0.323376 36.9139 0.310883 36.9019C0.298391 36.8902 0.292145 36.8738 0.292145 36.853C0.292145 36.8322 0.298391 36.816 0.310883 36.8041C0.323376 36.7924 0.340552 36.7864 0.362934 36.7864C0.382193 36.7864 0.397809 36.7924 0.40978 36.8041C0.422273 36.816 0.428521 36.8319 0.428521 36.852ZM0.38688 36.8384C0.38688 36.8309 0.384278 36.8249 0.379593 36.8207C0.375429 36.816 0.369443 36.8134 0.361896 36.8134C0.354088 36.8134 0.347842 36.8155 0.343157 36.8197C0.338212 36.8239 0.33509 36.8301 0.333788 36.8384H0.38688Z" fill="#A16D3D"/>
<path d="M0.513098 36.86C0.503989 36.86 0.497483 36.8615 0.493319 36.8641C0.489155 36.867 0.487072 36.8712 0.487072 36.8766C0.487072 36.8824 0.488634 36.8865 0.492278 36.8891C0.495661 36.892 0.500606 36.8933 0.506852 36.8933C0.514399 36.8933 0.520645 36.8907 0.52559 36.885C0.531056 36.8795 0.533919 36.8725 0.533919 36.8641V36.86H0.513098ZM0.57556 36.8444V36.9172H0.533919V36.8985C0.528193 36.9063 0.521947 36.9118 0.51518 36.9152C0.508934 36.9185 0.500606 36.9204 0.490196 36.9204C0.476923 36.9204 0.466252 36.9167 0.457924 36.9089C0.450116 36.9014 0.446472 36.8912 0.446472 36.8787C0.446472 36.8641 0.451157 36.8535 0.461047 36.8464C0.471457 36.8397 0.487593 36.836 0.509975 36.836H0.533919V36.8329C0.533919 36.8261 0.531056 36.8212 0.525591 36.8183C0.520646 36.8157 0.513098 36.8142 0.502688 36.8142C0.493579 36.8142 0.485251 36.8152 0.477704 36.8173C0.470677 36.8189 0.46365 36.8212 0.456883 36.8246V36.7934C0.465732 36.7913 0.47458 36.79 0.482908 36.7892C0.491757 36.7879 0.500866 36.7871 0.509975 36.7871C0.532878 36.7871 0.549534 36.7918 0.559944 36.8006C0.570354 36.8098 0.57556 36.8243 0.57556 36.8444Z" fill="#A16D3D"/>
<path d="M0.661 36.7529V36.7883H0.702641V36.8175H0.661V36.8716C0.661 36.8779 0.662041 36.882 0.664123 36.8841C0.666205 36.8862 0.670629 36.8872 0.677656 36.8872H0.699517V36.9164H0.664122C0.647986 36.9164 0.636535 36.9132 0.629769 36.907C0.622742 36.9002 0.619359 36.8883 0.619359 36.8716V36.8175H0.599579V36.7883H0.619359V36.7529L0.661 36.7529Z" fill="#A16D3D"/>
<path d="M0.855935 36.8527V36.8652H0.7612C0.761721 36.8743 0.764844 36.8813 0.770569 36.886C0.776815 36.891 0.785144 36.8933 0.795554 36.8933C0.804402 36.8933 0.813511 36.8923 0.82262 36.8902C0.831469 36.8876 0.840578 36.8834 0.849687 36.8777V36.9099C0.839797 36.9136 0.830168 36.9159 0.820538 36.9172C0.811429 36.9193 0.802061 36.9204 0.79243 36.9204C0.768747 36.9204 0.750789 36.9146 0.738297 36.9027C0.725805 36.891 0.719559 36.8746 0.719559 36.8537C0.719559 36.8329 0.725805 36.8168 0.738297 36.8048C0.750789 36.7931 0.767966 36.7871 0.790348 36.7871C0.809607 36.7871 0.825223 36.7931 0.837194 36.8048C0.849686 36.8168 0.855935 36.8327 0.855935 36.8527ZM0.814294 36.8392C0.814294 36.8316 0.811692 36.8256 0.807007 36.8215C0.802843 36.8168 0.796857 36.8142 0.78931 36.8142C0.781502 36.8142 0.775256 36.8163 0.770571 36.8204C0.765626 36.8246 0.762504 36.8308 0.761202 36.8392H0.814294Z" fill="#A16D3D"/>
<path d="M0.974146 36.8074L0.974146 36.7397H1.01579V36.9167H0.974146V36.898C0.968421 36.9058 0.962175 36.9113 0.955408 36.9146C0.949162 36.918 0.941354 36.9198 0.932505 36.9198C0.916369 36.9198 0.903357 36.9136 0.892947 36.9011C0.883057 36.8886 0.878372 36.8727 0.878372 36.8532C0.878372 36.834 0.883057 36.8178 0.892947 36.8053C0.903357 36.7928 0.916369 36.7866 0.932505 36.7866C0.940834 36.7866 0.948381 36.7884 0.955408 36.7918C0.962175 36.7954 0.968421 36.8006 0.974146 36.8074ZM0.94708 36.8907C0.955928 36.8907 0.962696 36.8876 0.96686 36.8813C0.971544 36.8746 0.974147 36.8652 0.974147 36.8532C0.974147 36.8407 0.971545 36.8314 0.96686 36.8251C0.962696 36.8189 0.955929 36.8157 0.94708 36.8157C0.938752 36.8157 0.931985 36.8189 0.9273 36.8251C0.923136 36.8314 0.921054 36.8407 0.921054 36.8532C0.921054 36.8652 0.923136 36.8746 0.9273 36.8813C0.931985 36.8876 0.938752 36.8907 0.94708 36.8907Z" fill="#A16D3D"/>
<path d="M1.20252 36.8903C1.21137 36.8903 1.21814 36.8872 1.2223 36.881C1.22699 36.8742 1.22959 36.8648 1.22959 36.8528C1.22959 36.8404 1.22699 36.831 1.2223 36.8247C1.21814 36.8185 1.21137 36.8154 1.20252 36.8154C1.19342 36.8154 1.18639 36.8185 1.1817 36.8247C1.17754 36.831 1.17546 36.8404 1.17546 36.8528C1.17546 36.8648 1.17754 36.8742 1.1817 36.881C1.18639 36.8872 1.19342 36.8903 1.20252 36.8903ZM1.17546 36.807C1.18092 36.8003 1.18717 36.7951 1.1942 36.7914C1.20096 36.788 1.20903 36.7862 1.21814 36.7862C1.23323 36.7862 1.24573 36.7925 1.25562 36.805C1.26603 36.8175 1.27123 36.8336 1.27123 36.8528C1.27123 36.8724 1.26603 36.8882 1.25562 36.9007C1.24573 36.9132 1.23323 36.9195 1.21814 36.9195C1.20903 36.9195 1.20096 36.9177 1.1942 36.9143C1.18717 36.9109 1.18092 36.9054 1.17546 36.8976V36.9164H1.13486V36.7394H1.17546V36.807Z" fill="#A16D3D"/>
<path d="M1.28801 36.788H1.32861L1.36296 36.8754L1.39211 36.788H1.43271L1.37858 36.9285C1.37363 36.9423 1.36739 36.9519 1.35984 36.9577C1.35281 36.9631 1.34344 36.966 1.33173 36.966H1.30779V36.94H1.32132C1.32809 36.94 1.33303 36.9384 1.3359 36.9358C1.33928 36.9337 1.34162 36.9298 1.34318 36.9243L1.34422 36.9212L1.28801 36.788Z" fill="#A16D3D"/>
<path d="M1.59208 36.8591C1.58297 36.8591 1.57646 36.8607 1.5723 36.8633C1.56813 36.8662 1.56605 36.8703 1.56605 36.8758C1.56605 36.8815 1.56761 36.8857 1.57126 36.8883C1.57464 36.8911 1.57959 36.8924 1.58583 36.8924C1.59338 36.8924 1.59962 36.8898 1.60457 36.8841C1.61004 36.8786 1.6129 36.8716 1.6129 36.8633V36.8591H1.59208ZM1.65454 36.8435L1.65454 36.9164H1.6129V36.8976C1.60717 36.9055 1.60093 36.9109 1.59416 36.9143C1.58791 36.9177 1.57959 36.9195 1.56918 36.9195C1.5559 36.9195 1.54523 36.9159 1.5369 36.9081C1.5291 36.9005 1.52545 36.8904 1.52545 36.8779C1.52545 36.8633 1.53014 36.8526 1.54003 36.8456C1.55044 36.8388 1.56657 36.8352 1.58895 36.8352H1.6129V36.8321C1.6129 36.8253 1.61004 36.8203 1.60457 36.8175C1.59963 36.8149 1.59208 36.8133 1.58167 36.8133C1.57256 36.8133 1.56423 36.8144 1.55668 36.8164C1.54966 36.818 1.54263 36.8203 1.53586 36.8237V36.7925C1.54471 36.7904 1.55356 36.7891 1.56189 36.7883C1.57074 36.787 1.57985 36.7863 1.58895 36.7863C1.61186 36.7863 1.62851 36.7909 1.63892 36.7998C1.64933 36.8089 1.65454 36.8235 1.65454 36.8435Z" fill="#A16D3D"/>
<path d="M1.75831 36.8913C1.76716 36.8913 1.77393 36.8882 1.77809 36.8819C1.78277 36.8752 1.78538 36.8658 1.78538 36.8538C1.78538 36.8413 1.78278 36.832 1.77809 36.8257C1.77393 36.8195 1.76716 36.8163 1.75831 36.8163C1.7492 36.8163 1.74217 36.8195 1.73749 36.8257C1.73333 36.832 1.73124 36.8413 1.73124 36.8538C1.73124 36.8658 1.73333 36.8752 1.73749 36.8819C1.74217 36.8882 1.7492 36.8913 1.75831 36.8913ZM1.73124 36.808C1.73671 36.8013 1.74296 36.796 1.74998 36.7924C1.75675 36.789 1.76482 36.7872 1.77393 36.7872C1.78902 36.7872 1.80151 36.7934 1.8114 36.8059C1.82181 36.8184 1.82702 36.8346 1.82702 36.8538C1.82702 36.8733 1.82181 36.8892 1.8114 36.9017C1.80151 36.9142 1.78902 36.9205 1.77393 36.9205C1.76482 36.9205 1.75675 36.9186 1.74998 36.9152C1.74296 36.9119 1.73671 36.9064 1.73124 36.8986V36.9173H1.69064V36.7404H1.73124V36.808Z" fill="#A16D3D"/>
<path d="M1.94201 36.807V36.7394H1.98365V36.9164H1.94201V36.8976C1.93629 36.9054 1.93004 36.9109 1.92327 36.9143C1.91703 36.9177 1.90922 36.9195 1.90037 36.9195C1.88423 36.9195 1.87122 36.9132 1.86081 36.9007C1.85092 36.8882 1.84624 36.8724 1.84624 36.8528C1.84624 36.8336 1.85092 36.8175 1.86081 36.805C1.87122 36.7925 1.88423 36.7862 1.90037 36.7862C1.9087 36.7862 1.91625 36.788 1.92327 36.7914C1.93004 36.7951 1.93629 36.8003 1.94201 36.807ZM1.91494 36.8903C1.92379 36.8903 1.93056 36.8872 1.93472 36.881C1.93941 36.8742 1.94201 36.8648 1.94201 36.8528C1.94201 36.8404 1.93941 36.831 1.93472 36.8247C1.93056 36.8185 1.92379 36.8154 1.91494 36.8154C1.90662 36.8154 1.89985 36.8185 1.89517 36.8247C1.891 36.831 1.88892 36.8404 1.88892 36.8528C1.88892 36.8648 1.891 36.8742 1.89517 36.881C1.89985 36.8872 1.90662 36.8903 1.91494 36.8903Z" fill="#A16D3D"/>
<path d="M2.15371 36.8528V36.8653H2.05898C2.0595 36.8744 2.06262 36.8814 2.06834 36.8861C2.07459 36.8911 2.08292 36.8934 2.09333 36.8934C2.10218 36.8934 2.11129 36.8924 2.1204 36.8903C2.12924 36.8877 2.13835 36.8835 2.14746 36.8778V36.9101C2.13757 36.9137 2.12794 36.9161 2.11831 36.9174C2.1092 36.9194 2.09984 36.9205 2.09021 36.9205C2.06652 36.9205 2.04856 36.9148 2.03607 36.9028C2.02358 36.8911 2.01733 36.8747 2.01733 36.8539C2.01733 36.833 2.02358 36.8169 2.03607 36.8049C2.04856 36.7932 2.06574 36.7872 2.08812 36.7872C2.10738 36.7872 2.123 36.7932 2.13497 36.8049C2.14746 36.8169 2.15371 36.8328 2.15371 36.8528ZM2.11207 36.8393C2.11207 36.8317 2.10947 36.8257 2.10478 36.8216C2.10062 36.8169 2.09463 36.8143 2.08708 36.8143C2.07928 36.8143 2.07303 36.8164 2.06835 36.8205C2.0634 36.8247 2.06028 36.831 2.05898 36.8393H2.11207Z" fill="#A16D3D"/>
<path d="M2.27694 36.8246C2.2733 36.8225 2.26991 36.8212 2.26653 36.8204C2.26289 36.8199 2.25924 36.8194 2.25508 36.8194C2.24467 36.8194 2.2366 36.823 2.23113 36.8298C2.22541 36.8368 2.22281 36.8464 2.22281 36.8589V36.9172H2.18221V36.7892H2.22281V36.8111C2.22827 36.8027 2.23426 36.797 2.2405 36.7934C2.24727 36.7892 2.2556 36.7871 2.26549 36.7871H2.26965H2.27694L2.27694 36.8246Z" fill="#A16D3D"/>
<path d="M2.39336 36.8247C2.38972 36.8226 2.38634 36.8213 2.38295 36.8205C2.37931 36.82 2.37567 36.8195 2.3715 36.8195C2.36109 36.8195 2.35302 36.8231 2.34756 36.8299C2.34183 36.8369 2.33923 36.8466 2.33923 36.8591V36.9174H2.29863V36.7893H2.33923V36.8112C2.3447 36.8028 2.35068 36.7971 2.35693 36.7935C2.36369 36.7893 2.37202 36.7872 2.38191 36.7872H2.38608H2.39336L2.39336 36.8247Z" fill="#A16D3D"/>
<path d="M2.47053 36.86C2.46142 36.86 2.45491 36.8615 2.45075 36.8641C2.44658 36.867 2.4445 36.8712 2.4445 36.8766C2.4445 36.8824 2.44606 36.8865 2.44971 36.8891C2.45309 36.892 2.45803 36.8933 2.46428 36.8933C2.47183 36.8933 2.47807 36.8907 2.48302 36.885C2.48848 36.8795 2.49135 36.8725 2.49135 36.8641V36.86H2.47053ZM2.53299 36.8444V36.9172H2.49135V36.8985C2.48562 36.9063 2.47937 36.9118 2.47261 36.9152C2.46636 36.9185 2.45803 36.9204 2.44762 36.9204C2.43435 36.9204 2.42368 36.9167 2.41535 36.9089C2.40754 36.9014 2.4039 36.8912 2.4039 36.8787C2.4039 36.8641 2.40858 36.8535 2.41847 36.8464C2.42888 36.8397 2.44502 36.836 2.4674 36.836H2.49135V36.8329C2.49135 36.8261 2.48848 36.8212 2.48302 36.8183C2.47807 36.8157 2.47053 36.8142 2.46012 36.8142C2.45101 36.8142 2.44268 36.8152 2.43513 36.8173C2.4281 36.8189 2.42108 36.8212 2.41431 36.8246V36.7934C2.42316 36.7913 2.43201 36.79 2.44034 36.7892C2.44918 36.7879 2.45829 36.7871 2.4674 36.7871C2.49031 36.7871 2.50696 36.7918 2.51737 36.8006C2.52778 36.8098 2.53299 36.8243 2.53299 36.8444Z" fill="#A16D3D"/>
<path d="M2.63303 36.8163C2.62392 36.8163 2.61689 36.8194 2.61221 36.8256C2.60726 36.8319 2.60492 36.8412 2.60492 36.8537C2.60492 36.8657 2.60726 36.8751 2.61221 36.8818C2.61689 36.8881 2.62392 36.8912 2.63303 36.8912C2.64188 36.8912 2.64864 36.8881 2.65281 36.8818C2.65749 36.8751 2.66009 36.8657 2.66009 36.8537C2.66009 36.8412 2.65749 36.8319 2.65281 36.8256C2.64864 36.8194 2.64188 36.8163 2.63303 36.8163ZM2.63303 36.7871C2.65515 36.7871 2.67207 36.7931 2.68404 36.8048C2.69653 36.8168 2.70277 36.8329 2.70277 36.8537C2.70277 36.8746 2.69653 36.891 2.68404 36.9027C2.67206 36.9146 2.65515 36.9204 2.63303 36.9204C2.61064 36.9204 2.59347 36.9146 2.58098 36.9027C2.569 36.891 2.56328 36.8746 2.56328 36.8537C2.56328 36.8329 2.569 36.8168 2.58098 36.8048C2.59347 36.7931 2.61064 36.7871 2.63303 36.7871Z" fill="#A16D3D"/>
<path d="M2.73161 36.866V36.788H2.77221V36.8015V36.8275V36.8483V36.8712C2.77273 36.8754 2.77378 36.8785 2.77534 36.8806C2.77664 36.8827 2.77872 36.8848 2.78158 36.8869C2.78419 36.8884 2.78731 36.8889 2.79095 36.8889C2.7998 36.8889 2.80683 36.8858 2.81177 36.8796C2.81646 36.8728 2.81906 36.8634 2.81906 36.8515V36.788H2.85966V36.916H2.81906V36.8973C2.81281 36.9051 2.80605 36.9105 2.79928 36.9139C2.79225 36.9173 2.78471 36.9191 2.77638 36.9191C2.7618 36.9191 2.75061 36.9147 2.74306 36.9056C2.73526 36.8968 2.73161 36.8835 2.73161 36.866Z" fill="#A16D3D"/>
<path d="M2.97782 36.7412V36.7683H2.95596C2.94971 36.7683 2.94555 36.7693 2.94347 36.7714C2.94138 36.7735 2.94034 36.7771 2.94034 36.7818V36.7901H2.9747V36.8193H2.94034V36.9182H2.89974V36.8193H2.87892V36.7901H2.89974V36.7818C2.89974 36.768 2.90339 36.7579 2.91119 36.7516C2.91874 36.7449 2.93045 36.7412 2.94659 36.7412L2.97782 36.7412Z" fill="#A16D3D"/>
<path d="M3.13995 36.8164C3.13084 36.8164 3.12382 36.8195 3.11913 36.8257C3.11419 36.832 3.11185 36.8414 3.11185 36.8539C3.11185 36.8658 3.11419 36.8752 3.11913 36.882C3.12382 36.8882 3.13084 36.8913 3.13995 36.8913C3.1488 36.8913 3.15557 36.8882 3.15973 36.882C3.16442 36.8752 3.16702 36.8658 3.16702 36.8539C3.16702 36.8414 3.16442 36.832 3.15973 36.8257C3.15557 36.8195 3.1488 36.8164 3.13995 36.8164ZM3.13995 36.7872C3.16208 36.7872 3.17899 36.7932 3.19096 36.8049C3.20346 36.8169 3.2097 36.833 3.2097 36.8539C3.2097 36.8747 3.20346 36.8911 3.19096 36.9028C3.17899 36.9148 3.16208 36.9205 3.13995 36.9205C3.11757 36.9205 3.1004 36.9148 3.0879 36.9028C3.07593 36.8911 3.07021 36.8747 3.07021 36.8539C3.07021 36.833 3.07593 36.8169 3.0879 36.8049C3.1004 36.7932 3.11757 36.7872 3.13995 36.7872Z" fill="#A16D3D"/>
<path d="M3.35859 36.8103C3.36405 36.802 3.3703 36.7963 3.37733 36.7926C3.38409 36.7885 3.3919 36.7864 3.40023 36.7864C3.41532 36.7864 3.42677 36.7911 3.43458 36.7999C3.44213 36.809 3.44603 36.8218 3.44603 36.8384V36.9165H3.40439V36.8499V36.8478C3.40491 36.8465 3.40543 36.8447 3.40543 36.8426C3.40543 36.8337 3.40387 36.827 3.40127 36.8228C3.39841 36.8187 3.39398 36.8166 3.38774 36.8166C3.37993 36.8166 3.3742 36.8197 3.37004 36.8259C3.36587 36.8322 3.36379 36.8416 3.36379 36.854V36.9165H3.32215V36.8499C3.32215 36.8361 3.32059 36.827 3.31799 36.8228C3.31591 36.8187 3.31174 36.8166 3.3055 36.8166C3.29769 36.8166 3.29196 36.8202 3.2878 36.827C3.28363 36.8332 3.28155 36.8423 3.28155 36.854V36.9165H3.24095V36.7885H3.28155V36.8072C3.28624 36.8004 3.29196 36.7952 3.29821 36.7916C3.30497 36.7882 3.31226 36.7864 3.32007 36.7864C3.32892 36.7864 3.33673 36.7885 3.34297 36.7926C3.34974 36.7968 3.35494 36.8028 3.35859 36.8103Z" fill="#A16D3D"/>
<path d="M3.53811 36.8608C3.529 36.8608 3.52249 36.8624 3.51833 36.865C3.51416 36.8679 3.51208 36.872 3.51208 36.8775C3.51208 36.8832 3.51364 36.8874 3.51729 36.89C3.52067 36.8928 3.52561 36.8941 3.53186 36.8941C3.53941 36.8941 3.54565 36.8915 3.5506 36.8858C3.55606 36.8804 3.55893 36.8733 3.55893 36.865V36.8608H3.53811ZM3.60057 36.8452V36.9181H3.55893V36.8994C3.5532 36.9072 3.54696 36.9126 3.54019 36.916C3.53394 36.9194 3.52562 36.9212 3.51521 36.9212C3.50193 36.9212 3.49126 36.9176 3.48293 36.9098C3.47513 36.9022 3.47148 36.8921 3.47148 36.8796C3.47148 36.865 3.47617 36.8543 3.48606 36.8473C3.49647 36.8405 3.5126 36.8369 3.53498 36.8369H3.55893V36.8338C3.55893 36.827 3.55607 36.8221 3.5506 36.8192C3.54565 36.8166 3.53811 36.815 3.5277 36.815C3.51859 36.815 3.51026 36.8161 3.50271 36.8182C3.49569 36.8197 3.48866 36.8221 3.48189 36.8254V36.7942C3.49074 36.7921 3.49959 36.7908 3.50792 36.79C3.51677 36.7887 3.52588 36.788 3.53498 36.788C3.55789 36.788 3.57454 36.7926 3.58495 36.8015C3.59536 36.8106 3.60057 36.8252 3.60057 36.8452Z" fill="#A16D3D"/>
<path d="M3.73719 36.8237C3.73355 36.8217 3.73016 36.8204 3.72678 36.8196C3.72314 36.819 3.71949 36.8185 3.71533 36.8185C3.70492 36.8185 3.69685 36.8222 3.69138 36.8289C3.68566 36.836 3.68306 36.8456 3.68306 36.8581V36.9164H3.64246V36.7883H3.68306V36.8102C3.68852 36.8019 3.69451 36.7961 3.70075 36.7925C3.70752 36.7883 3.71585 36.7863 3.72574 36.7863H3.7299H3.73719L3.73719 36.8237Z" fill="#A16D3D"/>
<path d="M3.81441 36.86C3.8053 36.86 3.7988 36.8615 3.79463 36.8641C3.79047 36.867 3.78839 36.8712 3.78839 36.8766C3.78839 36.8824 3.78995 36.8865 3.79359 36.8891C3.79698 36.892 3.80192 36.8933 3.80817 36.8933C3.81571 36.8933 3.82196 36.8907 3.82691 36.885C3.83237 36.8795 3.83523 36.8725 3.83523 36.8641V36.86H3.81441ZM3.87688 36.8444V36.9172H3.83523V36.8985C3.82951 36.9063 3.82326 36.9118 3.8165 36.9152C3.81025 36.9185 3.80192 36.9204 3.79151 36.9204C3.77824 36.9204 3.76757 36.9167 3.75924 36.9089C3.75143 36.9014 3.74779 36.8912 3.74779 36.8787C3.74779 36.8641 3.75247 36.8535 3.76236 36.8464C3.77277 36.8397 3.78891 36.836 3.81129 36.836H3.83523V36.8329C3.83523 36.8261 3.83237 36.8212 3.82691 36.8183C3.82196 36.8157 3.81441 36.8142 3.804 36.8142C3.79489 36.8142 3.78657 36.8152 3.77902 36.8173C3.77199 36.8189 3.76496 36.8212 3.7582 36.8246V36.7934C3.76705 36.7913 3.7759 36.79 3.78422 36.7892C3.79307 36.7879 3.80218 36.7871 3.81129 36.7871C3.83419 36.7871 3.85085 36.7918 3.86126 36.8006C3.87167 36.8098 3.87688 36.8243 3.87688 36.8444Z" fill="#A16D3D"/>
<path d="M0.0988973 36.9723V36.9994H0.0770362C0.07079 36.9994 0.0666259 37.0004 0.0645439 37.0025C0.0624618 37.0046 0.0614208 37.0082 0.0614208 37.0129V37.0212H0.0957743L0.0957743 37.0504H0.0614208L0.0614208 37.1493H0.0208205L0.0208205 37.0504H0L0 37.0212H0.0208205L0.0208205 37.0129C0.0208205 36.9991 0.0244641 36.9889 0.0322721 36.9827C0.0398194 36.9759 0.0515309 36.9723 0.0676669 36.9723L0.0988973 36.9723Z" fill="#A16D3D"/>
<path d="M0.212074 37.0582C0.208431 37.0561 0.205047 37.0548 0.201664 37.0541C0.19802 37.0535 0.194377 37.053 0.190212 37.053C0.179802 37.053 0.171735 37.0567 0.166269 37.0634C0.160543 37.0705 0.15794 37.0801 0.15794 37.0926V37.1509H0.11734L0.11734 37.0228H0.15794V37.0447C0.163406 37.0364 0.169392 37.0306 0.175637 37.027C0.182404 37.0228 0.190732 37.0208 0.200622 37.0208H0.204786H0.212074L0.212074 37.0582Z" fill="#A16D3D"/>
<path d="M0.290741 37.0488C0.281632 37.0488 0.274605 37.0519 0.269921 37.0582C0.264976 37.0644 0.262633 37.0738 0.262633 37.0863C0.262633 37.0983 0.264976 37.1076 0.269921 37.1144C0.274606 37.1206 0.281632 37.1238 0.290741 37.1238C0.29959 37.1238 0.306357 37.1206 0.310521 37.1144C0.315206 37.1076 0.317809 37.0983 0.317809 37.0863C0.317809 37.0738 0.315206 37.0644 0.310521 37.0582C0.306357 37.0519 0.299591 37.0488 0.290741 37.0488ZM0.290741 37.0197C0.312863 37.0197 0.32978 37.0256 0.341751 37.0374C0.354244 37.0493 0.36049 37.0655 0.36049 37.0863C0.36049 37.1071 0.354244 37.1235 0.341751 37.1352C0.329779 37.1472 0.312863 37.1529 0.290741 37.1529C0.268359 37.1529 0.251182 37.1472 0.23869 37.1352C0.226718 37.1235 0.220993 37.1071 0.220993 37.0863C0.220993 37.0655 0.226719 37.0493 0.23869 37.0374C0.251182 37.0256 0.268359 37.0197 0.290741 37.0197Z" fill="#A16D3D"/>
<path d="M0.509481 37.0446C0.514946 37.0362 0.521192 37.0305 0.528219 37.0269C0.534986 37.0227 0.542794 37.0206 0.551122 37.0206C0.566216 37.0206 0.577668 37.0253 0.585475 37.0342C0.593023 37.0433 0.596927 37.056 0.596927 37.0727V37.1508H0.555286L0.555286 37.0841V37.0821C0.555806 37.0808 0.556327 37.0789 0.556327 37.0768C0.556327 37.068 0.554765 37.0612 0.552163 37.0571C0.5493 37.0529 0.544875 37.0508 0.53863 37.0508C0.530822 37.0508 0.525097 37.0539 0.520933 37.0602C0.516769 37.0664 0.514687 37.0758 0.514687 37.0883V37.1508H0.473046V37.0841C0.473046 37.0703 0.471484 37.0612 0.468882 37.0571C0.466799 37.0529 0.462635 37.0508 0.456389 37.0508C0.448581 37.0508 0.442856 37.0545 0.438692 37.0612C0.434528 37.0675 0.432446 37.0766 0.432446 37.0883V37.1508H0.391846V37.0227H0.432446V37.0415C0.437131 37.0347 0.442856 37.0295 0.449102 37.0258C0.455869 37.0225 0.463156 37.0206 0.470964 37.0206C0.479812 37.0206 0.48762 37.0227 0.493866 37.0269C0.500633 37.031 0.505837 37.037 0.509481 37.0446Z" fill="#A16D3D"/>
<path d="M0.759419 36.9873V37.0227H0.80106V37.0518H0.759419V37.106C0.759419 37.1122 0.76046 37.1164 0.762542 37.1185C0.764624 37.1206 0.769049 37.1216 0.776075 37.1216H0.797936V37.1507H0.762542C0.746406 37.1507 0.734955 37.1476 0.728188 37.1414C0.721161 37.1346 0.717778 37.1226 0.717778 37.106V37.0518H0.697998V37.0227H0.717778V36.9873L0.759419 36.9873Z" fill="#A16D3D"/>
<path d="M0.956843 37.0718V37.1499H0.916243L0.916243 37.0905C0.916243 37.0796 0.915723 37.0718 0.915202 37.0676C0.914421 37.0635 0.91338 37.0603 0.912079 37.0583C0.910518 37.0557 0.908435 37.0536 0.905833 37.052C0.90297 37.0507 0.899847 37.0499 0.896464 37.0499C0.888136 37.0499 0.881369 37.0536 0.876684 37.0603C0.871739 37.0666 0.869397 37.0757 0.869397 37.0874V37.1499H0.828796V36.9729H0.869397V37.0406C0.875643 37.0338 0.882149 37.0286 0.889176 37.0249C0.895943 37.0216 0.903751 37.0197 0.912079 37.0197C0.926653 37.0197 0.937584 37.0244 0.945392 37.0333C0.952939 37.0424 0.956843 37.0551 0.956843 37.0718Z" fill="#A16D3D"/>
<path d="M1.1195 37.0852V37.0977H1.02477C1.02529 37.1068 1.02841 37.1139 1.03413 37.1185C1.04038 37.1235 1.04871 37.1258 1.05912 37.1258C1.06797 37.1258 1.07708 37.1248 1.08619 37.1227C1.09503 37.1201 1.10414 37.1159 1.11325 37.1102V37.1425C1.10336 37.1461 1.09373 37.1485 1.0841 37.1498C1.07499 37.1519 1.06563 37.1529 1.056 37.1529C1.03231 37.1529 1.01435 37.1472 1.00186 37.1352C0.98937 37.1235 0.983124 37.1071 0.983124 37.0863C0.983124 37.0655 0.98937 37.0493 1.00186 37.0374C1.01435 37.0256 1.03153 37.0197 1.05391 37.0197C1.07317 37.0197 1.08879 37.0256 1.10076 37.0374C1.11325 37.0493 1.1195 37.0652 1.1195 37.0852ZM1.07786 37.0717C1.07786 37.0642 1.07526 37.0582 1.07057 37.054C1.06641 37.0493 1.06042 37.0467 1.05287 37.0467C1.04507 37.0467 1.03882 37.0488 1.03414 37.053C1.02919 37.0571 1.02607 37.0634 1.02477 37.0717H1.07786Z" fill="#A16D3D"/>
<path d="M1.23338 36.9805H1.28231L1.34373 37.0971V36.9805H1.38537V37.1502H1.33644L1.27398 37.0336V37.1502H1.23338V36.9805Z" fill="#A16D3D"/>
<path d="M1.4859 37.0499C1.47679 37.0499 1.46977 37.053 1.46508 37.0593C1.46014 37.0655 1.45779 37.0749 1.45779 37.0874C1.45779 37.0993 1.46014 37.1087 1.46508 37.1155C1.46977 37.1217 1.47679 37.1249 1.4859 37.1249C1.49475 37.1249 1.50152 37.1217 1.50568 37.1155C1.51037 37.1087 1.51297 37.0993 1.51297 37.0874C1.51297 37.0749 1.51037 37.0655 1.50568 37.0593C1.50152 37.053 1.49475 37.0499 1.4859 37.0499ZM1.4859 37.0208C1.50802 37.0208 1.52494 37.0267 1.53691 37.0384C1.5494 37.0504 1.55565 37.0666 1.55565 37.0874C1.55565 37.1082 1.5494 37.1246 1.53691 37.1363C1.52494 37.1483 1.50802 37.154 1.4859 37.154C1.46352 37.154 1.44634 37.1483 1.43385 37.1363C1.42188 37.1246 1.41615 37.1082 1.41615 37.0874C1.41615 37.0666 1.42188 37.0504 1.43385 37.0384C1.44634 37.0267 1.46352 37.0208 1.4859 37.0208Z" fill="#A16D3D"/>
<path d="M1.58714 37.0998V37.0217H1.62774V37.0353V37.0613V37.0821V37.105C1.62826 37.1092 1.62931 37.1123 1.63087 37.1144C1.63217 37.1165 1.63425 37.1185 1.63711 37.1206C1.63972 37.1222 1.64284 37.1227 1.64648 37.1227C1.65533 37.1227 1.66236 37.1196 1.6673 37.1133C1.67199 37.1066 1.67459 37.0972 1.67459 37.0852V37.0217H1.71519V37.1498H1.67459V37.131C1.66834 37.1388 1.66158 37.1443 1.65481 37.1477C1.64778 37.1511 1.64024 37.1529 1.63191 37.1529C1.61733 37.1529 1.60614 37.1485 1.59859 37.1394C1.59079 37.1305 1.58714 37.1172 1.58714 37.0998Z" fill="#A16D3D"/>
<path d="M1.88284 37.0718V37.1499H1.84224V37.0906C1.84224 37.0796 1.84172 37.0718 1.8412 37.0677C1.84042 37.0635 1.83938 37.0604 1.83807 37.0583C1.83651 37.0557 1.83443 37.0536 1.83183 37.052C1.82896 37.0507 1.82584 37.05 1.82246 37.05C1.81413 37.05 1.80736 37.0536 1.80268 37.0604C1.79773 37.0666 1.79539 37.0757 1.79539 37.0874V37.1499H1.75479V37.0219H1.79539V37.0406C1.80164 37.0338 1.80814 37.0286 1.81517 37.025C1.82194 37.0216 1.82975 37.0198 1.83807 37.0198C1.85265 37.0198 1.86358 37.0245 1.87139 37.0333C1.87893 37.0424 1.88284 37.0552 1.88284 37.0718Z" fill="#A16D3D"/>
<path d="M2.00057 36.9805H2.0724C2.09452 36.9805 2.11117 36.9854 2.12236 36.995C2.13408 37.0042 2.14006 37.0177 2.14006 37.0356C2.14006 37.0539 2.13408 37.0677 2.12236 37.0773C2.11117 37.0864 2.09452 37.0908 2.0724 37.0908H2.04429V37.1502H2.00056L2.00057 36.9805ZM2.04429 37.0117V37.0596H2.06823C2.07656 37.0596 2.08307 37.0575 2.08801 37.0533C2.0927 37.0492 2.0953 37.0435 2.0953 37.0356C2.0953 37.0281 2.0927 37.0221 2.08801 37.0179C2.08307 37.0138 2.07656 37.0117 2.06823 37.0117L2.04429 37.0117Z" fill="#A16D3D"/>
<path d="M2.26638 37.0564C2.26274 37.0543 2.25935 37.053 2.25597 37.0522C2.25233 37.0517 2.24868 37.0512 2.24452 37.0512C2.23411 37.0512 2.22604 37.0548 2.22057 37.0616C2.21485 37.0686 2.21225 37.0783 2.21225 37.0908V37.1491H2.17165V37.021H2.21225V37.0429C2.21771 37.0345 2.2237 37.0288 2.22994 37.0252C2.23671 37.021 2.24504 37.0189 2.25493 37.0189H2.25909H2.26638L2.26638 37.0564Z" fill="#A16D3D"/>
<path d="M2.34662 37.0498C2.33751 37.0498 2.33048 37.0529 2.3258 37.0591C2.32085 37.0654 2.31851 37.0748 2.31851 37.0873C2.31851 37.0992 2.32085 37.1086 2.3258 37.1154C2.33048 37.1216 2.33751 37.1247 2.34662 37.1247C2.35547 37.1247 2.36223 37.1216 2.3664 37.1154C2.37108 37.1086 2.37369 37.0992 2.37369 37.0873C2.37369 37.0748 2.37108 37.0654 2.3664 37.0591C2.36223 37.0529 2.35547 37.0498 2.34662 37.0498ZM2.34662 37.0206C2.36874 37.0206 2.38566 37.0266 2.39763 37.0383C2.41012 37.0503 2.41637 37.0664 2.41637 37.0873C2.41637 37.1081 2.41012 37.1245 2.39763 37.1362C2.38566 37.1482 2.36874 37.1539 2.34662 37.1539C2.32424 37.1539 2.30706 37.1482 2.29457 37.1362C2.2826 37.1245 2.27687 37.1081 2.27687 37.0873C2.27687 37.0664 2.2826 37.0503 2.29457 37.0383C2.30706 37.0266 2.32424 37.0206 2.34662 37.0206Z" fill="#A16D3D"/>
<path d="M2.44554 37.0218H2.48614V37.1478C2.48614 37.1644 2.48198 37.1772 2.47365 37.1863C2.46532 37.1952 2.45335 37.1998 2.43825 37.1998H2.41847V37.1738H2.42472C2.43305 37.1738 2.43851 37.172 2.44137 37.1686C2.44398 37.165 2.44554 37.1582 2.44554 37.1478V37.0218ZM2.44554 36.9729H2.48614V37.0062H2.44554V36.9729Z" fill="#A16D3D"/>
<path d="M2.6533 37.0862V37.0987H2.55856C2.55908 37.1078 2.56221 37.1148 2.56793 37.1195C2.57418 37.1245 2.58251 37.1268 2.59292 37.1268C2.60177 37.1268 2.61087 37.1258 2.61998 37.1237C2.62883 37.1211 2.63794 37.1169 2.64705 37.1112V37.1435C2.63716 37.1471 2.62753 37.1495 2.6179 37.1508C2.60879 37.1528 2.59942 37.1539 2.58979 37.1539C2.56611 37.1539 2.54815 37.1482 2.53566 37.1362C2.52317 37.1245 2.51692 37.1081 2.51692 37.0873C2.51692 37.0664 2.52317 37.0503 2.53566 37.0383C2.54815 37.0266 2.56533 37.0206 2.58771 37.0206C2.60697 37.0206 2.62259 37.0266 2.63456 37.0383C2.64705 37.0503 2.6533 37.0662 2.6533 37.0862ZM2.61166 37.0727C2.61166 37.0651 2.60905 37.0591 2.60437 37.055C2.60021 37.0503 2.59422 37.0477 2.58667 37.0477C2.57887 37.0477 2.57262 37.0498 2.56793 37.0539C2.56299 37.0581 2.55987 37.0644 2.55857 37.0727H2.61166Z" fill="#A16D3D"/>
<path d="M2.78942 37.0259V37.0592C2.78369 37.0558 2.77823 37.0535 2.77276 37.0519C2.76704 37.0498 2.76131 37.0488 2.75506 37.0488C2.74387 37.0488 2.73476 37.0524 2.728 37.0592C2.72175 37.0655 2.71863 37.0746 2.71863 37.0863C2.71863 37.0983 2.72175 37.1076 2.728 37.1144C2.73476 37.1206 2.74387 37.1238 2.75506 37.1238C2.76131 37.1238 2.76704 37.1232 2.77276 37.1217C2.77901 37.1196 2.78447 37.1165 2.78942 37.1123V37.1456C2.78317 37.1485 2.77641 37.15 2.76964 37.1508C2.76339 37.1521 2.75663 37.1529 2.74986 37.1529C2.72696 37.1529 2.70874 37.1472 2.69573 37.1352C2.68323 37.1235 2.67699 37.1071 2.67699 37.0863C2.67699 37.0655 2.68323 37.0493 2.69573 37.0374C2.70874 37.0256 2.72696 37.0197 2.74986 37.0197C2.75662 37.0197 2.76339 37.0204 2.76964 37.0217C2.7764 37.0225 2.78317 37.0238 2.78942 37.0259Z" fill="#A16D3D"/>
<path d="M2.86669 36.9862V37.0216H2.90833V37.0507H2.86669V37.1049C2.86669 37.1111 2.86773 37.1153 2.86981 37.1174C2.87189 37.1195 2.87632 37.1205 2.88334 37.1205H2.90521V37.1496H2.86981C2.85367 37.1496 2.84222 37.1465 2.83546 37.1403C2.82843 37.1335 2.82505 37.1215 2.82505 37.1049V37.0507H2.80527V37.0216H2.82505V36.9862L2.86669 36.9862Z" fill="#A16D3D"/>
</svg>
