<svg width="37" height="38" viewBox="0 0 37 38" fill="none" xmlns="http://www.w3.org/2000/svg">
<path d="M2.0187 28.7509C1.78004 28.7509 1.54138 28.6598 1.35921 28.4777C0.994847 28.1133 0.994847 27.5228 1.35921 27.1584L6.75275 21.7649C7.11711 21.4005 7.70763 21.4008 8.07174 21.7649C8.4361 22.1292 8.4361 22.7197 8.07174 23.0841L2.67846 28.4779C2.49628 28.6599 2.25735 28.7509 2.0187 28.7509Z" fill="#090E24"/>
<path d="M3.22768 33.919C2.98903 33.919 2.75037 33.8279 2.56819 33.6457C2.20383 33.2814 2.20383 32.6908 2.56819 32.3265L8.18999 26.7047C8.55436 26.3403 9.14487 26.3403 9.50898 26.7047C9.87334 27.069 9.87334 27.6595 9.50898 28.0239L3.88718 33.6457C3.70526 33.8279 3.46633 33.919 3.22768 33.919Z" fill="#090E24"/>
<path d="M35.9405 0.273173C35.7289 0.0615838 35.4286 -0.0357495 35.1329 0.0118745C35.0247 0.0293117 32.4392 0.454048 28.9162 1.8001C26.8494 2.58975 24.8856 3.53523 23.0796 4.61064C20.813 5.96007 18.7888 7.51924 17.063 9.24505C14.151 12.1571 11.7712 15.8295 9.99003 20.1603C9.84689 20.5085 9.92704 20.9085 10.193 21.1748L11.9565 22.9383L15.94 18.9549C16.3044 18.5905 16.8949 18.5905 17.2593 18.9549C17.6236 19.3192 17.6236 19.9097 17.2593 20.2741L13.2758 24.2576L15.039 26.0211C15.2176 26.1994 15.456 26.2944 15.6988 26.2944C15.8182 26.2944 15.9387 26.2715 16.0535 26.2241C20.3844 24.4429 24.0566 22.0634 26.9688 19.1511C28.6942 17.4254 30.2538 15.4011 31.6032 13.1345C32.6786 11.3284 33.6241 9.3647 34.4137 7.29797C35.7598 3.77488 36.1845 1.18947 36.202 1.08121C36.2493 0.785297 36.1522 0.484703 35.9404 0.273107L35.9405 0.273173ZM27.5423 13.3618C26.9159 13.9882 26.0834 14.3333 25.1974 14.3333H25.1972C24.3113 14.3333 23.4784 13.9882 22.8523 13.362C22.2259 12.7356 21.881 11.9028 21.881 11.0169C21.881 10.131 22.2259 9.29814 22.8523 8.67199C23.4787 8.04556 24.3115 7.70046 25.1975 7.70046C26.0834 7.70046 26.9162 8.0453 27.5423 8.67173C28.8355 9.96466 28.8355 12.0686 27.5423 13.3618L27.5423 13.3618Z" fill="#090E24"/>
<path d="M8.39565 35.1252C8.157 35.1252 7.91834 35.0341 7.73616 34.8519C7.3718 34.4876 7.3718 33.8971 7.73616 33.5327L13.1297 28.1391C13.4941 27.775 14.0846 27.7748 14.4487 28.1391C14.8131 28.5035 14.8131 29.094 14.4487 29.4584L9.05515 34.8519C8.87297 35.0341 8.6343 35.1252 8.39565 35.1252Z" fill="#090E24"/>
<path d="M14.8146 9.59277L10.1284 10.5049C9.94645 10.5403 9.77937 10.6291 9.6482 10.76L3.26647 17.1214C2.97576 17.4111 2.90862 17.8569 3.10121 18.2194C3.26517 18.5281 3.5845 18.7149 3.9249 18.7149C3.98398 18.7149 4.04384 18.7092 4.10344 18.6977L9.57713 17.632C11.0205 14.593 12.7746 11.9009 14.8145 9.59296L14.8146 9.59277Z" fill="#090E24"/>
<path d="M18.5788 26.6344L17.5133 32.1081C17.435 32.511 17.6289 32.9177 17.9917 33.1101C18.1299 33.1835 18.2798 33.2191 18.4286 33.2191C18.6709 33.2191 18.9101 33.1249 19.0897 32.9448L25.4509 26.5628C25.5818 26.4316 25.6703 26.2643 25.706 26.0826L26.6181 21.3967C24.3099 23.4363 21.6178 25.1905 18.5791 26.6344L18.5788 26.6344Z" fill="#090E24"/>
<path d="M0.152513 36.9081C0.144184 36.9122 0.135336 36.9154 0.126487 36.9174C0.118159 36.9195 0.109311 36.9206 0.100462 36.9206C0.0718337 36.9206 0.0494522 36.913 0.0327971 36.8977C0.0161407 36.8818 0.0078125 36.8602 0.0078125 36.8331C0.0078125 36.8055 0.0161407 36.7839 0.0327971 36.7686C0.0494535 36.7527 0.0718357 36.7446 0.100462 36.7446C0.109311 36.7446 0.118159 36.7457 0.126487 36.7478C0.135336 36.7498 0.144184 36.753 0.152513 36.7571V36.7925C0.144184 36.7871 0.136117 36.7829 0.128569 36.78C0.120761 36.7774 0.112433 36.7759 0.103584 36.7759C0.0882289 36.7759 0.0759971 36.7811 0.0671479 36.7915C0.0580389 36.8014 0.0536149 36.8152 0.0536149 36.8331C0.0536149 36.8506 0.0580393 36.8643 0.0671479 36.8748C0.0759965 36.8846 0.0882289 36.8893 0.103584 36.8893C0.112433 36.8893 0.120761 36.888 0.128569 36.8852C0.136116 36.8826 0.144184 36.8784 0.152513 36.8727V36.9081Z" fill="#090E24"/>
<path d="M0.282234 36.8239C0.278591 36.8218 0.275207 36.8205 0.271824 36.8197C0.26818 36.8192 0.264536 36.8187 0.260372 36.8187C0.249962 36.8187 0.241894 36.8223 0.236428 36.8291C0.230703 36.8361 0.2281 36.8457 0.2281 36.8582V36.9165H0.1875L0.1875 36.7885H0.2281V36.8103C0.233566 36.802 0.239552 36.7963 0.245797 36.7926C0.252564 36.7885 0.260892 36.7864 0.270782 36.7864H0.274946H0.282234L0.282234 36.8239Z" fill="#090E24"/>
<path d="M0.429345 36.852V36.8645H0.33461C0.335131 36.8736 0.338254 36.8806 0.343979 36.8853C0.350225 36.8902 0.358554 36.8926 0.368964 36.8926C0.377812 36.8926 0.386921 36.8915 0.396031 36.8894C0.404879 36.8868 0.413988 36.8827 0.423097 36.8769L0.423097 36.9092C0.413207 36.9129 0.403578 36.9152 0.393948 36.9165C0.384839 36.9186 0.375471 36.9196 0.36584 36.9196C0.342157 36.9196 0.324199 36.9139 0.311707 36.9019C0.299215 36.8902 0.292969 36.8738 0.292969 36.853C0.292969 36.8322 0.299215 36.816 0.311707 36.8041C0.324199 36.7924 0.341376 36.7864 0.363758 36.7864C0.383017 36.7864 0.398633 36.7924 0.410604 36.8041C0.423096 36.816 0.429345 36.8319 0.429345 36.852ZM0.387704 36.8384C0.387704 36.8309 0.385102 36.8249 0.380417 36.8207C0.376253 36.816 0.370267 36.8134 0.36272 36.8134C0.354912 36.8134 0.348666 36.8155 0.343981 36.8197C0.339036 36.8239 0.335914 36.8301 0.334612 36.8384H0.387704Z" fill="#090E24"/>
<path d="M0.513892 36.86C0.504783 36.86 0.498276 36.8615 0.494112 36.8641C0.489948 36.867 0.487866 36.8712 0.487866 36.8766C0.487866 36.8824 0.489427 36.8865 0.493071 36.8891C0.496454 36.892 0.501399 36.8933 0.507645 36.8933C0.515193 36.8933 0.521439 36.8907 0.526384 36.885C0.531849 36.8795 0.534712 36.8725 0.534712 36.8641V36.86H0.513892ZM0.576353 36.8444V36.9172H0.534712V36.8985C0.528987 36.9063 0.52274 36.9118 0.515974 36.9152C0.509728 36.9185 0.5014 36.9204 0.490989 36.9204C0.477716 36.9204 0.467045 36.9167 0.458717 36.9089C0.450909 36.9014 0.447266 36.8912 0.447266 36.8787C0.447266 36.8641 0.45195 36.8535 0.46184 36.8464C0.47225 36.8397 0.488386 36.836 0.510768 36.836H0.534712V36.8329C0.534712 36.8261 0.53185 36.8212 0.526384 36.8183C0.521439 36.8157 0.513892 36.8142 0.503482 36.8142C0.494373 36.8142 0.486044 36.8152 0.478497 36.8173C0.47147 36.8189 0.464443 36.8212 0.457677 36.8246V36.7934C0.466525 36.7913 0.475374 36.79 0.483702 36.7892C0.49255 36.7879 0.501659 36.7871 0.510768 36.7871C0.533671 36.7871 0.550327 36.7918 0.560738 36.8006C0.571148 36.8098 0.576353 36.8243 0.576353 36.8444Z" fill="#090E24"/>
<path d="M0.66103 36.7529V36.7883H0.702671V36.8175H0.66103V36.8716C0.66103 36.8779 0.662072 36.882 0.664154 36.8841C0.666236 36.8862 0.67066 36.8872 0.677687 36.8872H0.699548V36.9164H0.664153C0.648017 36.9164 0.636566 36.9132 0.629799 36.907C0.622772 36.9002 0.619389 36.8883 0.619389 36.8716V36.8175H0.599609V36.7883H0.619389V36.7529L0.66103 36.7529Z" fill="#090E24"/>
<path d="M0.855127 36.8527V36.8652H0.760392C0.760912 36.8743 0.764035 36.8813 0.769761 36.886C0.776007 36.891 0.784335 36.8933 0.794745 36.8933C0.803594 36.8933 0.812703 36.8923 0.821812 36.8902C0.83066 36.8876 0.839769 36.8834 0.848878 36.8777V36.9099C0.838989 36.9136 0.829359 36.9159 0.81973 36.9172C0.810621 36.9193 0.801252 36.9204 0.791622 36.9204C0.767938 36.9204 0.749981 36.9146 0.737488 36.9027C0.724996 36.891 0.71875 36.8746 0.71875 36.8537C0.71875 36.8329 0.724996 36.8168 0.737488 36.8048C0.749981 36.7931 0.767157 36.7871 0.78954 36.7871C0.808798 36.7871 0.824414 36.7931 0.836385 36.8048C0.848878 36.8168 0.855127 36.8327 0.855127 36.8527ZM0.813486 36.8392C0.813486 36.8316 0.810883 36.8256 0.806198 36.8215C0.802034 36.8168 0.796048 36.8142 0.788501 36.8142C0.780693 36.8142 0.774447 36.8163 0.769763 36.8204C0.764818 36.8246 0.761695 36.8308 0.760394 36.8392H0.813486Z" fill="#090E24"/>
<path d="M0.974681 36.8074L0.974681 36.7397H1.01632V36.9167H0.974681V36.898C0.968955 36.9058 0.962709 36.9113 0.955942 36.9146C0.949696 36.918 0.941888 36.9198 0.93304 36.9198C0.916903 36.9198 0.903891 36.9136 0.893481 36.9011C0.883591 36.8886 0.878906 36.8727 0.878906 36.8532C0.878906 36.834 0.883591 36.8178 0.893481 36.8053C0.903891 36.7928 0.916903 36.7866 0.93304 36.7866C0.941368 36.7866 0.948915 36.7884 0.955942 36.7918C0.962709 36.7954 0.968955 36.8006 0.974681 36.8074ZM0.947614 36.8907C0.956462 36.8907 0.96323 36.8876 0.967394 36.8813C0.972078 36.8746 0.974681 36.8652 0.974681 36.8532C0.974681 36.8407 0.972079 36.8314 0.967394 36.8251C0.96323 36.8189 0.956463 36.8157 0.947614 36.8157C0.939286 36.8157 0.932519 36.8189 0.927834 36.8251C0.92367 36.8314 0.921588 36.8407 0.921588 36.8532C0.921588 36.8652 0.92367 36.8746 0.927834 36.8813C0.932519 36.8876 0.939286 36.8907 0.947614 36.8907Z" fill="#090E24"/>
<path d="M1.20243 36.8904C1.21128 36.8904 1.21805 36.8873 1.22221 36.8811C1.2269 36.8743 1.2295 36.8649 1.2295 36.853C1.2295 36.8405 1.2269 36.8311 1.22221 36.8249C1.21805 36.8186 1.21128 36.8155 1.20243 36.8155C1.19332 36.8155 1.1863 36.8186 1.18161 36.8249C1.17745 36.8311 1.17537 36.8405 1.17537 36.853C1.17537 36.8649 1.17745 36.8743 1.18161 36.8811C1.1863 36.8873 1.19332 36.8904 1.20243 36.8904ZM1.17537 36.8072C1.18083 36.8004 1.18708 36.7952 1.1941 36.7915C1.20087 36.7882 1.20894 36.7863 1.21805 36.7863C1.23314 36.7863 1.24564 36.7926 1.25553 36.8051C1.26594 36.8176 1.27114 36.8337 1.27114 36.853C1.27114 36.8725 1.26594 36.8884 1.25553 36.9009C1.24564 36.9133 1.23314 36.9196 1.21805 36.9196C1.20894 36.9196 1.20087 36.9178 1.1941 36.9144C1.18708 36.911 1.18083 36.9055 1.17537 36.8977V36.9165H1.13477V36.7395H1.17537V36.8072Z" fill="#090E24"/>
<path d="M1.28711 36.7881H1.32771L1.36206 36.8755L1.39121 36.7881H1.43181L1.37768 36.9286C1.37273 36.9424 1.36649 36.952 1.35894 36.9578C1.35191 36.9632 1.34254 36.9661 1.33083 36.9661H1.30689V36.9401H1.32042C1.32719 36.9401 1.33213 36.9385 1.335 36.9359C1.33838 36.9338 1.34072 36.9299 1.34228 36.9245L1.34332 36.9213L1.28711 36.7881Z" fill="#090E24"/>
<path d="M1.59202 36.859C1.58291 36.859 1.5764 36.8606 1.57224 36.8632C1.56807 36.866 1.56599 36.8702 1.56599 36.8757C1.56599 36.8814 1.56755 36.8855 1.5712 36.8882C1.57458 36.891 1.57952 36.8923 1.58577 36.8923C1.59332 36.8923 1.59956 36.8897 1.60451 36.884C1.60997 36.8785 1.61284 36.8715 1.61284 36.8632V36.859H1.59202ZM1.65448 36.8434L1.65448 36.9163H1.61284V36.8975C1.60711 36.9053 1.60087 36.9108 1.5941 36.9142C1.58785 36.9176 1.57952 36.9194 1.56911 36.9194C1.55584 36.9194 1.54517 36.9157 1.53684 36.9079C1.52903 36.9004 1.52539 36.8902 1.52539 36.8777C1.52539 36.8632 1.53008 36.8525 1.53996 36.8455C1.55038 36.8387 1.56651 36.8351 1.58889 36.8351H1.61284V36.8319C1.61284 36.8252 1.60997 36.8202 1.60451 36.8174C1.59956 36.8148 1.59202 36.8132 1.58161 36.8132C1.5725 36.8132 1.56417 36.8142 1.55662 36.8163C1.5496 36.8179 1.54257 36.8202 1.5358 36.8236V36.7924C1.54465 36.7903 1.5535 36.789 1.56183 36.7882C1.57068 36.7869 1.57978 36.7861 1.58889 36.7861C1.6118 36.7861 1.62845 36.7908 1.63886 36.7997C1.64927 36.8088 1.65448 36.8233 1.65448 36.8434Z" fill="#090E24"/>
<path d="M1.75907 36.8914C1.76792 36.8914 1.77469 36.8883 1.77885 36.8821C1.78354 36.8753 1.78614 36.8659 1.78614 36.8539C1.78614 36.8415 1.78354 36.8321 1.77885 36.8258C1.77469 36.8196 1.76792 36.8165 1.75907 36.8165C1.74996 36.8165 1.74294 36.8196 1.73825 36.8258C1.73409 36.8321 1.73201 36.8415 1.73201 36.8539C1.73201 36.8659 1.73409 36.8753 1.73825 36.8821C1.74294 36.8883 1.74996 36.8914 1.75907 36.8914ZM1.73201 36.8081C1.73747 36.8014 1.74372 36.7962 1.75074 36.7925C1.75751 36.7891 1.76558 36.7873 1.77469 36.7873C1.78978 36.7873 1.80228 36.7936 1.81217 36.8061C1.82258 36.8186 1.82778 36.8347 1.82778 36.8539C1.82778 36.8735 1.82258 36.8893 1.81217 36.9018C1.80228 36.9143 1.78978 36.9206 1.77469 36.9206C1.76558 36.9206 1.75751 36.9188 1.75074 36.9154C1.74372 36.912 1.73747 36.9065 1.73201 36.8987V36.9174H1.69141V36.7405H1.73201V36.8081Z" fill="#090E24"/>
<path d="M1.94148 36.8069V36.7393H1.98312V36.9162H1.94148V36.8975C1.93575 36.9053 1.92951 36.9108 1.92274 36.9141C1.91649 36.9175 1.90868 36.9194 1.89984 36.9194C1.8837 36.9194 1.87069 36.9131 1.86028 36.9006C1.85039 36.8881 1.8457 36.8722 1.8457 36.8527C1.8457 36.8335 1.85039 36.8173 1.86028 36.8048C1.87069 36.7923 1.8837 36.7861 1.89984 36.7861C1.90816 36.7861 1.91571 36.7879 1.92274 36.7913C1.92951 36.7949 1.93575 36.8002 1.94148 36.8069ZM1.91441 36.8902C1.92326 36.8902 1.93003 36.8871 1.93419 36.8808C1.93888 36.8741 1.94148 36.8647 1.94148 36.8527C1.94148 36.8402 1.93888 36.8309 1.93419 36.8246C1.93003 36.8184 1.92326 36.8153 1.91441 36.8153C1.90608 36.8153 1.89932 36.8184 1.89463 36.8246C1.89047 36.8309 1.88838 36.8402 1.88838 36.8527C1.88838 36.8647 1.89047 36.8741 1.89463 36.8808C1.89932 36.8871 1.90608 36.8902 1.91441 36.8902Z" fill="#090E24"/>
<path d="M2.15395 36.8529V36.8654H2.05922C2.05974 36.8745 2.06286 36.8816 2.06859 36.8862C2.07483 36.8912 2.08316 36.8935 2.09357 36.8935C2.10242 36.8935 2.11153 36.8925 2.12064 36.8904C2.12949 36.8878 2.1386 36.8836 2.14771 36.8779V36.9102C2.13782 36.9138 2.12819 36.9162 2.11856 36.9175C2.10945 36.9196 2.10008 36.9206 2.09045 36.9206C2.06677 36.9206 2.04881 36.9149 2.03632 36.9029C2.02382 36.8912 2.01758 36.8748 2.01758 36.854C2.01758 36.8332 2.02382 36.817 2.03632 36.8051C2.04881 36.7933 2.06599 36.7874 2.08837 36.7874C2.10763 36.7874 2.12324 36.7933 2.13521 36.8051C2.14771 36.817 2.15395 36.8329 2.15395 36.8529ZM2.11231 36.8394C2.11231 36.8319 2.10971 36.8259 2.10503 36.8217C2.10086 36.817 2.09488 36.8144 2.08733 36.8144C2.07952 36.8144 2.07328 36.8165 2.06859 36.8207C2.06365 36.8248 2.06052 36.8311 2.05922 36.8394H2.11231Z" fill="#090E24"/>
<path d="M2.27637 36.8246C2.27273 36.8225 2.26935 36.8212 2.26596 36.8204C2.26232 36.8199 2.25868 36.8194 2.25451 36.8194C2.2441 36.8194 2.23604 36.823 2.23057 36.8298C2.22484 36.8368 2.22224 36.8464 2.22224 36.8589V36.9172H2.18164V36.7892H2.22224V36.8111C2.22771 36.8027 2.23369 36.797 2.23994 36.7934C2.2467 36.7892 2.25503 36.7871 2.26492 36.7871H2.26909H2.27637L2.27637 36.8246Z" fill="#090E24"/>
<path d="M2.39356 36.8248C2.38992 36.8228 2.38654 36.8214 2.38315 36.8207C2.37951 36.8201 2.37586 36.8196 2.3717 36.8196C2.36129 36.8196 2.35322 36.8233 2.34776 36.83C2.34203 36.8371 2.33943 36.8467 2.33943 36.8592V36.9175H2.29883V36.7894H2.33943V36.8113C2.34489 36.803 2.35088 36.7972 2.35713 36.7936C2.36389 36.7894 2.37222 36.7874 2.38211 36.7874H2.38627H2.39356L2.39356 36.8248Z" fill="#090E24"/>
<path d="M2.47092 36.86C2.46181 36.86 2.45531 36.8615 2.45114 36.8641C2.44698 36.867 2.4449 36.8712 2.4449 36.8766C2.4449 36.8824 2.44646 36.8865 2.4501 36.8891C2.45349 36.892 2.45843 36.8933 2.46468 36.8933C2.47222 36.8933 2.47847 36.8907 2.48342 36.885C2.48888 36.8795 2.49174 36.8725 2.49174 36.8641V36.86H2.47092ZM2.53338 36.8444V36.9172H2.49174V36.8985C2.48602 36.9063 2.47977 36.9118 2.47301 36.9152C2.46676 36.9185 2.45843 36.9204 2.44802 36.9204C2.43475 36.9204 2.42408 36.9167 2.41575 36.9089C2.40794 36.9014 2.4043 36.8912 2.4043 36.8787C2.4043 36.8641 2.40898 36.8535 2.41887 36.8464C2.42928 36.8397 2.44542 36.836 2.4678 36.836H2.49174V36.8329C2.49174 36.8261 2.48888 36.8212 2.48342 36.8183C2.47847 36.8157 2.47092 36.8142 2.46051 36.8142C2.4514 36.8142 2.44308 36.8152 2.43553 36.8173C2.4285 36.8189 2.42147 36.8212 2.41471 36.8246V36.7934C2.42356 36.7913 2.4324 36.79 2.44073 36.7892C2.44958 36.7879 2.45869 36.7871 2.4678 36.7871C2.4907 36.7871 2.50736 36.7918 2.51777 36.8006C2.52818 36.8098 2.53338 36.8243 2.53338 36.8444Z" fill="#090E24"/>
<path d="M2.63225 36.8163C2.62314 36.8163 2.61611 36.8194 2.61143 36.8256C2.60648 36.8319 2.60414 36.8412 2.60414 36.8537C2.60414 36.8657 2.60648 36.8751 2.61143 36.8818C2.61611 36.8881 2.62314 36.8912 2.63225 36.8912C2.6411 36.8912 2.64786 36.8881 2.65203 36.8818C2.65671 36.8751 2.65932 36.8657 2.65932 36.8537C2.65932 36.8412 2.65671 36.8319 2.65203 36.8256C2.64786 36.8194 2.6411 36.8163 2.63225 36.8163ZM2.63225 36.7871C2.65437 36.7871 2.67129 36.7931 2.68326 36.8048C2.69575 36.8168 2.702 36.8329 2.702 36.8537C2.702 36.8746 2.69575 36.891 2.68326 36.9027C2.67129 36.9146 2.65437 36.9204 2.63225 36.9204C2.60987 36.9204 2.59269 36.9146 2.5802 36.9027C2.56823 36.891 2.5625 36.8746 2.5625 36.8537C2.5625 36.8329 2.56823 36.8168 2.5802 36.8048C2.59269 36.7931 2.60987 36.7871 2.63225 36.7871Z" fill="#090E24"/>
<path d="M2.73242 36.8662V36.7881H2.77302V36.8016V36.8276V36.8485V36.8714C2.77354 36.8755 2.77458 36.8787 2.77615 36.8807C2.77745 36.8828 2.77953 36.8849 2.78239 36.887C2.78499 36.8885 2.78812 36.8891 2.79176 36.8891C2.80061 36.8891 2.80764 36.8859 2.81258 36.8797C2.81727 36.8729 2.81987 36.8636 2.81987 36.8516V36.7881H2.86047V36.9161H2.81987V36.8974C2.81362 36.9052 2.80686 36.9107 2.80009 36.9141C2.79306 36.9174 2.78551 36.9193 2.77719 36.9193C2.76261 36.9193 2.75142 36.9148 2.74387 36.9057C2.73607 36.8969 2.73242 36.8836 2.73242 36.8662Z" fill="#090E24"/>
<path d="M2.9778 36.7412V36.7683H2.95594C2.9497 36.7683 2.94553 36.7693 2.94345 36.7714C2.94137 36.7735 2.94033 36.7771 2.94033 36.7818V36.7901H2.97468V36.8193H2.94033V36.9182H2.89973V36.8193H2.87891V36.7901H2.89973V36.7818C2.89973 36.768 2.90337 36.7579 2.91118 36.7516C2.91873 36.7449 2.93044 36.7412 2.94657 36.7412L2.9778 36.7412Z" fill="#090E24"/>
<path d="M3.14006 36.8165C3.13095 36.8165 3.12392 36.8196 3.11924 36.8259C3.1143 36.8321 3.11195 36.8415 3.11195 36.854C3.11195 36.866 3.1143 36.8753 3.11924 36.8821C3.12392 36.8883 3.13095 36.8915 3.14006 36.8915C3.14891 36.8915 3.15568 36.8883 3.15984 36.8821C3.16453 36.8753 3.16713 36.866 3.16713 36.854C3.16713 36.8415 3.16453 36.8321 3.15984 36.8259C3.15568 36.8196 3.14891 36.8165 3.14006 36.8165ZM3.14006 36.7874C3.16218 36.7874 3.1791 36.7933 3.19107 36.8051C3.20356 36.817 3.20981 36.8332 3.20981 36.854C3.20981 36.8748 3.20356 36.8912 3.19107 36.9029C3.1791 36.9149 3.16218 36.9206 3.14006 36.9206C3.11768 36.9206 3.1005 36.9149 3.08801 36.9029C3.07604 36.8912 3.07031 36.8748 3.07031 36.854C3.07031 36.8332 3.07604 36.817 3.08801 36.8051C3.1005 36.7933 3.11768 36.7874 3.14006 36.7874Z" fill="#090E24"/>
<path d="M3.35787 36.8103C3.36333 36.802 3.36958 36.7963 3.37661 36.7926C3.38337 36.7885 3.39118 36.7864 3.39951 36.7864C3.41461 36.7864 3.42606 36.7911 3.43386 36.7999C3.44141 36.809 3.44532 36.8218 3.44532 36.8384V36.9165H3.40367V36.8499V36.8478C3.4042 36.8465 3.40472 36.8447 3.40472 36.8426C3.40472 36.8337 3.40315 36.827 3.40055 36.8228C3.39769 36.8187 3.39326 36.8166 3.38702 36.8166C3.37921 36.8166 3.37349 36.8197 3.36932 36.8259C3.36516 36.8322 3.36308 36.8416 3.36308 36.854V36.9165H3.32143V36.8499C3.32143 36.8361 3.31987 36.827 3.31727 36.8228C3.31519 36.8187 3.31102 36.8166 3.30478 36.8166C3.29697 36.8166 3.29124 36.8202 3.28708 36.827C3.28292 36.8332 3.28083 36.8423 3.28083 36.854V36.9165H3.24023V36.7885H3.28083V36.8072C3.28552 36.8004 3.29124 36.7952 3.29749 36.7916C3.30426 36.7882 3.31155 36.7864 3.31935 36.7864C3.3282 36.7864 3.33601 36.7885 3.34225 36.7926C3.34902 36.7968 3.35423 36.8028 3.35787 36.8103Z" fill="#090E24"/>
<path d="M3.53733 36.861C3.52822 36.861 3.52171 36.8625 3.51755 36.8651C3.51339 36.868 3.5113 36.8721 3.5113 36.8776C3.5113 36.8833 3.51286 36.8875 3.51651 36.8901C3.51989 36.893 3.52484 36.8943 3.53108 36.8943C3.53863 36.8943 3.54488 36.8917 3.54982 36.8859C3.55529 36.8805 3.55815 36.8734 3.55815 36.8651V36.861H3.53733ZM3.59979 36.8453V36.9182H3.55815V36.8995C3.55242 36.9073 3.54618 36.9127 3.53941 36.9161C3.53317 36.9195 3.52484 36.9213 3.51443 36.9213C3.50115 36.9213 3.49048 36.9177 3.48215 36.9099C3.47435 36.9023 3.4707 36.8922 3.4707 36.8797C3.4707 36.8651 3.47539 36.8545 3.48528 36.8474C3.49569 36.8407 3.51182 36.837 3.53421 36.837H3.55815V36.8339C3.55815 36.8271 3.55529 36.8222 3.54982 36.8193C3.54488 36.8167 3.53733 36.8152 3.52692 36.8152C3.51781 36.8152 3.50948 36.8162 3.50193 36.8183C3.49491 36.8198 3.48788 36.8222 3.48111 36.8256V36.7943C3.48996 36.7923 3.49881 36.7909 3.50714 36.7902C3.51599 36.7889 3.5251 36.7881 3.53421 36.7881C3.55711 36.7881 3.57376 36.7928 3.58418 36.8016C3.59459 36.8107 3.59979 36.8253 3.59979 36.8453Z" fill="#090E24"/>
<path d="M3.73731 36.8236C3.73367 36.8215 3.73029 36.8202 3.7269 36.8194C3.72326 36.8189 3.71961 36.8184 3.71545 36.8184C3.70504 36.8184 3.69697 36.822 3.69151 36.8288C3.68578 36.8358 3.68318 36.8455 3.68318 36.858V36.9163H3.64258V36.7882H3.68318V36.8101C3.68864 36.8017 3.69463 36.796 3.70088 36.7924C3.70764 36.7882 3.71597 36.7861 3.72586 36.7861H3.73002H3.73731L3.73731 36.8236Z" fill="#090E24"/>
<path d="M3.81467 36.86C3.80556 36.86 3.79906 36.8615 3.79489 36.8641C3.79073 36.867 3.78865 36.8712 3.78865 36.8766C3.78865 36.8824 3.79021 36.8865 3.79385 36.8891C3.79724 36.892 3.80218 36.8933 3.80843 36.8933C3.81597 36.8933 3.82222 36.8907 3.82717 36.885C3.83263 36.8795 3.83549 36.8725 3.83549 36.8641V36.86H3.81467ZM3.87713 36.8444V36.9172H3.83549V36.8985C3.82977 36.9063 3.82352 36.9118 3.81676 36.9152C3.81051 36.9185 3.80218 36.9204 3.79177 36.9204C3.7785 36.9204 3.76783 36.9167 3.7595 36.9089C3.75169 36.9014 3.74805 36.8912 3.74805 36.8787C3.74805 36.8641 3.75273 36.8535 3.76262 36.8464C3.77303 36.8397 3.78917 36.836 3.81155 36.836H3.83549V36.8329C3.83549 36.8261 3.83263 36.8212 3.82717 36.8183C3.82222 36.8157 3.81467 36.8142 3.80426 36.8142C3.79515 36.8142 3.78683 36.8152 3.77928 36.8173C3.77225 36.8189 3.76522 36.8212 3.75846 36.8246V36.7934C3.76731 36.7913 3.77615 36.79 3.78448 36.7892C3.79333 36.7879 3.80244 36.7871 3.81155 36.7871C3.83445 36.7871 3.85111 36.7918 3.86152 36.8006C3.87193 36.8098 3.87713 36.8243 3.87713 36.8444Z" fill="#090E24"/>
<path d="M0.0988973 36.9724V36.9995H0.0770362C0.07079 36.9995 0.0666259 37.0005 0.0645439 37.0026C0.0624618 37.0047 0.0614208 37.0083 0.0614208 37.013V37.0213H0.0957743L0.0957743 37.0505H0.0614208L0.0614208 37.1494H0.0208205L0.0208205 37.0505H0L0 37.0213H0.0208205L0.0208205 37.013C0.0208205 36.9992 0.0244641 36.9891 0.0322721 36.9828C0.0398194 36.9761 0.0515309 36.9724 0.0676669 36.9724L0.0988973 36.9724Z" fill="#090E24"/>
<path d="M0.211922 37.0582C0.208278 37.0561 0.204895 37.0548 0.201511 37.0541C0.197868 37.0535 0.194224 37.053 0.19006 37.053C0.17965 37.053 0.171582 37.0567 0.166116 37.0634C0.16039 37.0705 0.157788 37.0801 0.157788 37.0926V37.1509H0.117187L0.117188 37.0228H0.157788V37.0447C0.163253 37.0364 0.169239 37.0306 0.175485 37.027C0.182251 37.0228 0.19058 37.0208 0.200469 37.0208H0.204634H0.211921L0.211922 37.0582Z" fill="#090E24"/>
<path d="M0.290451 37.0487C0.281342 37.0487 0.274315 37.0518 0.269631 37.058C0.264686 37.0643 0.262343 37.0737 0.262343 37.0862C0.262343 37.0981 0.264686 37.1075 0.269631 37.1143C0.274316 37.1205 0.281342 37.1236 0.290451 37.1236C0.2993 37.1236 0.306067 37.1205 0.310231 37.1143C0.314916 37.1075 0.317519 37.0981 0.317519 37.0862C0.317519 37.0737 0.314916 37.0643 0.310231 37.058C0.306067 37.0518 0.299301 37.0487 0.290451 37.0487ZM0.290451 37.0195C0.312573 37.0195 0.32949 37.0255 0.341461 37.0372C0.353954 37.0492 0.3602 37.0653 0.3602 37.0862C0.3602 37.107 0.353954 37.1234 0.341461 37.1351C0.329489 37.1471 0.312573 37.1528 0.290451 37.1528C0.268069 37.1528 0.250893 37.1471 0.2384 37.1351C0.226428 37.1234 0.220703 37.107 0.220703 37.0862C0.220703 37.0653 0.226429 37.0492 0.2384 37.0372C0.250893 37.0255 0.268069 37.0195 0.290451 37.0195Z" fill="#090E24"/>
<path d="M0.510213 37.0447C0.515679 37.0364 0.521925 37.0306 0.528952 37.027C0.535718 37.0228 0.543526 37.0208 0.551854 37.0208C0.566949 37.0208 0.5784 37.0254 0.586208 37.0343C0.593755 37.0434 0.597659 37.0561 0.597659 37.0728V37.1509H0.556018L0.556018 37.0843V37.0822C0.556539 37.0809 0.557059 37.0791 0.557059 37.077C0.557059 37.0681 0.555498 37.0614 0.552895 37.0572C0.550032 37.053 0.545608 37.0509 0.539362 37.0509C0.531554 37.0509 0.525829 37.0541 0.521665 37.0603C0.517501 37.0666 0.515419 37.0759 0.515419 37.0884V37.1509H0.473778V37.0843C0.473778 37.0705 0.472217 37.0614 0.469614 37.0572C0.467532 37.053 0.463368 37.0509 0.457122 37.0509C0.449314 37.0509 0.443589 37.0546 0.439425 37.0614C0.43526 37.0676 0.433178 37.0767 0.433178 37.0884V37.1509H0.392578V37.0228H0.433178V37.0416C0.437863 37.0348 0.443589 37.0296 0.449835 37.026C0.456601 37.0226 0.463889 37.0208 0.471696 37.0208C0.480545 37.0208 0.488352 37.0228 0.494599 37.027C0.501365 37.0312 0.506569 37.0371 0.510213 37.0447Z" fill="#090E24"/>
<path d="M0.758687 36.9873V37.0227H0.800328V37.0518H0.758687V37.106C0.758687 37.1122 0.759728 37.1164 0.76181 37.1185C0.763892 37.1206 0.768316 37.1216 0.775343 37.1216H0.797204V37.1507H0.761809C0.745673 37.1507 0.734222 37.1476 0.727456 37.1414C0.720429 37.1346 0.717045 37.1226 0.717045 37.106V37.0518H0.697266V37.0227H0.717045V36.9873L0.758687 36.9873Z" fill="#090E24"/>
<path d="M0.956172 37.0718V37.1499H0.915572L0.915572 37.0905C0.915572 37.0796 0.915051 37.0718 0.914531 37.0676C0.91375 37.0635 0.912709 37.0603 0.911408 37.0583C0.909846 37.0557 0.907764 37.0536 0.905161 37.052C0.902299 37.0507 0.899176 37.0499 0.895793 37.0499C0.887464 37.0499 0.880698 37.0536 0.876013 37.0603C0.871068 37.0666 0.868725 37.0757 0.868725 37.0874V37.1499H0.828125V36.9729H0.868725V37.0406C0.874971 37.0338 0.881478 37.0286 0.888505 37.0249C0.895272 37.0216 0.903079 37.0197 0.911408 37.0197C0.925982 37.0197 0.936913 37.0244 0.94472 37.0333C0.952268 37.0424 0.956172 37.0551 0.956172 37.0718Z" fill="#090E24"/>
<path d="M1.1188 37.0851V37.0976H1.02406C1.02458 37.1067 1.02771 37.1137 1.03343 37.1184C1.03968 37.1234 1.04801 37.1257 1.05842 37.1257C1.06727 37.1257 1.07637 37.1247 1.08548 37.1226C1.09433 37.12 1.10344 37.1158 1.11255 37.1101V37.1424C1.10266 37.146 1.09303 37.1484 1.0834 37.1497C1.07429 37.1517 1.06492 37.1528 1.05529 37.1528C1.03161 37.1528 1.01365 37.1471 1.00116 37.1351C0.988668 37.1234 0.982422 37.107 0.982422 37.0862C0.982422 37.0653 0.988668 37.0492 1.00116 37.0372C1.01365 37.0255 1.03083 37.0195 1.05321 37.0195C1.07247 37.0195 1.08809 37.0255 1.10006 37.0372C1.11255 37.0492 1.1188 37.0651 1.1188 37.0851ZM1.07716 37.0716C1.07716 37.064 1.07455 37.058 1.06987 37.0539C1.06571 37.0492 1.05972 37.0466 1.05217 37.0466C1.04437 37.0466 1.03812 37.0487 1.03343 37.0528C1.02849 37.057 1.02537 37.0633 1.02407 37.0716H1.07716Z" fill="#090E24"/>
<path d="M1.23242 36.9805H1.28135L1.34277 37.0971V36.9805H1.38441V37.1502H1.33548L1.27302 37.0336V37.1502H1.23242V36.9805Z" fill="#090E24"/>
<path d="M1.48576 37.0499C1.47665 37.0499 1.46963 37.053 1.46494 37.0593C1.46 37.0655 1.45766 37.0749 1.45766 37.0874C1.45766 37.0993 1.46 37.1087 1.46494 37.1155C1.46963 37.1217 1.47665 37.1249 1.48576 37.1249C1.49461 37.1249 1.50138 37.1217 1.50554 37.1155C1.51023 37.1087 1.51283 37.0993 1.51283 37.0874C1.51283 37.0749 1.51023 37.0655 1.50554 37.0593C1.50138 37.053 1.49461 37.0499 1.48576 37.0499ZM1.48576 37.0208C1.50789 37.0208 1.5248 37.0267 1.53677 37.0384C1.54927 37.0504 1.55551 37.0666 1.55551 37.0874C1.55551 37.1082 1.54927 37.1246 1.53677 37.1363C1.5248 37.1483 1.50789 37.154 1.48576 37.154C1.46338 37.154 1.44621 37.1483 1.43371 37.1363C1.42174 37.1246 1.41602 37.1082 1.41602 37.0874C1.41602 37.0666 1.42174 37.0504 1.43371 37.0384C1.44621 37.0267 1.46338 37.0208 1.48576 37.0208Z" fill="#090E24"/>
<path d="M1.58789 37.0998V37.0217H1.62849V37.0353V37.0613V37.0821V37.105C1.62901 37.1092 1.63005 37.1123 1.63161 37.1144C1.63292 37.1165 1.635 37.1185 1.63786 37.1206C1.64046 37.1222 1.64359 37.1227 1.64723 37.1227C1.65608 37.1227 1.6631 37.1196 1.66805 37.1133C1.67273 37.1066 1.67534 37.0972 1.67534 37.0852V37.0217H1.71594V37.1498H1.67534V37.131C1.66909 37.1388 1.66232 37.1443 1.65556 37.1477C1.64853 37.1511 1.64098 37.1529 1.63266 37.1529C1.61808 37.1529 1.60689 37.1485 1.59934 37.1394C1.59153 37.1305 1.58789 37.1172 1.58789 37.0998Z" fill="#090E24"/>
<path d="M1.88195 37.0718V37.1499H1.84135V37.0906C1.84135 37.0796 1.84083 37.0718 1.84031 37.0677C1.83953 37.0635 1.83849 37.0604 1.83719 37.0583C1.83563 37.0557 1.83355 37.0536 1.83094 37.052C1.82808 37.0507 1.82496 37.05 1.82157 37.05C1.81325 37.05 1.80648 37.0536 1.80179 37.0604C1.79685 37.0666 1.79451 37.0757 1.79451 37.0874V37.1499H1.75391V37.0219H1.79451V37.0406C1.80075 37.0338 1.80726 37.0286 1.81429 37.025C1.82105 37.0216 1.82886 37.0198 1.83719 37.0198C1.85176 37.0198 1.86269 37.0245 1.8705 37.0333C1.87805 37.0424 1.88195 37.0552 1.88195 37.0718Z" fill="#090E24"/>
<path d="M2 36.9805H2.07183C2.09395 36.9805 2.11061 36.9854 2.1218 36.995C2.13351 37.0042 2.1395 37.0177 2.1395 37.0356C2.1395 37.0539 2.13351 37.0677 2.1218 37.0773C2.11061 37.0864 2.09395 37.0908 2.07183 37.0908H2.04372V37.1502H2L2 36.9805ZM2.04373 37.0117V37.0596H2.06767C2.076 37.0596 2.0825 37.0575 2.08745 37.0533C2.09213 37.0492 2.09474 37.0435 2.09474 37.0356C2.09474 37.0281 2.09213 37.0221 2.08745 37.0179C2.0825 37.0138 2.076 37.0117 2.06767 37.0117L2.04373 37.0117Z" fill="#090E24"/>
<path d="M2.26661 37.0563C2.26297 37.0542 2.25958 37.0529 2.2562 37.0521C2.25256 37.0516 2.24891 37.0511 2.24475 37.0511C2.23434 37.0511 2.22627 37.0547 2.2208 37.0615C2.21508 37.0685 2.21248 37.0781 2.21248 37.0906V37.1489H2.17188V37.0209H2.21248V37.0427C2.21794 37.0344 2.22393 37.0287 2.23017 37.025C2.23694 37.0209 2.24527 37.0188 2.25516 37.0188H2.25932H2.26661L2.26661 37.0563Z" fill="#090E24"/>
<path d="M2.34709 37.0499C2.33798 37.0499 2.33096 37.053 2.32627 37.0593C2.32133 37.0655 2.31898 37.0749 2.31898 37.0874C2.31898 37.0993 2.32133 37.1087 2.32627 37.1155C2.33096 37.1217 2.33798 37.1249 2.34709 37.1249C2.35594 37.1249 2.36271 37.1217 2.36687 37.1155C2.37156 37.1087 2.37416 37.0993 2.37416 37.0874C2.37416 37.0749 2.37156 37.0655 2.36687 37.0593C2.36271 37.053 2.35594 37.0499 2.34709 37.0499ZM2.34709 37.0208C2.36921 37.0208 2.38613 37.0267 2.3981 37.0384C2.41059 37.0504 2.41684 37.0666 2.41684 37.0874C2.41684 37.1082 2.41059 37.1246 2.3981 37.1363C2.38613 37.1483 2.36921 37.154 2.34709 37.154C2.32471 37.154 2.30753 37.1483 2.29504 37.1363C2.28307 37.1246 2.27734 37.1082 2.27734 37.0874C2.27734 37.0666 2.28307 37.0504 2.29504 37.0384C2.30753 37.0267 2.32471 37.0208 2.34709 37.0208Z" fill="#090E24"/>
<path d="M2.44504 37.0218H2.48564V37.1478C2.48564 37.1644 2.48147 37.1772 2.47314 37.1863C2.46482 37.1952 2.45284 37.1998 2.43775 37.1998H2.41797V37.1738H2.42421C2.43254 37.1738 2.43801 37.172 2.44087 37.1686C2.44347 37.165 2.44504 37.1582 2.44504 37.1478V37.0218ZM2.44504 36.9729H2.48564V37.0062H2.44504V36.9729Z" fill="#090E24"/>
<path d="M2.65395 37.0863V37.0988H2.55922C2.55974 37.1079 2.56286 37.115 2.56859 37.1196C2.57483 37.1246 2.58316 37.1269 2.59357 37.1269C2.60242 37.1269 2.61153 37.1259 2.62064 37.1238C2.62949 37.1212 2.6386 37.117 2.64771 37.1113V37.1436C2.63782 37.1472 2.62819 37.1496 2.61856 37.1509C2.60945 37.153 2.60008 37.154 2.59045 37.154C2.56677 37.154 2.54881 37.1483 2.53632 37.1363C2.52382 37.1246 2.51758 37.1082 2.51758 37.0874C2.51758 37.0666 2.52382 37.0504 2.53632 37.0384C2.54881 37.0267 2.56599 37.0208 2.58837 37.0208C2.60763 37.0208 2.62324 37.0267 2.63521 37.0384C2.64771 37.0504 2.65395 37.0663 2.65395 37.0863ZM2.61231 37.0728C2.61231 37.0653 2.60971 37.0593 2.60503 37.0551C2.60086 37.0504 2.59488 37.0478 2.58733 37.0478C2.57952 37.0478 2.57328 37.0499 2.56859 37.0541C2.56365 37.0582 2.56052 37.0645 2.55922 37.0728H2.61231Z" fill="#090E24"/>
<path d="M2.79017 37.0258V37.0591C2.78444 37.0557 2.77897 37.0534 2.77351 37.0518C2.76778 37.0497 2.76206 37.0487 2.75581 37.0487C2.74462 37.0487 2.73551 37.0523 2.72875 37.0591C2.7225 37.0653 2.71938 37.0744 2.71938 37.0862C2.71938 37.0981 2.7225 37.1075 2.72875 37.1143C2.73551 37.1205 2.74462 37.1236 2.75581 37.1236C2.76206 37.1236 2.76778 37.1231 2.77351 37.1216C2.77976 37.1195 2.78522 37.1163 2.79017 37.1122V37.1455C2.78392 37.1484 2.77715 37.1499 2.77039 37.1507C2.76414 37.152 2.75737 37.1528 2.75061 37.1528C2.7277 37.1528 2.70949 37.1471 2.69647 37.1351C2.68398 37.1234 2.67773 37.107 2.67773 37.0862C2.67773 37.0653 2.68398 37.0492 2.69647 37.0372C2.70949 37.0255 2.7277 37.0195 2.75061 37.0195C2.75737 37.0195 2.76414 37.0203 2.77039 37.0216C2.77715 37.0224 2.78392 37.0237 2.79017 37.0258Z" fill="#090E24"/>
<path d="M2.86611 36.9863V37.0217H2.90775V37.0509H2.86611V37.105C2.86611 37.1113 2.86715 37.1154 2.86923 37.1175C2.87131 37.1196 2.87574 37.1206 2.88276 37.1206H2.90463V37.1498H2.86923C2.85309 37.1498 2.84164 37.1466 2.83488 37.1404C2.82785 37.1336 2.82447 37.1217 2.82447 37.105V37.0509H2.80469V37.0217H2.82447V36.9863L2.86611 36.9863Z" fill="#090E24"/>
</svg>
