<svg width="21" height="21" viewBox="0 0 21 21" fill="none" xmlns="http://www.w3.org/2000/svg">
<path d="M1.11837 15.9298C0.986139 15.9298 0.853907 15.8793 0.752972 15.7784C0.551093 15.5765 0.551093 15.2493 0.752972 15.0474L3.74132 12.0591C3.9432 11.8572 4.27038 11.8573 4.47212 12.0591C4.674 12.2609 4.674 12.5881 4.47212 12.79L1.48392 15.7785C1.38298 15.8793 1.2506 15.9298 1.11837 15.9298Z" fill="#5472C7"/>
<path d="M1.78829 18.7931C1.65606 18.7931 1.52383 18.7426 1.42289 18.6417C1.22101 18.4398 1.22101 18.1126 1.42289 17.9108L4.53771 14.7959C4.73959 14.5941 5.06677 14.5941 5.26851 14.7959C5.47039 14.9978 5.47039 15.325 5.26851 15.5269L2.15369 18.6417C2.0529 18.7426 1.92052 18.7931 1.78829 18.7931Z" fill="#5472C7"/>
<path d="M19.9131 0.151355C19.7958 0.0341212 19.6294 -0.0198074 19.4656 0.00657918C19.4056 0.0162405 17.9732 0.25157 16.0212 0.997367C14.8761 1.43488 13.788 1.95873 12.7874 2.55457C11.5315 3.30224 10.41 4.16612 9.45379 5.12232C7.84036 6.73575 6.52181 8.77052 5.53494 11.17C5.45563 11.363 5.50004 11.5846 5.64741 11.7321L6.6245 12.7092L8.83159 10.5021C9.03347 10.3003 9.36065 10.3003 9.56254 10.5021C9.76442 10.704 9.76442 11.0312 9.56254 11.2331L7.35545 13.4402L8.3324 14.4173C8.43132 14.516 8.5634 14.5687 8.69793 14.5687C8.76412 14.5687 8.83089 14.556 8.89448 14.5297C11.2941 13.5429 13.3287 12.2245 14.9422 10.6109C15.8982 9.65473 16.7623 8.53315 17.5099 7.27732C18.1058 6.2766 18.6296 5.18861 19.0671 4.04352C19.8129 2.09151 20.0483 0.659041 20.0579 0.599055C20.0842 0.435102 20.0304 0.268555 19.913 0.151318L19.9131 0.151355ZM15.26 7.40323C14.9129 7.75031 14.4516 7.94152 13.9608 7.94152H13.9606C13.4698 7.94152 13.0083 7.75031 12.6614 7.40338C12.3143 7.0563 12.1233 6.59488 12.1233 6.10402C12.1233 5.61317 12.3143 5.15173 12.6614 4.80481C13.0085 4.45773 13.4699 4.26652 13.9608 4.26652C14.4516 4.26652 14.9131 4.45759 15.26 4.80466C15.9765 5.52103 15.9765 6.68672 15.26 7.40327L15.26 7.40323Z" fill="#5472C7"/>
<path d="M4.65157 19.4615C4.51934 19.4615 4.38711 19.411 4.28617 19.3101C4.0843 19.1082 4.0843 18.781 4.28617 18.5792L7.27452 15.5908C7.4764 15.3891 7.80358 15.3889 8.00532 15.5908C8.2072 15.7927 8.2072 16.1199 8.00532 16.3218L5.01697 19.3101C4.91603 19.411 4.7838 19.4615 4.65157 19.4615Z" fill="#5472C7"/>
<path d="M8.20851 5.31494L5.61208 5.82034C5.51129 5.83995 5.41871 5.88912 5.34604 5.96165L1.81017 9.48626C1.6491 9.64675 1.6119 9.89376 1.71861 10.0946C1.80945 10.2656 1.98638 10.3692 2.17498 10.3692C2.20771 10.3692 2.24088 10.366 2.2739 10.3596L5.30666 9.76916C6.10638 8.08538 7.07826 6.59377 8.20848 5.31504L8.20851 5.31494Z" fill="#5472C7"/>
<path d="M10.2932 14.757L9.7029 17.7897C9.6595 18.0129 9.76693 18.2383 9.96794 18.3449C10.0445 18.3855 10.1276 18.4053 10.21 18.4053C10.3443 18.4053 10.4768 18.3531 10.5763 18.2533L14.1008 14.7173C14.1733 14.6446 14.2224 14.5519 14.2421 14.4513L14.7475 11.855C13.4686 12.985 11.977 13.9569 10.2934 14.7569L10.2932 14.757Z" fill="#5472C7"/>
<path d="M0.0840789 20.4494C0.0794646 20.4518 0.0745619 20.4535 0.0696593 20.4546C0.065045 20.4558 0.0601423 20.4564 0.0552397 20.4564C0.0393779 20.4564 0.0269771 20.4522 0.0177492 20.4437C0.00852058 20.4349 0.00390625 20.4229 0.00390625 20.4079C0.00390625 20.3926 0.00852058 20.3807 0.0177492 20.3722C0.0269779 20.3634 0.039379 20.3589 0.0552397 20.3589C0.0601423 20.3589 0.065045 20.3595 0.0696593 20.3606C0.0745619 20.3618 0.0794646 20.3635 0.0840789 20.3658V20.3854C0.0794646 20.3824 0.0749946 20.3801 0.0708125 20.3785C0.0664865 20.3771 0.0618722 20.3762 0.0569695 20.3762C0.0484618 20.3762 0.0416847 20.3791 0.0367817 20.3848C0.0317347 20.3903 0.0292836 20.398 0.0292836 20.4079C0.0292836 20.4176 0.0317349 20.4252 0.0367817 20.431C0.0416843 20.4365 0.0484618 20.4391 0.0569695 20.4391C0.0618722 20.4391 0.0664865 20.4383 0.0708125 20.4368C0.0749942 20.4353 0.0794646 20.433 0.0840789 20.4298V20.4494Z" fill="#5472C7"/>
<path d="M0.156004 20.4026C0.153985 20.4014 0.152111 20.4007 0.150236 20.4003C0.148217 20.4 0.146199 20.3997 0.143891 20.3997C0.138123 20.3997 0.133653 20.4017 0.130625 20.4055C0.127453 20.4094 0.126011 20.4147 0.126011 20.4216V20.4539H0.103516L0.103516 20.383H0.126011V20.3951C0.129039 20.3905 0.132356 20.3873 0.135816 20.3853C0.139565 20.383 0.144179 20.3818 0.149659 20.3818H0.151966H0.156004L0.156004 20.4026Z" fill="#5472C7"/>
<path d="M0.23767 20.4182V20.4251H0.185181C0.18547 20.4301 0.1872 20.434 0.190372 20.4366C0.193833 20.4394 0.198447 20.4407 0.204215 20.4407C0.209118 20.4407 0.214165 20.4401 0.219212 20.4389C0.224114 20.4375 0.229161 20.4352 0.234208 20.432V20.4499C0.228729 20.4519 0.223394 20.4532 0.218058 20.4539C0.213011 20.4551 0.20782 20.4557 0.202485 20.4557C0.189363 20.4557 0.179413 20.4525 0.172492 20.4459C0.16557 20.4394 0.162109 20.4303 0.162109 20.4188C0.162109 20.4072 0.16557 20.3983 0.172492 20.3916C0.179413 20.3852 0.18893 20.3818 0.201331 20.3818C0.212002 20.3818 0.220654 20.3852 0.227287 20.3916C0.234208 20.3983 0.23767 20.4071 0.23767 20.4182ZM0.214599 20.4107C0.214599 20.4065 0.213157 20.4032 0.210561 20.4009C0.208254 20.3983 0.204937 20.3968 0.200756 20.3968C0.19643 20.3968 0.192969 20.398 0.190373 20.4003C0.187634 20.4026 0.185903 20.4061 0.185182 20.4107H0.214599Z" fill="#5472C7"/>
<path d="M0.284962 20.4227C0.279915 20.4227 0.27631 20.4236 0.274003 20.425C0.271695 20.4266 0.270542 20.4289 0.270542 20.4319C0.270542 20.4351 0.271407 20.4374 0.273426 20.4388C0.2753 20.4404 0.27804 20.4412 0.281501 20.4412C0.285683 20.4412 0.289143 20.4397 0.291883 20.4365C0.294911 20.4335 0.296497 20.4296 0.296497 20.425V20.4227H0.284962ZM0.319569 20.414V20.4544H0.296498V20.444C0.293325 20.4484 0.289864 20.4514 0.286115 20.4533C0.282655 20.4551 0.27804 20.4562 0.272272 20.4562C0.264918 20.4562 0.259006 20.4541 0.254392 20.4498C0.250066 20.4456 0.248047 20.44 0.248047 20.4331C0.248047 20.425 0.250642 20.4191 0.256122 20.4152C0.26189 20.4115 0.27083 20.4094 0.283231 20.4094H0.296498V20.4077C0.296498 20.404 0.294911 20.4012 0.291883 20.3996C0.289144 20.3982 0.284962 20.3973 0.279194 20.3973C0.274147 20.3973 0.269533 20.3979 0.265351 20.3991C0.261458 20.3999 0.257564 20.4012 0.253815 20.4031V20.3858C0.258718 20.3846 0.26362 20.3839 0.268235 20.3835C0.273137 20.3828 0.278184 20.3823 0.283231 20.3823C0.295921 20.3823 0.305149 20.3849 0.310917 20.3898C0.316685 20.3949 0.319569 20.4029 0.319569 20.414Z" fill="#5472C7"/>
<path d="M0.366062 20.3633V20.3829H0.389134V20.399H0.366062V20.429C0.366062 20.4325 0.366639 20.4348 0.367793 20.436C0.368946 20.4371 0.371398 20.4377 0.375291 20.4377H0.387403V20.4538H0.367792C0.358852 20.4538 0.352507 20.4521 0.348758 20.4486C0.344865 20.4449 0.34299 20.4383 0.34299 20.429V20.399H0.332031V20.3829H0.34299V20.3633L0.366062 20.3633Z" fill="#5472C7"/>
<path d="M0.473998 20.4187V20.4256H0.42151C0.421798 20.4306 0.423528 20.4345 0.4267 20.4371C0.430161 20.4399 0.434776 20.4412 0.440543 20.4412C0.445446 20.4412 0.450493 20.4406 0.45554 20.4394C0.460443 20.438 0.46549 20.4357 0.470537 20.4325V20.4504C0.465057 20.4524 0.459722 20.4537 0.454386 20.4544C0.449339 20.4556 0.444149 20.4562 0.438813 20.4562C0.425691 20.4562 0.415741 20.453 0.40882 20.4463C0.401898 20.4399 0.398438 20.4308 0.398438 20.4192C0.398438 20.4077 0.401898 20.3988 0.40882 20.3921C0.415741 20.3856 0.425258 20.3823 0.437659 20.3823C0.44833 20.3823 0.456982 20.3856 0.463615 20.3921C0.470536 20.3988 0.473998 20.4076 0.473998 20.4187ZM0.450927 20.4112C0.450927 20.407 0.449485 20.4037 0.446889 20.4014C0.444582 20.3988 0.441265 20.3973 0.437084 20.3973C0.432758 20.3973 0.429297 20.3985 0.426702 20.4008C0.423962 20.4031 0.422232 20.4065 0.421511 20.4112H0.450927Z" fill="#5472C7"/>
<path d="M0.539393 20.3934V20.356H0.562465V20.454H0.539393V20.4436C0.536221 20.448 0.53276 20.451 0.529011 20.4529C0.52555 20.4547 0.521224 20.4557 0.516321 20.4557C0.507381 20.4557 0.500171 20.4523 0.494403 20.4454C0.488924 20.4384 0.486328 20.4296 0.486328 20.4188C0.486328 20.4082 0.488924 20.3992 0.494403 20.3923C0.500171 20.3854 0.507381 20.3819 0.516321 20.3819C0.520936 20.3819 0.525117 20.3829 0.529011 20.3848C0.53276 20.3868 0.53622 20.3897 0.539393 20.3934ZM0.524396 20.4396C0.529299 20.4396 0.533048 20.4379 0.535356 20.4344C0.537951 20.4307 0.539393 20.4255 0.539393 20.4188C0.539393 20.4119 0.537951 20.4067 0.535356 20.4033C0.533048 20.3998 0.529299 20.3981 0.524396 20.3981C0.519782 20.3981 0.516033 20.3998 0.513437 20.4033C0.51113 20.4067 0.509976 20.4119 0.509976 20.4188C0.509976 20.4255 0.51113 20.4307 0.513437 20.4344C0.516033 20.4379 0.519782 20.4396 0.524396 20.4396Z" fill="#5472C7"/>
<path d="M0.666398 20.4396C0.6713 20.4396 0.67505 20.4379 0.677357 20.4344C0.679953 20.4307 0.681395 20.4255 0.681395 20.4188C0.681395 20.4119 0.679953 20.4067 0.677357 20.4033C0.67505 20.3998 0.671301 20.3981 0.666398 20.3981C0.661351 20.3981 0.657457 20.3998 0.654862 20.4033C0.652555 20.4067 0.651401 20.4119 0.651401 20.4188C0.651401 20.4255 0.652555 20.4306 0.654862 20.4344C0.657458 20.4379 0.661351 20.4396 0.666398 20.4396ZM0.651401 20.3934C0.654429 20.3897 0.65789 20.3868 0.661784 20.3848C0.665533 20.3829 0.670003 20.3819 0.67505 20.3819C0.683413 20.3819 0.690335 20.3854 0.695814 20.3923C0.701582 20.3992 0.704466 20.4082 0.704466 20.4188C0.704466 20.4296 0.701582 20.4384 0.695814 20.4454C0.690335 20.4523 0.683413 20.4557 0.67505 20.4557C0.670003 20.4557 0.665533 20.4547 0.661784 20.4529C0.65789 20.451 0.654429 20.448 0.651401 20.4436V20.454H0.628906V20.356H0.651401V20.3934Z" fill="#5472C7"/>
<path d="M0.712891 20.3828H0.735386L0.75442 20.4313L0.77057 20.3828H0.793065L0.763072 20.4607C0.760332 20.4683 0.756871 20.4737 0.752689 20.4768C0.748796 20.4799 0.743605 20.4814 0.737116 20.4814H0.723849V20.467H0.731348C0.735097 20.467 0.737836 20.4662 0.739423 20.4647C0.741297 20.4636 0.742595 20.4614 0.74346 20.4584L0.744037 20.4566L0.712891 20.3828Z" fill="#5472C7"/>
<path d="M0.882618 20.4222C0.877571 20.4222 0.873966 20.4231 0.871659 20.4245C0.869352 20.4261 0.868198 20.4284 0.868198 20.4314C0.868198 20.4346 0.869063 20.4369 0.871082 20.4384C0.872957 20.4399 0.875696 20.4407 0.879157 20.4407C0.883339 20.4407 0.8868 20.4392 0.889539 20.4361C0.892568 20.433 0.894154 20.4291 0.894154 20.4245V20.4222H0.882618ZM0.917226 20.4136V20.4539H0.894154V20.4436C0.890982 20.4479 0.887521 20.4509 0.883772 20.4528C0.880311 20.4547 0.875697 20.4557 0.869929 20.4557C0.862575 20.4557 0.856662 20.4536 0.852048 20.4493C0.847722 20.4451 0.845703 20.4395 0.845703 20.4326C0.845703 20.4245 0.848299 20.4186 0.853778 20.4147C0.859546 20.411 0.868486 20.4089 0.880888 20.4089H0.894154V20.4072C0.894154 20.4035 0.892568 20.4007 0.88954 20.3991C0.8868 20.3977 0.882618 20.3968 0.87685 20.3968C0.871803 20.3968 0.867189 20.3974 0.863007 20.3986C0.859114 20.3994 0.85522 20.4007 0.851471 20.4026V20.3853C0.856374 20.3841 0.861277 20.3834 0.865891 20.383C0.870794 20.3823 0.875841 20.3818 0.880888 20.3818C0.893577 20.3818 0.902806 20.3844 0.908574 20.3893C0.914341 20.3944 0.917226 20.4025 0.917226 20.4136Z" fill="#5472C7"/>
<path d="M0.974992 20.4401C0.979894 20.4401 0.983644 20.4383 0.985951 20.4349C0.988546 20.4311 0.989989 20.4259 0.989989 20.4193C0.989989 20.4124 0.988547 20.4072 0.985951 20.4037C0.983644 20.4003 0.979895 20.3985 0.974992 20.3985C0.969945 20.3985 0.966051 20.4003 0.963456 20.4037C0.961149 20.4072 0.959995 20.4124 0.959995 20.4193C0.959995 20.4259 0.961149 20.4311 0.963456 20.4349C0.966051 20.4383 0.969945 20.4401 0.974992 20.4401ZM0.959995 20.3939C0.963023 20.3902 0.966484 20.3873 0.970377 20.3853C0.974126 20.3834 0.978597 20.3824 0.983644 20.3824C0.992007 20.3824 0.998929 20.3859 1.00441 20.3928C1.01018 20.3997 1.01306 20.4086 1.01306 20.4193C1.01306 20.4301 1.01018 20.4389 1.00441 20.4458C0.998929 20.4528 0.992007 20.4562 0.983644 20.4562C0.978597 20.4562 0.974127 20.4552 0.970377 20.4533C0.966484 20.4515 0.963023 20.4484 0.959995 20.4441V20.4545H0.9375V20.3564H0.959995V20.3939Z" fill="#5472C7"/>
<path d="M1.0765 20.3934V20.356H1.09957V20.454H1.0765V20.4436C1.07333 20.448 1.06987 20.451 1.06612 20.4529C1.06266 20.4547 1.05833 20.4557 1.05343 20.4557C1.04449 20.4557 1.03728 20.4523 1.03151 20.4454C1.02603 20.4384 1.02344 20.4296 1.02344 20.4188C1.02344 20.4082 1.02603 20.3992 1.03151 20.3923C1.03728 20.3854 1.04449 20.3819 1.05343 20.3819C1.05804 20.3819 1.06223 20.3829 1.06612 20.3848C1.06987 20.3868 1.07333 20.3897 1.0765 20.3934ZM1.06151 20.4396C1.06641 20.4396 1.07016 20.4379 1.07246 20.4344C1.07506 20.4307 1.0765 20.4255 1.0765 20.4188C1.0765 20.4119 1.07506 20.4067 1.07246 20.4033C1.07016 20.3998 1.06641 20.3981 1.06151 20.3981C1.05689 20.3981 1.05314 20.3998 1.05055 20.4033C1.04824 20.4067 1.04709 20.4119 1.04709 20.4188C1.04709 20.4255 1.04824 20.4307 1.05055 20.4344C1.05314 20.4379 1.05689 20.4396 1.06151 20.4396Z" fill="#5472C7"/>
<path d="M1.19275 20.4187V20.4256H1.14026C1.14055 20.4306 1.14228 20.4345 1.14545 20.4371C1.14891 20.4399 1.15353 20.4412 1.15929 20.4412C1.1642 20.4412 1.16924 20.4406 1.17429 20.4394C1.17919 20.438 1.18424 20.4357 1.18929 20.4325V20.4504C1.18381 20.4524 1.17847 20.4537 1.17314 20.4544C1.16809 20.4556 1.1629 20.4562 1.15756 20.4562C1.14444 20.4562 1.13449 20.453 1.12757 20.4463C1.12065 20.4399 1.11719 20.4308 1.11719 20.4192C1.11719 20.4077 1.12065 20.3988 1.12757 20.3921C1.13449 20.3856 1.14401 20.3823 1.15641 20.3823C1.16708 20.3823 1.17573 20.3856 1.18236 20.3921C1.18929 20.3988 1.19275 20.4076 1.19275 20.4187ZM1.16968 20.4112C1.16968 20.407 1.16823 20.4037 1.16564 20.4014C1.16333 20.3988 1.16002 20.3973 1.15583 20.3973C1.15151 20.3973 1.14805 20.3985 1.14545 20.4008C1.14271 20.4031 1.14098 20.4065 1.14026 20.4112H1.16968Z" fill="#5472C7"/>
<path d="M1.26147 20.4031C1.25945 20.4019 1.25758 20.4012 1.2557 20.4008C1.25369 20.4005 1.25167 20.4002 1.24936 20.4002C1.24359 20.4002 1.23912 20.4022 1.23609 20.406C1.23292 20.4099 1.23148 20.4152 1.23148 20.4221V20.4544H1.20898V20.3835H1.23148V20.3956C1.23451 20.391 1.23782 20.3878 1.24128 20.3858C1.24503 20.3835 1.24965 20.3823 1.25513 20.3823H1.25743H1.26147L1.26147 20.4031Z" fill="#5472C7"/>
<path d="M1.32593 20.4031C1.32391 20.4019 1.32203 20.4012 1.32016 20.4008C1.31814 20.4005 1.31612 20.4002 1.31381 20.4002C1.30805 20.4002 1.30358 20.4022 1.30055 20.406C1.29737 20.4099 1.29593 20.4152 1.29593 20.4221V20.4544H1.27344V20.3835H1.29593V20.3956C1.29896 20.391 1.30228 20.3878 1.30574 20.3858C1.30949 20.3835 1.3141 20.3823 1.31958 20.3823H1.32189H1.32593L1.32593 20.4031Z" fill="#5472C7"/>
<path d="M1.36895 20.4227C1.3639 20.4227 1.36029 20.4236 1.35799 20.425C1.35568 20.4266 1.35453 20.4289 1.35453 20.4319C1.35453 20.4351 1.35539 20.4374 1.35741 20.4388C1.35928 20.4404 1.36202 20.4412 1.36549 20.4412C1.36967 20.4412 1.37313 20.4397 1.37587 20.4365C1.3789 20.4335 1.38048 20.4296 1.38048 20.425V20.4227H1.36895ZM1.40355 20.414V20.4544H1.38048V20.444C1.37731 20.4484 1.37385 20.4514 1.3701 20.4533C1.36664 20.4551 1.36202 20.4562 1.35626 20.4562C1.3489 20.4562 1.34299 20.4541 1.33838 20.4498C1.33405 20.4456 1.33203 20.44 1.33203 20.4331C1.33203 20.425 1.33463 20.4191 1.34011 20.4152C1.34587 20.4115 1.35481 20.4094 1.36722 20.4094H1.38048V20.4077C1.38048 20.404 1.3789 20.4012 1.37587 20.3996C1.37313 20.3982 1.36895 20.3973 1.36318 20.3973C1.35813 20.3973 1.35352 20.3979 1.34934 20.3991C1.34544 20.3999 1.34155 20.4012 1.3378 20.4031V20.3858C1.3427 20.3846 1.3476 20.3839 1.35222 20.3835C1.35712 20.3828 1.36217 20.3823 1.36722 20.3823C1.37991 20.3823 1.38913 20.3849 1.3949 20.3898C1.40067 20.3949 1.40355 20.4029 1.40355 20.414Z" fill="#5472C7"/>
<path d="M1.45857 20.3985C1.45352 20.3985 1.44963 20.4002 1.44703 20.4037C1.44429 20.4071 1.44299 20.4123 1.44299 20.4192C1.44299 20.4259 1.44429 20.4311 1.44703 20.4348C1.44963 20.4383 1.45352 20.44 1.45857 20.44C1.46347 20.44 1.46722 20.4383 1.46953 20.4348C1.47212 20.4311 1.47356 20.4259 1.47356 20.4192C1.47356 20.4123 1.47212 20.4071 1.46953 20.4037C1.46722 20.4002 1.46347 20.3985 1.45857 20.3985ZM1.45857 20.3823C1.47082 20.3823 1.4802 20.3856 1.48683 20.3921C1.49375 20.3988 1.49721 20.4077 1.49721 20.4192C1.49721 20.4308 1.49375 20.4399 1.48683 20.4463C1.4802 20.453 1.47082 20.4562 1.45857 20.4562C1.44617 20.4562 1.43665 20.453 1.42973 20.4463C1.42309 20.4399 1.41992 20.4308 1.41992 20.4192C1.41992 20.4077 1.42309 20.3988 1.42973 20.3921C1.43665 20.3856 1.44617 20.3823 1.45857 20.3823Z" fill="#5472C7"/>
<path d="M1.51367 20.4261V20.3828H1.53617V20.3903V20.4047V20.4163V20.429C1.53646 20.4313 1.53703 20.433 1.5379 20.4341C1.53862 20.4353 1.53977 20.4365 1.54136 20.4376C1.5428 20.4385 1.54453 20.4388 1.54655 20.4388C1.55145 20.4388 1.55535 20.437 1.55808 20.4336C1.56068 20.4298 1.56212 20.4246 1.56212 20.418V20.3828H1.58462V20.4538H1.56212V20.4434C1.55866 20.4477 1.55491 20.4507 1.55116 20.4526C1.54727 20.4545 1.54309 20.4555 1.53847 20.4555C1.5304 20.4555 1.5242 20.453 1.52002 20.448C1.51569 20.4431 1.51367 20.4357 1.51367 20.4261Z" fill="#5472C7"/>
<path d="M1.6505 20.3569V20.3719H1.63839C1.63493 20.3719 1.63262 20.3725 1.63146 20.3737C1.63031 20.3748 1.62973 20.3768 1.62973 20.3794V20.384H1.64877V20.4002H1.62973V20.455H1.60724V20.4002H1.5957V20.384H1.60724V20.3794C1.60724 20.3718 1.60926 20.3662 1.61358 20.3627C1.61777 20.359 1.62425 20.3569 1.63319 20.3569L1.6505 20.3569Z" fill="#5472C7"/>
<path d="M1.73982 20.3985C1.73477 20.3985 1.73088 20.4002 1.72828 20.4037C1.72554 20.4071 1.72424 20.4123 1.72424 20.4192C1.72424 20.4259 1.72554 20.4311 1.72828 20.4348C1.73088 20.4383 1.73477 20.44 1.73982 20.44C1.74472 20.44 1.74847 20.4383 1.75078 20.4348C1.75337 20.4311 1.75481 20.4259 1.75481 20.4192C1.75481 20.4123 1.75337 20.4071 1.75078 20.4037C1.74847 20.4002 1.74472 20.3985 1.73982 20.3985ZM1.73982 20.3823C1.75207 20.3823 1.76145 20.3856 1.76808 20.3921C1.775 20.3988 1.77846 20.4077 1.77846 20.4192C1.77846 20.4308 1.775 20.4399 1.76808 20.4463C1.76145 20.453 1.75207 20.4562 1.73982 20.4562C1.72742 20.4562 1.7179 20.453 1.71098 20.4463C1.70434 20.4399 1.70117 20.4308 1.70117 20.4192C1.70117 20.4077 1.70434 20.3988 1.71098 20.3921C1.7179 20.3856 1.72742 20.3823 1.73982 20.3823Z" fill="#5472C7"/>
<path d="M1.8601 20.3951C1.86313 20.3905 1.86659 20.3873 1.87048 20.3853C1.87423 20.383 1.87856 20.3818 1.88317 20.3818C1.89153 20.3818 1.89788 20.3844 1.9022 20.3893C1.90639 20.3944 1.90855 20.4014 1.90855 20.4107V20.4539H1.88548V20.417V20.4159C1.88577 20.4151 1.88605 20.4141 1.88605 20.413C1.88605 20.4081 1.88519 20.4043 1.88375 20.402C1.88216 20.3997 1.87971 20.3986 1.87625 20.3986C1.87192 20.3986 1.86875 20.4003 1.86644 20.4038C1.86414 20.4072 1.86298 20.4124 1.86298 20.4193V20.4539H1.83991V20.417C1.83991 20.4094 1.83905 20.4043 1.8376 20.402C1.83645 20.3997 1.83414 20.3986 1.83068 20.3986C1.82636 20.3986 1.82318 20.4006 1.82088 20.4043C1.81857 20.4078 1.81742 20.4128 1.81742 20.4193V20.4539H1.79492V20.383H1.81742V20.3934C1.82001 20.3896 1.82318 20.3867 1.82665 20.3847C1.83039 20.3828 1.83443 20.3818 1.83876 20.3818C1.84366 20.3818 1.84799 20.383 1.85145 20.3853C1.8552 20.3876 1.85808 20.3909 1.8601 20.3951Z" fill="#5472C7"/>
<path d="M1.96074 20.4232C1.9557 20.4232 1.95209 20.4241 1.94978 20.4255C1.94748 20.4271 1.94632 20.4294 1.94632 20.4324C1.94632 20.4356 1.94719 20.4379 1.94921 20.4393C1.95108 20.4409 1.95382 20.4416 1.95728 20.4416C1.96146 20.4416 1.96492 20.4402 1.96766 20.437C1.97069 20.434 1.97228 20.4301 1.97228 20.4255V20.4232H1.96074ZM1.99535 20.4145V20.4549H1.97228V20.4445C1.96911 20.4489 1.96565 20.4519 1.9619 20.4538C1.95844 20.4556 1.95382 20.4566 1.94805 20.4566C1.9407 20.4566 1.93479 20.4546 1.93017 20.4503C1.92585 20.4461 1.92383 20.4405 1.92383 20.4336C1.92383 20.4255 1.92642 20.4196 1.9319 20.4157C1.93767 20.4119 1.94661 20.4099 1.95901 20.4099H1.97228V20.4082C1.97228 20.4044 1.97069 20.4017 1.96766 20.4001C1.96492 20.3987 1.96074 20.3978 1.95498 20.3978C1.94993 20.3978 1.94531 20.3984 1.94113 20.3995C1.93724 20.4004 1.93335 20.4017 1.9296 20.4036V20.3863C1.9345 20.3851 1.9394 20.3844 1.94402 20.384C1.94892 20.3832 1.95397 20.3828 1.95901 20.3828C1.9717 20.3828 1.98093 20.3854 1.9867 20.3903C1.99247 20.3954 1.99535 20.4034 1.99535 20.4145Z" fill="#5472C7"/>
<path d="M2.07007 20.4026C2.06805 20.4014 2.06617 20.4007 2.0643 20.4003C2.06228 20.4 2.06026 20.3997 2.05795 20.3997C2.05219 20.3997 2.04772 20.4017 2.04469 20.4055C2.04152 20.4094 2.04007 20.4147 2.04007 20.4216V20.4539H2.01758V20.383H2.04007V20.3951C2.0431 20.3905 2.04642 20.3873 2.04988 20.3853C2.05363 20.383 2.05824 20.3818 2.06372 20.3818H2.06603H2.07007L2.07007 20.4026Z" fill="#5472C7"/>
<path d="M2.11309 20.4227C2.10804 20.4227 2.10443 20.4236 2.10213 20.425C2.09982 20.4266 2.09867 20.4289 2.09867 20.4319C2.09867 20.4351 2.09953 20.4374 2.10155 20.4388C2.10343 20.4404 2.10617 20.4412 2.10963 20.4412C2.11381 20.4412 2.11727 20.4397 2.12001 20.4365C2.12304 20.4335 2.12462 20.4296 2.12462 20.425V20.4227H2.11309ZM2.14769 20.414V20.4544H2.12462V20.444C2.12145 20.4484 2.11799 20.4514 2.11424 20.4533C2.11078 20.4551 2.10617 20.4562 2.1004 20.4562C2.09304 20.4562 2.08713 20.4541 2.08252 20.4498C2.07819 20.4456 2.07617 20.44 2.07617 20.4331C2.07617 20.425 2.07877 20.4191 2.08425 20.4152C2.09001 20.4115 2.09896 20.4094 2.11136 20.4094H2.12462V20.4077C2.12462 20.404 2.12304 20.4012 2.12001 20.3996C2.11727 20.3982 2.11309 20.3973 2.10732 20.3973C2.10227 20.3973 2.09766 20.3979 2.09348 20.3991C2.08958 20.3999 2.08569 20.4012 2.08194 20.4031V20.3858C2.08684 20.3846 2.09175 20.3839 2.09636 20.3835C2.10126 20.3828 2.10631 20.3823 2.11136 20.3823C2.12405 20.3823 2.13327 20.3849 2.13904 20.3898C2.14481 20.3949 2.14769 20.4029 2.14769 20.414Z" fill="#5472C7"/>
<path d="M0.0547951 20.4849V20.4999H0.0426827C0.039222 20.4999 0.0369148 20.5004 0.0357612 20.5016C0.0346076 20.5027 0.0340308 20.5048 0.0340308 20.5074V20.512H0.0530648L0.0530648 20.5281H0.0340308L0.0340308 20.5829H0.0115358L0.0115358 20.5281H0L0 20.512H0.0115358V20.5074C0.0115358 20.4997 0.0135546 20.4941 0.0178807 20.4906C0.0220624 20.4869 0.0285512 20.4849 0.0374916 20.4849L0.0547951 20.4849Z" fill="#5472C7"/>
<path d="M0.116942 20.5325C0.114923 20.5313 0.113048 20.5306 0.111174 20.5302C0.109155 20.5299 0.107136 20.5296 0.104829 20.5296C0.099061 20.5296 0.094591 20.5316 0.0915625 20.5354C0.0883901 20.5393 0.0869482 20.5446 0.0869482 20.5515L0.0869482 20.5838H0.0644531L0.0644531 20.5129H0.0869482V20.525C0.0899763 20.5204 0.093293 20.5172 0.0967534 20.5152C0.100502 20.5129 0.105117 20.5117 0.110596 20.5117H0.112904H0.116941L0.116942 20.5325Z" fill="#5472C7"/>
<path d="M0.161692 20.5274C0.156645 20.5274 0.152751 20.5291 0.150156 20.5326C0.147416 20.536 0.146118 20.5412 0.146118 20.5481C0.146118 20.5548 0.147416 20.56 0.150156 20.5637C0.152751 20.5672 0.156645 20.5689 0.161692 20.5689C0.166594 20.5689 0.170344 20.5672 0.172651 20.5637C0.175246 20.56 0.176689 20.5548 0.176689 20.5481C0.176689 20.5412 0.175247 20.536 0.172651 20.5326C0.170344 20.5291 0.166595 20.5274 0.161692 20.5274ZM0.161692 20.5112C0.173948 20.5112 0.183321 20.5145 0.189954 20.521C0.196876 20.5277 0.200336 20.5366 0.200336 20.5481C0.200336 20.5597 0.196876 20.5688 0.189954 20.5753C0.183321 20.5819 0.173948 20.5851 0.161692 20.5851C0.149291 20.5851 0.139774 20.5819 0.132852 20.5753C0.126219 20.5688 0.123047 20.5597 0.123047 20.5481C0.123047 20.5366 0.126219 20.5277 0.132852 20.521C0.139774 20.5145 0.149291 20.5112 0.161692 20.5112Z" fill="#5472C7"/>
<path d="M0.281974 20.525C0.285002 20.5204 0.288463 20.5172 0.292356 20.5152C0.296105 20.5129 0.300431 20.5117 0.305046 20.5117C0.313409 20.5117 0.319754 20.5143 0.324079 20.5192C0.328261 20.5243 0.330424 20.5313 0.330424 20.5406V20.5838H0.307353V20.5469V20.5458C0.307641 20.545 0.307929 20.544 0.307929 20.5429C0.307929 20.538 0.307064 20.5342 0.305622 20.5319C0.304036 20.5296 0.301585 20.5284 0.298124 20.5284C0.293798 20.5284 0.290626 20.5302 0.288319 20.5336C0.286012 20.5371 0.284858 20.5423 0.284858 20.5492V20.5838H0.261787V20.5469C0.261787 20.5393 0.260921 20.5342 0.259479 20.5319C0.258326 20.5296 0.256019 20.5284 0.252558 20.5284C0.248232 20.5284 0.24506 20.5305 0.242753 20.5342C0.240445 20.5377 0.239292 20.5427 0.239292 20.5492V20.5838H0.216797V20.5129H0.239292V20.5233C0.241887 20.5195 0.24506 20.5166 0.248521 20.5146C0.25227 20.5127 0.256307 20.5117 0.260633 20.5117C0.265536 20.5117 0.269862 20.5129 0.273322 20.5152C0.277071 20.5175 0.279955 20.5208 0.281974 20.525Z" fill="#5472C7"/>
<path d="M0.42075 20.4932V20.5128H0.443821V20.5289H0.42075V20.5589C0.42075 20.5624 0.421327 20.5647 0.42248 20.5658C0.423634 20.567 0.426085 20.5676 0.429978 20.5676H0.442091V20.5837H0.42248C0.413539 20.5837 0.407195 20.582 0.403446 20.5785C0.399552 20.5748 0.397678 20.5681 0.397678 20.5589V20.5289H0.386719V20.5128H0.397678V20.4932L0.42075 20.4932Z" fill="#5472C7"/>
<path d="M0.52993 20.5401V20.5834H0.507435V20.5505C0.507435 20.5445 0.507147 20.5401 0.506858 20.5378C0.506426 20.5355 0.505849 20.5338 0.505128 20.5326C0.504263 20.5312 0.503109 20.5301 0.501667 20.5292C0.500081 20.5285 0.498351 20.528 0.496476 20.528C0.491862 20.528 0.488113 20.5301 0.485517 20.5338C0.482777 20.5373 0.481479 20.5423 0.481479 20.5488V20.5834H0.458984V20.4854H0.481479V20.5228C0.48494 20.5191 0.488545 20.5162 0.492439 20.5142C0.496188 20.5123 0.500514 20.5113 0.505128 20.5113C0.513203 20.5113 0.519259 20.5139 0.523585 20.5188C0.527767 20.5239 0.52993 20.5309 0.52993 20.5401Z" fill="#5472C7"/>
<path d="M0.620483 20.5476V20.5545H0.567994C0.568282 20.5595 0.570013 20.5634 0.573185 20.566C0.576646 20.5688 0.58126 20.5701 0.587028 20.5701C0.59193 20.5701 0.596977 20.5695 0.602024 20.5683C0.606927 20.5669 0.611974 20.5646 0.617021 20.5614V20.5793C0.611541 20.5813 0.606206 20.5826 0.600871 20.5833C0.595824 20.5845 0.590633 20.5851 0.585297 20.5851C0.572175 20.5851 0.562226 20.5819 0.555304 20.5753C0.548383 20.5688 0.544922 20.5597 0.544922 20.5481C0.544922 20.5366 0.548383 20.5277 0.555304 20.521C0.562226 20.5145 0.571743 20.5112 0.584144 20.5112C0.594814 20.5112 0.603466 20.5145 0.610099 20.521C0.617021 20.5277 0.620483 20.5365 0.620483 20.5476ZM0.597411 20.5401C0.597411 20.5359 0.595969 20.5326 0.593373 20.5303C0.591066 20.5277 0.58775 20.5262 0.583568 20.5262C0.579242 20.5262 0.575781 20.5274 0.573186 20.5297C0.570446 20.532 0.568716 20.5355 0.567995 20.5401H0.597411Z" fill="#5472C7"/>
<path d="M0.683594 20.4893H0.710703L0.744734 20.5539V20.4893H0.767806V20.5833H0.740696L0.706089 20.5187V20.5833H0.683594V20.4893Z" fill="#5472C7"/>
<path d="M0.823801 20.5279C0.818754 20.5279 0.814861 20.5296 0.812265 20.5331C0.809525 20.5365 0.808228 20.5417 0.808228 20.5486C0.808228 20.5553 0.809525 20.5605 0.812265 20.5642C0.814861 20.5677 0.818754 20.5694 0.823801 20.5694C0.828704 20.5694 0.832453 20.5677 0.83476 20.5642C0.837356 20.5605 0.838798 20.5553 0.838798 20.5486C0.838798 20.5417 0.837356 20.5365 0.83476 20.5331C0.832453 20.5296 0.828704 20.5279 0.823801 20.5279ZM0.823801 20.5117C0.836058 20.5117 0.845431 20.515 0.852064 20.5215C0.858985 20.5282 0.862446 20.5371 0.862446 20.5486C0.862446 20.5602 0.858985 20.5693 0.852064 20.5757C0.84543 20.5824 0.836058 20.5855 0.823801 20.5855C0.8114 20.5855 0.801883 20.5824 0.794962 20.5757C0.788328 20.5693 0.785156 20.5602 0.785156 20.5486C0.785156 20.5371 0.788329 20.5282 0.794962 20.5215C0.801883 20.515 0.8114 20.5117 0.823801 20.5117Z" fill="#5472C7"/>
<path d="M0.878906 20.5555V20.5122H0.901401V20.5197V20.5341V20.5457V20.5584C0.90169 20.5607 0.902267 20.5624 0.903132 20.5635C0.903853 20.5647 0.905006 20.5658 0.906593 20.567C0.908035 20.5679 0.909765 20.5682 0.911784 20.5682C0.916686 20.5682 0.92058 20.5664 0.923319 20.563C0.925915 20.5592 0.927357 20.554 0.927357 20.5474V20.5122H0.949852V20.5832H0.927357V20.5728C0.923896 20.5771 0.920147 20.5801 0.916398 20.582C0.912504 20.5839 0.908323 20.5849 0.903708 20.5849C0.895633 20.5849 0.889433 20.5824 0.885251 20.5774C0.880925 20.5725 0.878906 20.5651 0.878906 20.5555Z" fill="#5472C7"/>
<path d="M1.0436 20.5401V20.5833H1.02111V20.5505C1.02111 20.5444 1.02082 20.5401 1.02053 20.5378C1.0201 20.5355 1.01952 20.5337 1.0188 20.5326C1.01793 20.5311 1.01678 20.53 1.01534 20.5291C1.01375 20.5284 1.01202 20.528 1.01015 20.528C1.00553 20.528 1.00178 20.53 0.999189 20.5337C0.996449 20.5372 0.995151 20.5422 0.995151 20.5487V20.5833H0.972656V20.5124H0.995151V20.5228C0.998612 20.519 1.00222 20.5161 1.00611 20.5141C1.00986 20.5122 1.01419 20.5112 1.0188 20.5112C1.02687 20.5112 1.03293 20.5138 1.03726 20.5187C1.04144 20.5238 1.0436 20.5308 1.0436 20.5401Z" fill="#5472C7"/>
<path d="M1.10938 20.4893H1.14917C1.16143 20.4893 1.17066 20.492 1.17686 20.4973C1.18335 20.5024 1.18666 20.5099 1.18666 20.5198C1.18666 20.5299 1.18335 20.5376 1.17686 20.5429C1.17066 20.5479 1.16143 20.5504 1.14917 20.5504H1.1336V20.5833H1.10938L1.10938 20.4893ZM1.1336 20.5066V20.5331H1.14687C1.15148 20.5331 1.15509 20.5319 1.15783 20.5296C1.16042 20.5273 1.16186 20.5242 1.16186 20.5198C1.16186 20.5156 1.16042 20.5123 1.15783 20.51C1.15509 20.5077 1.15148 20.5066 1.14687 20.5066L1.1336 20.5066Z" fill="#5472C7"/>
<path d="M1.25561 20.5315C1.25359 20.5304 1.25172 20.5296 1.24985 20.5292C1.24783 20.5289 1.24581 20.5286 1.2435 20.5286C1.23773 20.5286 1.23326 20.5306 1.23023 20.5344C1.22706 20.5383 1.22562 20.5436 1.22562 20.5505V20.5828H1.20312V20.5119H1.22562V20.524C1.22865 20.5194 1.23196 20.5162 1.23543 20.5142C1.23917 20.5119 1.24379 20.5107 1.24927 20.5107H1.25158H1.25561L1.25561 20.5315Z" fill="#5472C7"/>
<path d="M1.30036 20.5279C1.29532 20.5279 1.29142 20.5296 1.28883 20.5331C1.28609 20.5365 1.28479 20.5417 1.28479 20.5486C1.28479 20.5553 1.28609 20.5605 1.28883 20.5642C1.29142 20.5677 1.29532 20.5694 1.30036 20.5694C1.30527 20.5694 1.30902 20.5677 1.31132 20.5642C1.31392 20.5605 1.31536 20.5553 1.31536 20.5486C1.31536 20.5417 1.31392 20.5365 1.31132 20.5331C1.30902 20.5296 1.30527 20.5279 1.30036 20.5279ZM1.30036 20.5117C1.31262 20.5117 1.32199 20.515 1.32863 20.5215C1.33555 20.5282 1.33901 20.5371 1.33901 20.5486C1.33901 20.5602 1.33555 20.5693 1.32863 20.5757C1.32199 20.5824 1.31262 20.5855 1.30036 20.5855C1.28796 20.5855 1.27845 20.5824 1.27152 20.5757C1.26489 20.5693 1.26172 20.5602 1.26172 20.5486C1.26172 20.5371 1.26489 20.5282 1.27152 20.5215C1.27845 20.515 1.28796 20.5117 1.30036 20.5117Z" fill="#5472C7"/>
<path d="M1.35484 20.5125H1.37734V20.5823C1.37734 20.5915 1.37503 20.5985 1.37041 20.6036C1.3658 20.6085 1.35917 20.6111 1.3508 20.6111H1.33984V20.5967H1.3433C1.34792 20.5967 1.35095 20.5957 1.35253 20.5938C1.35398 20.5918 1.35484 20.588 1.35484 20.5823V20.5125ZM1.35484 20.4854H1.37734V20.5038H1.35484V20.4854Z" fill="#5472C7"/>
<path d="M1.47009 20.5481V20.555H1.4176C1.41789 20.56 1.41962 20.5639 1.42279 20.5665C1.42625 20.5693 1.43087 20.5706 1.43664 20.5706C1.44154 20.5706 1.44659 20.57 1.45163 20.5688C1.45654 20.5674 1.46158 20.5651 1.46663 20.5619V20.5798C1.46115 20.5818 1.45582 20.5831 1.45048 20.5838C1.44543 20.585 1.44024 20.5855 1.43491 20.5855C1.42178 20.5855 1.41183 20.5824 1.40491 20.5757C1.39799 20.5693 1.39453 20.5602 1.39453 20.5486C1.39453 20.5371 1.39799 20.5282 1.40491 20.5215C1.41183 20.515 1.42135 20.5117 1.43375 20.5117C1.44442 20.5117 1.45308 20.515 1.45971 20.5215C1.46663 20.5282 1.47009 20.537 1.47009 20.5481ZM1.44702 20.5406C1.44702 20.5364 1.44558 20.5331 1.44298 20.5308C1.44068 20.5282 1.43736 20.5267 1.43318 20.5267C1.42885 20.5267 1.42539 20.5279 1.4228 20.5302C1.42006 20.5325 1.41833 20.5359 1.4176 20.5406H1.44702Z" fill="#5472C7"/>
<path d="M1.54472 20.5147V20.5331C1.54154 20.5313 1.53852 20.53 1.53549 20.5291C1.53231 20.528 1.52914 20.5274 1.52568 20.5274C1.51948 20.5274 1.51443 20.5294 1.51069 20.5331C1.50722 20.5366 1.50549 20.5417 1.50549 20.5481C1.50549 20.5548 1.50722 20.56 1.51069 20.5637C1.51443 20.5672 1.51948 20.5689 1.52568 20.5689C1.52914 20.5689 1.53231 20.5686 1.53549 20.5678C1.53895 20.5666 1.54198 20.5649 1.54472 20.5626V20.581C1.54125 20.5826 1.53751 20.5835 1.53376 20.5839C1.5303 20.5846 1.52655 20.5851 1.5228 20.5851C1.51011 20.5851 1.50001 20.5819 1.4928 20.5753C1.48588 20.5688 1.48242 20.5597 1.48242 20.5481C1.48242 20.5366 1.48588 20.5277 1.4928 20.521C1.50001 20.5145 1.51011 20.5112 1.5228 20.5112C1.52655 20.5112 1.5303 20.5117 1.53376 20.5124C1.53751 20.5128 1.54125 20.5135 1.54472 20.5147Z" fill="#5472C7"/>
<path d="M1.58872 20.4927V20.5123H1.61179V20.5284H1.58872V20.5584C1.58872 20.5619 1.5893 20.5642 1.59045 20.5654C1.5916 20.5665 1.59405 20.5671 1.59795 20.5671H1.61006V20.5832H1.59045C1.58151 20.5832 1.57516 20.5815 1.57141 20.578C1.56752 20.5743 1.56565 20.5677 1.56565 20.5584V20.5284H1.55469V20.5123H1.56565V20.4927L1.58872 20.4927Z" fill="#5472C7"/>
</svg>
