<svg width="41" height="22" viewBox="0 0 41 22" fill="none" xmlns="http://www.w3.org/2000/svg">
<path d="M24.1402 10.2522C21.9181 9.89715 21.2457 8.12099 21.0652 7.37804C20.967 6.99049 20.606 6.74014 20.2123 6.76458C17.9409 6.90983 16.1699 8.77463 16.1699 11.0029C16.1699 13.3524 18.1133 15.2657 20.4996 15.2657C22.8529 15.2657 24.7963 13.3845 24.8292 11.0594C24.8292 10.6638 24.542 10.3168 24.1402 10.2522Z" fill="#E1E1E1"/>
<path d="M40.8034 10.4873C40.4343 10.0592 31.6277 0 20.5001 0C9.3807 0 0.566317 10.0592 0.196819 10.4873C-0.0656063 10.7862 -0.0656063 11.2299 0.196819 11.5288C0.56599 11.9569 9.3807 22 20.5001 22C31.6277 22 40.4339 11.9569 40.8034 11.5288C41.0655 11.2299 41.0655 10.7858 40.8034 10.4873ZM20.5001 19.1902C15.9165 19.1902 12.1936 15.5168 12.1936 11.0121C12.1936 6.4909 15.9165 2.8178 20.5001 2.8178C25.0841 2.8178 28.8067 6.49126 28.8067 11.0121C28.8067 15.5168 25.0841 19.1902 20.5001 19.1902Z" fill="#E1E1E1"/>
</svg>
