<svg width="35" height="33" viewBox="0 0 35 33" fill="none" xmlns="http://www.w3.org/2000/svg">
<path d="M9.60247 17.0525H12.6178C12.6519 17.0505 12.6922 17.0498 12.7332 17.0498C13.2311 17.0498 13.6927 17.2016 14.0718 17.46L14.0643 17.4553C14.4051 17.7503 14.6188 18.1792 14.6188 18.656C14.6188 18.7106 14.6161 18.7645 14.6106 18.8178L14.6113 18.8111C14.612 18.8318 14.6127 18.8564 14.6127 18.8811C14.6127 19.1448 14.5505 19.3951 14.4406 19.6176L14.4454 19.6076C14.3375 19.8087 14.1852 19.9738 13.9994 20.095L13.9946 20.0977C13.8075 20.2189 13.5882 20.3101 13.3526 20.3567L13.341 20.3587C13.117 20.4073 12.8595 20.4353 12.5959 20.4353C12.5843 20.4353 12.5727 20.4353 12.5618 20.4353H12.5638H9.60315L9.60247 17.0525ZM22.7939 15.2252C22.8328 15.2225 22.8779 15.2205 22.9237 15.2205C23.4229 15.2205 23.8764 15.411 24.2124 15.7213L24.2117 15.7206C24.5437 16.0995 24.7567 16.587 24.7888 17.1217V17.1284H20.7122C20.73 16.9126 20.771 16.7128 20.8318 16.5224L20.8263 16.5417C20.898 16.3006 21.0134 16.0915 21.1644 15.9117L21.1616 15.9151C21.3358 15.714 21.5468 15.5495 21.7852 15.4296L21.7968 15.4243C22.0659 15.2978 22.3821 15.2232 22.7161 15.2232C22.7434 15.2232 22.7707 15.2238 22.7973 15.2245H22.7932L22.7939 15.2252ZM22.869 13.3799C22.8506 13.3799 22.8294 13.3793 22.8076 13.3793C22.1424 13.3793 21.5093 13.5131 20.9356 13.7542L20.9663 13.7428C19.8374 14.215 18.9673 15.098 18.5425 16.1948L18.5322 16.2247C18.3191 16.7661 18.1955 17.3921 18.1955 18.046C18.1955 18.06 18.1955 18.074 18.1955 18.0873V18.0853C18.1955 18.1033 18.1955 18.1239 18.1955 18.1452C18.1955 18.8038 18.3157 19.4351 18.5356 20.0191L18.5233 19.9812C18.7405 20.5558 19.0554 21.0486 19.4522 21.4662L19.4494 21.4635C19.8544 21.8724 20.3455 22.1973 20.8946 22.4104L20.9226 22.4197C21.4785 22.6335 22.1226 22.7574 22.796 22.7574C22.8212 22.7574 22.8472 22.7574 22.8725 22.7567H22.8684C22.9114 22.758 22.9612 22.7587 23.0118 22.7587C23.9372 22.7587 24.8005 22.4997 25.5292 22.0522L25.5094 22.0635C26.2975 21.5134 26.8746 20.7203 27.1294 19.7974L27.1362 19.7687H24.9302C24.7991 20.1024 24.5662 20.3734 24.2677 20.5525L24.2609 20.5565C23.9099 20.7909 23.4755 20.9308 23.0077 20.9308C22.9879 20.9308 22.9681 20.9308 22.9489 20.9301H22.9517C22.908 20.9334 22.8567 20.9347 22.8048 20.9347C22.2387 20.9347 21.7223 20.729 21.329 20.39L21.331 20.392C20.9444 19.9578 20.7088 19.3878 20.7088 18.7632C20.7088 18.7292 20.7095 18.6946 20.7109 18.6606V18.6653H27.2933C27.3042 18.5281 27.3103 18.369 27.3103 18.2078C27.3103 17.6671 27.2407 17.1424 27.1089 16.6416L27.1184 16.6855C26.9538 16.0416 26.6772 15.4769 26.3071 14.9834L26.3166 14.9968C25.9431 14.504 25.4663 14.1064 24.9166 13.8281L24.894 13.8174C24.3333 13.5391 23.6708 13.3759 22.9694 13.3759C22.9332 13.3759 22.8977 13.3766 22.8622 13.3773H22.8677L22.869 13.3799ZM9.60247 12.3344H12.1977C12.208 12.3344 12.221 12.3344 12.2332 12.3344C12.473 12.3344 12.7072 12.3564 12.934 12.399L12.9107 12.3957C13.1402 12.4323 13.3458 12.5082 13.5295 12.6161L13.522 12.6121C13.7023 12.716 13.8471 12.8605 13.9468 13.0336L13.9495 13.039C14.0472 13.2281 14.1046 13.4505 14.1046 13.6862C14.1046 13.7062 14.1039 13.7269 14.1032 13.7468V13.7442C14.1073 13.7808 14.1093 13.8241 14.1093 13.8674C14.1093 14.2663 13.9236 14.6232 13.632 14.8596L13.6299 14.8616C13.3116 15.0787 12.9162 15.2085 12.4894 15.2085C12.4614 15.2085 12.4327 15.2079 12.4047 15.2065H12.4088H9.60179L9.60247 12.3344ZM20.1993 11.0665V12.2785H25.3065V11.0659L20.1993 11.0665ZM6.82759 10.2421V22.527H12.9347C12.9381 22.527 12.9428 22.527 12.9469 22.527C13.5281 22.527 14.0909 22.4517 14.6264 22.3105L14.5813 22.3205C15.127 22.1833 15.605 21.9643 16.0285 21.6739L16.0148 21.6832C16.4314 21.3942 16.7674 21.0207 17.0031 20.5878L17.0113 20.5705C17.2428 20.1277 17.3787 19.6042 17.3787 19.0495C17.3787 19.0182 17.378 18.9863 17.3773 18.955V18.9596C17.3787 18.929 17.3787 18.8924 17.3787 18.8564C17.3787 18.1612 17.1656 17.5153 16.7995 16.9759L16.8077 16.9885C16.3939 16.4278 15.7942 16.0196 15.0983 15.8491L15.0778 15.8451C15.6016 15.6174 16.0353 15.2711 16.357 14.8409L16.3631 14.8323C16.6349 14.4221 16.7968 13.9206 16.7968 13.3826C16.7968 13.348 16.7961 13.3133 16.7948 13.2787V13.2834C16.7961 13.2521 16.7961 13.2154 16.7961 13.1788C16.7961 12.6954 16.6896 12.2359 16.4977 11.8217L16.5065 11.8423C16.316 11.4588 16.036 11.1424 15.6925 10.91L15.6843 10.9047C15.3202 10.669 14.8934 10.4932 14.4344 10.4019L14.4112 10.3979C13.94 10.2987 13.3977 10.2415 12.8425 10.2415C12.8158 10.2415 12.7892 10.2415 12.7625 10.2421H12.7666H6.82759Z" fill="white"/>
<rect x="0.5" y="0.5" width="33.1379" height="32" rx="4.5" stroke="white"/>
</svg>
