<svg width="28" height="29" viewBox="0 0 28 29" fill="none" xmlns="http://www.w3.org/2000/svg">
<path d="M11.0454 28.2688L13.9991 28.2508L16.9528 28.2688C17.3573 28.2688 17.6559 28.0295 17.7673 27.6595C17.817 27.3264 18.4566 23.0281 18.6601 21.7974C18.8122 20.8843 19.8843 20.467 20.6852 20.3668C23.0401 20.0185 25.2427 19.4634 27.2502 18.7036C27.2661 17.8643 27.2713 16.984 27.2713 16.0625C27.2713 13.8728 26.9165 11.7866 26.2538 9.90004C21.7753 9.16029 18.2739 5.66149 17.8123 1.29067C16.6432 0.932821 15.3267 0.73154 13.9992 0.73154C12.6711 0.73154 11.355 0.933018 10.1865 1.29067C9.72459 5.66113 6.22304 9.16003 1.74447 9.90004C1.08173 11.786 0.727099 13.8722 0.727099 16.062C0.727099 16.9839 0.732332 17.864 0.748232 18.7031C2.75201 19.4617 4.95038 20.0165 7.30039 20.3649C7.30039 20.3649 7.41148 20.377 7.58074 20.4124C8.30788 20.565 9.19727 20.9487 9.33793 21.7967C9.54221 23.0274 10.1816 27.3248 10.2311 27.6588C10.3426 28.029 10.6405 28.2687 11.0454 28.2687L11.0454 28.2688ZM8.76851 3.7535C6.51398 4.05794 3.11543 7.15033 3.34316 7.87755C3.4138 8.10209 3.61265 8.33149 3.9399 8.47956C6.11231 7.54701 7.83528 5.91255 8.76836 3.7535H8.76851ZM18.8546 2.33058C18.9637 2.76995 19.1062 3.19758 19.2819 3.61088C20.6106 4.18616 21.8758 4.81386 23.0654 5.48547C21.8973 4.12164 20.478 3.04284 18.8546 2.33058ZM1.38117 21.7326C2.97616 22.2996 4.6895 22.7534 6.48353 23.0701C8.18481 23.5095 8.20027 24.2515 8.40636 25.6111C8.67182 25.6578 8.93952 25.7027 9.20898 25.7436C8.99826 24.3437 8.73743 22.623 8.61987 21.9173C8.51622 21.2928 7.33443 21.1059 7.21324 21.0913C5.16362 20.7885 3.25083 20.34 1.33037 19.684C1.33379 19.9454 1.33882 20.2019 1.34506 20.4549C3.28423 21.1469 5.39543 21.6681 7.62775 21.9836C7.94837 22.0292 7.88053 22.512 7.56033 22.4671C5.36458 22.1566 3.28172 21.6497 1.35905 20.9765L1.38117 21.7326ZM7.90344 25.517C7.75974 24.4649 7.75451 23.905 6.3811 23.5465C4.63252 23.238 2.96632 22.8015 1.40493 22.2581C1.5287 23.5109 2.15221 23.8261 2.39251 23.9215C4.09338 24.598 5.94316 25.1377 7.90339 25.517H7.90344ZM26.5933 22.2577C25.0324 22.8013 23.3659 23.2376 21.618 23.5461C20.2444 23.9046 20.2386 24.4645 20.0954 25.5166C22.0553 25.1373 23.9051 24.5976 25.6063 23.921C25.8466 23.8261 26.4699 23.5109 26.5931 22.2578L26.5933 22.2577ZM27.3533 21.4597L27.4133 21.4362C27.7142 21.3191 27.8897 21.7734 27.5876 21.891L27.3394 21.9865C27.2835 23.8042 26.3818 24.3998 25.8741 24.6027C23.6827 25.4743 21.2579 26.1225 18.6758 26.5007L18.4816 27.8025C18.4816 27.8025 18.4617 27.8949 18.4124 28.0138C18.1636 28.6209 17.6291 28.9998 16.9506 28.9998L13.9973 28.9818L11.0476 29C10.3269 29 9.66801 28.5044 9.51766 27.8022L9.32285 26.5005C6.74088 26.1224 4.31607 25.4741 2.12511 24.6025C1.61733 24.4 0.715293 23.804 0.658721 21.9862L0.410566 21.8908C0.109276 21.7736 0.284176 21.3187 0.586269 21.436L0.645639 21.4595L0.623702 20.7082L0.410567 20.6267C0.109277 20.5089 0.284177 20.054 0.58627 20.1719C0.606195 19.933 0.601767 19.6816 0.600157 19.4251C0.410971 19.3561 0.221583 19.2839 0.0313971 19.2102C0.00805109 18.161 0 17.1119 0 16.0622C0 13.6685 0.388436 11.4851 1.20919 9.24051C1.54449 9.19216 1.87414 9.12945 2.19719 9.05278C2.85307 7.48321 3.73422 6.07511 4.81037 4.8889C5.77643 4.31641 7.09345 3.49188 7.20077 3.34931C7.32898 3.1796 7.40304 2.99025 7.34186 2.82172C7.333 2.80109 7.32234 2.78167 7.31066 2.76225C7.96032 2.34493 8.65144 1.98992 9.38023 1.7037C9.43558 1.39137 9.47664 1.07114 9.5026 0.743228C10.9909 0.253693 12.4307 0 13.9996 0C15.5682 0 17.008 0.253667 18.496 0.743591C18.5221 1.07109 18.5626 1.39174 18.6183 1.70406C21.8737 2.98234 24.3734 5.63289 25.8016 9.05297C26.1245 9.12984 26.4545 9.19255 26.7904 9.24069C27.6116 11.4853 28 13.6694 28 16.0624C28 17.1123 27.9913 18.1609 27.9686 19.21C27.7794 19.2836 27.5888 19.3559 27.4003 19.4248C27.3976 19.6811 27.3942 19.933 27.3888 20.1808C27.7156 20.0536 27.8911 20.5083 27.589 20.6262L27.3763 20.7078L27.3533 21.4597ZM19.5919 25.6111C19.7984 24.2515 19.8143 23.5095 21.5143 23.0701C23.3081 22.7531 25.0219 22.2996 26.6163 21.7326L26.639 20.9766C24.7167 21.6494 22.6337 22.1564 20.4382 22.4673C20.1176 22.5122 20.0502 22.0297 20.3712 21.9838C22.6036 21.6683 24.7144 21.147 26.6534 20.4551C26.6594 20.2023 26.6647 19.9456 26.6681 19.6842C24.7471 20.3402 22.8345 20.7889 20.7852 21.0915C20.6641 21.1061 19.4818 21.2928 19.3786 21.9174C19.2615 22.623 19 24.3439 18.7897 25.7437C19.0584 25.7025 19.326 25.6584 19.5917 25.611L19.5919 25.6111ZM5.64108 9.97177C5.93995 10.4593 6.94002 10.6005 8.64872 9.75188C8.86387 9.69483 11.0733 8.54258 11.2325 8.37391C11.3589 8.2402 11.4601 8.08121 11.4782 7.91958C11.4849 7.80873 11.4611 7.71547 11.4112 7.6386C8.71373 7.9837 6.84118 8.86892 5.64117 9.9718L5.64108 9.97177ZM8.47102 13.5409H6.82955C6.90724 15.4469 7.98985 15.5019 8.4366 15.5408C8.46035 15.543 8.67691 15.5205 8.79746 15.5094C8.66141 14.925 8.55091 14.2686 8.47102 13.5409ZM21.1678 13.5409H19.5275C19.4468 14.2688 19.3365 14.9252 19.1996 15.5092C19.3206 15.5201 19.5372 15.5426 19.5605 15.5402C20.0083 15.5019 21.0911 15.4467 21.1678 13.5409ZM10.9065 18.6738C11.0675 18.689 11.0903 18.4464 10.9296 18.4316C4.54031 17.8225 4.27599 15.2669 4.27599 13.6243C4.27599 12.6743 4.63283 11.618 5.46725 10.6715C5.57452 10.5503 5.39279 10.3878 5.28572 10.5098C4.41385 11.499 4.03325 12.6112 4.03325 13.6241C4.03305 15.4006 4.40055 18.0542 10.9064 18.6738L10.9065 18.6738ZM12.5448 7.6512C12.3836 7.66172 12.3993 7.90487 12.5607 7.89475C12.9859 7.86603 13.4295 7.85106 13.8924 7.84843H14.1048C15.0565 7.85288 15.9254 7.91457 16.7179 8.02381C21.8759 8.73628 23.7214 11.469 23.7214 13.6239C23.7214 15.2754 23.4471 17.8529 16.9519 18.4412C16.7907 18.4559 16.8126 18.6989 16.9732 18.6845C23.5841 18.0859 23.9643 15.4119 23.9643 13.6241C23.9643 11.3053 21.9829 8.50538 16.7501 7.78265C15.9485 7.6716 15.0686 7.60929 14.1051 7.60484L13.8928 7.60464C13.4243 7.60687 12.9752 7.62325 12.5454 7.65137L12.5448 7.6512ZM9.51822 16.7841C11.2026 17.073 12.5226 17.9016 12.5226 18.7058C12.5226 18.7204 12.5148 18.8076 12.5061 18.9013C12.9777 18.9195 13.4748 18.9294 13.9992 18.9294C14.5038 18.9294 14.9814 18.9205 15.4372 18.9039C15.4284 18.8094 15.4211 18.7204 15.4211 18.7058C15.4211 17.8904 16.7767 17.0493 18.4936 16.7724C18.5264 16.6154 18.5443 16.4588 18.5443 16.3031C18.5443 16.0233 18.5316 15.4905 18.5357 15.0745C18.1889 15.31 17.8011 15.489 17.3857 15.6001C17.8182 15.2979 18.2016 14.921 18.5234 14.4856C18.7881 14.1106 18.9944 13.6658 19.0604 13.2122L19.0743 13.0994C19.1916 11.8191 18.1302 10.5052 14.0043 10.5052C13.4893 10.5052 13.0222 10.5258 12.5989 10.5641C12.6313 10.4973 12.6537 10.4289 12.6607 10.3602C13.3269 6.88223 7.75477 10.914 7.61993 11.8718C7.54949 12.3701 7.87392 13.0028 8.93536 12.7532C8.9253 12.8687 8.9261 12.984 8.93717 13.0995L8.95045 13.2124C9.01626 13.666 9.22316 14.1108 9.48681 14.4858C9.80902 14.9212 10.193 15.2978 10.6252 15.6001C10.2093 15.489 9.8215 15.3106 9.47454 15.0745C9.47857 15.4906 9.46649 16.0235 9.46649 16.303C9.46569 16.461 9.48421 16.6225 9.51822 16.7841ZM24.5711 13.6246C24.5711 16.1305 23.653 19.4178 13.9986 19.4178C4.3443 19.4178 3.42668 16.1301 3.42668 13.6246C3.42668 10.4503 6.52006 7.02863 13.8904 6.99601H14.1068C21.4771 7.02898 24.5706 10.4503 24.5706 13.6246H24.5711ZM12.1902 17.4023C12.2554 17.2457 12.6968 16.9548 13.1659 16.8812C13.6848 16.7989 13.9225 16.9085 14.0177 17.0315C14.1127 16.9085 14.3505 16.7989 14.8688 16.8812C15.3458 16.9561 15.7944 17.2546 15.8488 17.4098C15.3132 17.2613 14.682 17.1764 14.0054 17.1764C13.3411 17.1764 12.7198 17.2583 12.1903 17.4023L12.1902 17.4023ZM15.3482 17.7019C15.1624 18.0371 14.6383 18.2786 14.0213 18.2786C13.4086 18.2786 12.8886 18.0405 12.699 17.7086C13.0335 17.8303 13.4986 17.9058 14.013 17.9058C14.5381 17.9058 15.0123 17.8271 15.3482 17.7019ZM16.4841 12.7843C17.1587 12.8961 17.2727 13.0966 17.2727 13.0966L15.2446 13.136C15.275 13.1021 15.3386 13.0043 15.48 12.9168C14.7666 12.9675 14.4947 12.4092 14.4947 12.4092C14.4947 12.4092 14.8598 12.6287 15.4012 12.4493C16.1104 12.2134 15.8039 12.303 16.5916 12.0305C17.4719 11.7257 18.0729 12.9944 18.0729 12.9944C18.0729 12.9944 17.8638 12.7106 17.5108 12.5957C16.9617 12.4177 16.7754 12.5631 16.1514 12.7588C16.2519 12.7594 16.3615 12.7673 16.4841 12.7843ZM13.4998 12.4094C13.4998 12.4094 13.2271 12.9677 12.5144 12.917C12.6553 13.0046 12.7189 13.1023 12.7495 13.1362L10.7218 13.0968C10.7218 13.0968 10.8355 12.8963 11.5104 12.7845C11.6327 12.7671 11.7426 12.7592 11.8419 12.7586C11.2191 12.5632 11.0326 12.4175 10.4836 12.5955C10.1307 12.7106 9.92124 12.9942 9.92124 12.9942C9.92124 12.9942 10.5228 11.7255 11.4025 12.0304C12.1896 12.303 11.8837 12.2134 12.5936 12.4491C13.1352 12.6289 13.4999 12.4094 13.4999 12.4094L13.4998 12.4094ZM2.26937 13.9118C2.26937 13.5815 2.46782 13.3134 2.71194 13.3134C2.95668 13.3134 3.15452 13.5817 3.15452 13.9118C3.15452 14.2422 2.95627 14.5096 2.71194 14.5096C2.46802 14.5098 2.26937 14.2426 2.26937 13.9118ZM10.4357 5.87158C11.141 4.79055 11.6707 3.58772 11.9822 2.29676C12.6016 2.18591 13.249 2.12825 13.9232 2.12825H14.0744C14.7486 2.12825 15.396 2.1857 16.0149 2.29676C16.3142 3.53558 16.8139 4.69304 17.4767 5.73968C16.8278 5.01349 16.3379 4.21221 16.0435 3.3551C15.4208 3.27702 14.7697 3.23676 14.0927 3.23676H13.9405C13.2627 3.23676 12.6122 3.27742 11.9897 3.3551C11.677 4.26379 11.1447 5.11074 10.4358 5.87158H10.4357ZM24.9033 13.9118C24.9033 13.5815 25.1018 13.3134 25.3457 13.3134C25.591 13.3134 25.7891 13.5817 25.7891 13.9118C25.7891 14.2422 25.5906 14.5096 25.3457 14.5096C25.1018 14.5098 24.9033 14.2426 24.9033 13.9118ZM12.4843 26.228C12.4843 26.228 12.1435 26.2349 12.0757 25.8283C11.864 24.2921 11.5593 22.2935 11.4271 21.4965C11.2924 20.6854 11.1388 20.14 10.7995 19.7621C11.7489 19.855 12.8109 19.9045 13.9977 19.9045C15.1856 19.9045 16.2464 19.855 17.197 19.7621C16.8575 20.1402 16.7031 20.6864 16.569 21.4965C16.4368 22.2931 16.1319 24.2921 15.9201 25.8283C15.8527 26.2351 15.5122 26.228 15.5122 26.228H12.4843ZM13.4039 21.9096V22.3485C13.4039 22.4835 13.5123 22.5933 13.6466 22.5933H14.3681C14.5026 22.5933 14.611 22.4835 14.611 22.3485V21.9096C14.611 21.7744 14.5025 21.6654 14.3681 21.6654H13.6466C13.5125 21.6656 13.4039 21.7744 13.4039 21.9096ZM15.03 20.5593V20.9987C15.03 21.1338 15.1385 21.2428 15.2729 21.2428H15.9943C16.1285 21.2428 16.237 21.1338 16.237 20.9987V20.5593C16.237 20.4242 16.1285 20.3151 15.9943 20.3151H15.2729C15.1385 20.3151 15.03 20.4242 15.03 20.5593ZM13.4039 20.5593V20.9987C13.4039 21.1338 13.5123 21.2428 13.6466 21.2428H14.3681C14.5026 21.2428 14.611 21.1338 14.611 20.9987V20.5593C14.611 20.4242 14.5025 20.3151 14.3681 20.3151H13.6466C13.5125 20.3151 13.4039 20.4242 13.4039 20.5593ZM15.5439 25.0294V24.9688C15.5439 24.9158 15.5018 24.8739 15.4499 24.8739H13.4928C13.4409 24.8739 13.3984 24.9162 13.3984 24.9688V25.0294C13.3984 25.0818 13.4411 25.1245 13.4928 25.1245H15.4499C15.502 25.1245 15.5439 25.0818 15.5439 25.0294ZM15.5439 24.4029V24.3429C15.5439 24.2899 15.5018 24.2478 15.4499 24.2478H13.4928C13.4409 24.2478 13.3984 24.2901 13.3984 24.3429V24.4029C13.3984 24.4563 13.4411 24.4984 13.4928 24.4984H15.4499C15.502 24.4984 15.5439 24.4563 15.5439 24.4029ZM15.5439 23.7771V23.7168C15.5439 23.6638 15.5018 23.6219 15.4499 23.6219H13.4928C13.4409 23.6219 13.3984 23.6642 13.3984 23.7168V23.7771C13.3984 23.8299 13.4411 23.8721 13.4928 23.8721H15.4499C15.502 23.8723 15.5439 23.8296 15.5439 23.7771ZM15.5439 23.1516V23.0901C15.5439 23.0381 15.5018 22.995 15.4499 22.995H13.4928C13.4409 22.995 13.3984 23.0383 13.3984 23.0901V23.1516C13.3984 23.2036 13.4411 23.2459 13.4928 23.2459H15.4499C15.502 23.2465 15.5439 23.2032 15.5439 23.1516ZM15.5439 25.6557V25.5946C15.5439 25.5424 15.5018 25.5003 15.4499 25.5003H13.4928C13.4409 25.5003 13.3984 25.5426 13.3984 25.5946V25.6557C13.3984 25.7081 13.4411 25.7512 13.4928 25.7512H15.4499C15.502 25.7512 15.5439 25.7083 15.5439 25.6557ZM11.7776 20.5592V20.9986C11.7776 21.1337 11.8861 21.2428 12.0204 21.2428H12.7417C12.8759 21.2428 12.9846 21.1337 12.9846 20.9986V20.5592C12.9846 20.4241 12.8761 20.3151 12.7417 20.3151H12.0204C11.8865 20.3151 11.7776 20.4241 11.7776 20.5592ZM15.03 21.9095V22.3485C15.03 22.4834 15.1385 22.5932 15.2729 22.5932H15.9943C16.1285 22.5932 16.237 22.4834 16.237 22.3485V21.9095C16.237 21.7744 16.1285 21.6653 15.9943 21.6653H15.2729C15.1385 21.6656 15.03 21.7744 15.03 21.9095ZM13.6673 22.1403C13.6673 21.9613 13.8118 21.8158 13.9899 21.8158C14.1684 21.8158 14.3121 21.9609 14.3121 22.1403C14.3121 22.3189 14.1682 22.4642 13.9899 22.4642C13.812 22.4644 13.6673 22.3189 13.6673 22.1403ZM15.3174 20.7919C15.3174 20.6135 15.4619 20.4674 15.6402 20.4674C15.8186 20.4674 15.9631 20.613 15.9631 20.7919C15.9631 20.9705 15.8186 21.1163 15.6402 21.1163C15.4619 21.1163 15.3174 20.9705 15.3174 20.7919Z" fill="white"/>
</svg>
