<?xml version="1.0" encoding="UTF-8"?>
<svg id="Calque_2" data-name="Calque 2" xmlns="http://www.w3.org/2000/svg" viewBox="0 0 524.82 549.07">
  <defs>
    <style>
      .cls-1 {
        fill: #fff;
      }
    </style>
  </defs>
  <g id="Calque_1-2" data-name="Calque 1">
    <path class="cls-1" d="m314.34,139.28c9.46-9.43,22.28-14.71,35.63-14.7,13.36.02,26.16,5.33,35.6,14.78s14.74,22.26,14.74,35.62-5.3,26.17-14.74,35.62c-9.44,9.45-22.24,14.77-35.6,14.78-13.36.02-26.17-5.27-35.63-14.7-9.49-9.46-14.82-22.3-14.82-35.7s5.33-26.24,14.82-35.7ZM53.16,238.51l64.96,26.94h0c-7.32,18.49-13.16,37.54-17.47,56.95h0c-1.54,6.98.59,14.26,5.64,19.31l76.96,77c5.03,5.03,12.26,7.17,19.22,5.67h.05c13.02-2.9,25.87-6.48,38.49-10.73,10.48-3.53,21.91,1.57,26.15,11.79l19.25,46.42h0c.54,1.3,1.7,2.25,3.08,2.53,1.39.27,2.82-.18,3.8-1.19l40.71-40.71h0c13.43-13.43,20.55-31.93,19.6-50.9l-.84-15.05c-.38-6.84,2.61-13.43,8-17.65,72.49-56.66,143.81-153.21,163.8-317.07,1.2-8.66-1.72-17.38-7.89-23.57-6.16-6.2-14.86-9.16-23.53-8.01C329.31,20.39,232.7,91.8,176.05,164.11c-4.2,5.36-10.74,8.34-17.55,7.99l-15.07-.78c-18.93-1.03-37.42,5.99-50.9,19.32l-40.71,40.71c-1.15.98-1.69,2.49-1.41,3.98.28,1.48,1.33,2.7,2.75,3.19h0Zm-12.16,195.72c-10.78-3.79-22.35-4.71-33.6-2.69-2.03.44-4.14-.19-5.6-1.68-1.82-1.81-2.31-4.56-1.23-6.89,11.93-25.65,43.57-77.22,100.86-35.56.61.54.95,1.32.95,2.12s-.35,1.59-.95,2.13c-15.55,12.25-24.35,31.17-23.69,50.96.09,2.38,1.99,4.28,4.37,4.37,19.7.79,38.61-7.81,50.96-23.18.54-.66,1.36-1.05,2.21-1.05s1.67.39,2.21,1.05c7.95,9.46,29.85,40.38,5.6,70.22h0c-10.59,12.73-25.75,20.77-42.22,22.4-23.52,2.52-66.98,10.19-84.73,30.47-1.45,1.72-3.73,2.5-5.94,2.03-2.2-.47-3.96-2.11-4.59-4.27-6.27-21.39-16.02-69.21,35.4-110.43h0Z"/>
  </g>
</svg>