<svg width="30" height="29" viewBox="0 0 30 29" fill="none" xmlns="http://www.w3.org/2000/svg">
<rect x="0.5" y="0.5" width="29" height="28" rx="4.5" fill="#5472C7" stroke="#5472C7"/>
<path d="M12.0913 11.258H9.42515C9.30682 11.258 9.21094 11.3539 9.21094 11.4722V20.0375C9.21094 20.1558 9.30682 20.2517 9.42515 20.2517H12.0913C12.2097 20.2517 12.3055 20.1558 12.3055 20.0375V11.4722C12.3055 11.3539 12.2097 11.258 12.0913 11.258Z" fill="white"/>
<path d="M10.7593 7C9.78923 7 9 7.78838 9 8.75742C9 9.72688 9.78923 10.5156 10.7593 10.5156C11.7287 10.5156 12.5173 9.72684 12.5173 8.75742C12.5173 7.78838 11.7287 7 10.7593 7Z" fill="white"/>
<path d="M18.8731 11.0451C17.8023 11.0451 17.0107 11.5054 16.5306 12.0285V11.4722C16.5306 11.3539 16.4347 11.258 16.3164 11.258H13.763C13.6447 11.258 13.5488 11.3539 13.5488 11.4722V20.0375C13.5488 20.1558 13.6447 20.2517 13.763 20.2517H16.4234C16.5417 20.2517 16.6376 20.1558 16.6376 20.0375V15.7997C16.6376 14.3716 17.0255 13.8153 18.021 13.8153C19.1051 13.8153 19.1913 14.7071 19.1913 15.8731V20.0375C19.1913 20.1559 19.2872 20.2517 19.4055 20.2517H22.0668C22.1851 20.2517 22.281 20.1559 22.281 20.0375V15.3393C22.281 13.2159 21.8761 11.0451 18.8731 11.0451Z" fill="white"/>
</svg>
