<svg width="35" height="33" viewBox="0 0 35 33" fill="none" xmlns="http://www.w3.org/2000/svg">
<path d="M13.8282 12.8108H10.7943C10.6596 12.8108 10.5505 12.9199 10.5505 13.0545V22.8013C10.5505 22.9359 10.6596 23.045 10.7943 23.045H13.8282C13.9629 23.045 14.072 22.9359 14.072 22.8013V13.0545C14.072 12.9199 13.9629 12.8108 13.8282 12.8108Z" fill="white"/>
<path d="M12.3124 7.96558C11.2084 7.96558 10.3103 8.86269 10.3103 9.96539C10.3103 11.0686 11.2084 11.966 12.3124 11.966C13.4154 11.966 14.3128 11.0685 14.3128 9.96539C14.3128 8.86269 13.4154 7.96558 12.3124 7.96558Z" fill="white"/>
<path d="M21.5453 12.5686C20.3267 12.5686 19.426 13.0924 18.8796 13.6876V13.0546C18.8796 12.92 18.7705 12.8108 18.6358 12.8108H15.7303C15.5957 12.8108 15.4866 12.92 15.4866 13.0546V22.8013C15.4866 22.936 15.5957 23.0451 15.7303 23.0451H18.7576C18.8923 23.0451 19.0014 22.936 19.0014 22.8013V17.9789C19.0014 16.3539 19.4428 15.7208 20.5756 15.7208C21.8092 15.7208 21.9073 16.7357 21.9073 18.0626V22.8014C21.9073 22.936 22.0164 23.0451 22.151 23.0451H25.1795C25.3141 23.0451 25.4232 22.936 25.4232 22.8014V17.4551C25.4232 15.0388 24.9625 12.5686 21.5453 12.5686Z" fill="white"/>
<rect x="0.56897" y="0.5" width="33.1379" height="32" rx="4.5" stroke="white"/>
</svg>
