<svg width="30" height="29" viewBox="0 0 30 29" fill="none" xmlns="http://www.w3.org/2000/svg">
<path d="M8.43853 14.9854H11.0883C11.1183 14.9837 11.1537 14.9831 11.1898 14.9831C11.6273 14.9831 12.033 15.1165 12.3661 15.3436L12.3595 15.3395C12.659 15.5987 12.8469 15.9756 12.8469 16.3946C12.8469 16.4426 12.8445 16.49 12.8397 16.5368L12.8403 16.5309C12.8409 16.5491 12.8415 16.5707 12.8415 16.5924C12.8415 16.8241 12.7868 17.0442 12.6902 17.2396L12.6944 17.2308C12.5996 17.4076 12.4657 17.5527 12.3025 17.6592L12.2983 17.6615C12.1338 17.768 11.9412 17.8482 11.7341 17.8892L11.7239 17.8909C11.5271 17.9337 11.3008 17.9582 11.0691 17.9582C11.0589 17.9582 11.0487 17.9582 11.0391 17.9582H11.0409H8.43913L8.43853 14.9854ZM20.031 13.3796C20.0652 13.3773 20.1048 13.3755 20.145 13.3755C20.5838 13.3755 20.9823 13.5429 21.2776 13.8156L21.277 13.815C21.5687 14.148 21.7559 14.5764 21.7841 15.0463V15.0521H18.2017C18.2173 14.8625 18.2533 14.687 18.3067 14.5196L18.3019 14.5366C18.3649 14.3247 18.4663 14.141 18.599 13.983L18.5966 13.9859C18.7496 13.8092 18.9351 13.6646 19.1445 13.5593L19.1547 13.5546C19.3912 13.4434 19.6691 13.3779 19.9626 13.3779C19.9866 13.3779 20.0106 13.3785 20.034 13.379H20.0304L20.031 13.3796ZM20.097 11.758C20.0808 11.758 20.0622 11.7575 20.043 11.7575C19.4584 11.7575 18.9021 11.8751 18.3979 12.0869L18.4249 12.077C17.4328 12.4919 16.6682 13.2679 16.2949 14.2317L16.2859 14.258C16.0986 14.7338 15.99 15.2839 15.99 15.8585C15.99 15.8708 15.99 15.8831 15.99 15.8948V15.8931C15.99 15.9089 15.99 15.927 15.99 15.9457C15.99 16.5245 16.0956 17.0793 16.2889 17.5925L16.2781 17.5591C16.4689 18.0642 16.7456 18.4972 17.0943 18.8641L17.0919 18.8618C17.4478 19.2211 17.8794 19.5067 18.3619 19.6939L18.3865 19.7021C18.8751 19.89 19.441 19.9988 20.0328 19.9988C20.055 19.9988 20.0778 19.9988 20.1 19.9982H20.0964C20.1342 19.9994 20.1781 20 20.2225 20C21.0357 20 21.7943 19.7724 22.4347 19.3791L22.4173 19.389C23.1099 18.9057 23.6171 18.2087 23.841 17.3976L23.847 17.3725H21.9084C21.7931 17.6656 21.5885 17.9038 21.3262 18.0612L21.3202 18.0647C21.0117 18.2707 20.63 18.3936 20.2189 18.3936C20.2015 18.3936 20.1841 18.3936 20.1672 18.393H20.1697C20.1312 18.396 20.0862 18.3971 20.0406 18.3971C19.5431 18.3971 19.0893 18.2163 18.7436 17.9184L18.7454 17.9202C18.4057 17.5386 18.1987 17.0377 18.1987 16.4888C18.1987 16.459 18.1993 16.4285 18.2005 16.3987V16.4028H23.985C23.9946 16.2822 24 16.1424 24 16.0007C24 15.5256 23.9388 15.0644 23.8229 14.6244L23.8313 14.663C23.6867 14.0971 23.4436 13.6008 23.1183 13.1672L23.1267 13.1789C22.7984 12.7459 22.3795 12.3965 21.8964 12.1519L21.8766 12.1425C21.3838 11.8979 20.8016 11.7545 20.1853 11.7545C20.1534 11.7545 20.1222 11.7551 20.091 11.7557H20.0958L20.097 11.758ZM8.43853 10.8393H10.7192C10.7282 10.8393 10.7396 10.8393 10.7504 10.8393C10.9611 10.8393 11.1669 10.8586 11.3662 10.896L11.3458 10.8931C11.5475 10.9253 11.7281 10.992 11.8896 11.0868L11.883 11.0833C12.0414 11.1746 12.1687 11.3016 12.2563 11.4537L12.2587 11.4584C12.3445 11.6246 12.3949 11.8201 12.3949 12.0272C12.3949 12.0448 12.3943 12.0629 12.3937 12.0805V12.0782C12.3973 12.1103 12.3991 12.1484 12.3991 12.1864C12.3991 12.5369 12.2359 12.8506 11.9796 13.0584L11.9778 13.0601C11.6981 13.2509 11.3506 13.365 10.9755 13.365C10.9509 13.365 10.9257 13.3644 10.9011 13.3632H10.9047H8.43793L8.43853 10.8393ZM17.7509 9.72506V10.7901H22.2391V9.72448L17.7509 9.72506ZM6 9.00059V19.7964H11.3668C11.3698 19.7964 11.374 19.7964 11.3776 19.7964C11.8884 19.7964 12.3829 19.7302 12.8535 19.6062L12.8138 19.6149C13.2934 19.4944 13.7135 19.3019 14.0856 19.0467L14.0736 19.0549C14.4397 18.8009 14.735 18.4726 14.9421 18.0922L14.9493 18.077C15.1527 17.6879 15.2722 17.2279 15.2722 16.7404C15.2722 16.7129 15.2716 16.6848 15.271 16.6573V16.6614C15.2722 16.6345 15.2722 16.6023 15.2722 16.5707C15.2722 15.9598 15.0849 15.3921 14.7632 14.9181L14.7704 14.9292C14.4067 14.4365 13.8798 14.0778 13.2682 13.928L13.2502 13.9245C13.7105 13.7243 14.0916 13.42 14.3743 13.042L14.3797 13.0344C14.6186 12.6739 14.7608 12.2332 14.7608 11.7604C14.7608 11.73 14.7602 11.6995 14.759 11.6691V11.6732C14.7602 11.6457 14.7602 11.6135 14.7602 11.5813C14.7602 11.1565 14.6666 10.7527 14.4979 10.3887L14.5058 10.4068C14.3383 10.0697 14.0922 9.79178 13.7903 9.58754L13.7831 9.58286C13.4632 9.3757 13.0881 9.22121 12.6848 9.14103L12.6644 9.13752C12.2503 9.05033 11.7737 9 11.2858 9C11.2624 9 11.239 9 11.2156 9.00059H11.2192H6Z" fill="white"/>
<rect x="0.5" y="0.5" width="29" height="28" rx="4.5" stroke="#5472C7"/>
</svg>
