<?xml version="1.0" encoding="UTF-8"?>
<svg id="_ÎÓÈ_1" data-name="—ÎÓÈ_1" xmlns="http://www.w3.org/2000/svg" viewBox="0 0 198.37 138.61">
  <defs>
    <style>
      .cls-1 {
        fill: none;
      }

      .cls-2 {
        fill: #00b9ee;
      }

      .cls-3 {
        fill: #fff;
      }

      .cls-4 {
        fill: #ff0d0d;
      }

      .cls-5 {
        fill: #f18374;
      }

      .cls-6 {
        fill: #999;
      }

      .cls-7, .cls-8 {
        fill: #c1c1c1;
      }

      .cls-9 {
        fill: #a7d100;
      }

      .cls-8 {
        fill-rule: evenodd;
      }
    </style>
  </defs>
  <rect class="cls-6" x="81.12" y="110.27" width="36.13" height="24.09"/>
  <path class="cls-8" d="m65.89,134.36h66.59c.78,0,1.42.63,1.42,1.42v2.83h-69.43v-2.83c0-.78.63-1.42,1.42-1.42Z"/>
  <rect class="cls-7" width="198.37" height="111.58" rx="2.83" ry="2.83"/>
  <rect x="2.8" y="2.54" width="192.76" height="106.51"/>
  <rect class="cls-1" x="3.19" y="2.66" width="191.99" height="106.27"/>
  <rect class="cls-9" x="12.8" y="12.54" width="30.95" height="2.65"/>
  <rect class="cls-5" x="48.4" y="12.54" width="23.21" height="2.65"/>
  <rect class="cls-9" x="12.8" y="44.39" width="30.95" height="2.65"/>
  <rect class="cls-4" x="48.4" y="44.39" width="20.21" height="2.65"/>
  <rect class="cls-9" x="12.8" y="28.48" width="30.95" height="2.65"/>
  <rect class="cls-2" x="48.4" y="28.48" width="23.21" height="2.65"/>
  <rect class="cls-3" x="25.18" y="23.14" width="30.95" height="2.65"/>
  <rect class="cls-5" x="60.78" y="23.14" width="23.21" height="2.65"/>
  <rect class="cls-2" x="12.8" y="17.84" width="7.74" height="2.65"/>
  <rect class="cls-9" x="88.64" y="23.14" width="54.17" height="2.65"/>
  <rect class="cls-2" x="25.18" y="49.69" width="30.95" height="2.65"/>
  <rect class="cls-5" x="60.78" y="49.69" width="38.69" height="2.65"/>
  <rect class="cls-9" x="25.18" y="17.84" width="23.21" height="2.65"/>
  <rect class="cls-3" x="25.18" y="39.09" width="30.95" height="2.65"/>
  <rect class="cls-5" x="60.78" y="39.09" width="15.48" height="2.65"/>
  <rect class="cls-9" x="25.18" y="33.79" width="23.21" height="2.65"/>
  <rect class="cls-9" x="12.8" y="70.9" width="30.95" height="2.65"/>
  <rect class="cls-9" x="12.8" y="81.5" width="15.48" height="2.65"/>
  <rect class="cls-4" x="48.4" y="70.9" width="20.21" height="2.65"/>
  <rect class="cls-9" x="12.8" y="54.99" width="30.95" height="2.65"/>
  <rect class="cls-2" x="48.4" y="54.99" width="23.21" height="2.65"/>
  <rect class="cls-2" x="25.18" y="76.2" width="30.95" height="2.65"/>
  <rect class="cls-5" x="60.78" y="76.2" width="23.21" height="2.65"/>
  <rect class="cls-3" x="87.86" y="76.2" width="7.74" height="2.65"/>
  <rect class="cls-3" x="25.18" y="65.6" width="30.95" height="2.65"/>
  <rect class="cls-5" x="60.78" y="65.6" width="15.48" height="2.65"/>
  <rect class="cls-9" x="25.18" y="60.29" width="23.21" height="2.65"/>
</svg>